<svg xmlns="http://www.w3.org/2000/svg" xmlns:xlink="http://www.w3.org/1999/xlink" width="500" zoomAndPan="magnify" viewBox="0 0 375 374.999991" height="500" preserveAspectRatio="xMidYMid meet" version="1.0"><defs><clipPath id="b85946301e"><path d="M 187.5 0 C 83.945312 0 0 83.945312 0 187.5 C 0 291.054688 83.945312 375 187.5 375 C 291.054688 375 375 291.054688 375 187.5 C 375 83.945312 291.054688 0 187.5 0 Z M 187.5 0 " clip-rule="nonzero"/></clipPath><clipPath id="7638e2bf2b"><path d="M 0 0 L 375 0 L 375 375 L 0 375 Z M 0 0 " clip-rule="nonzero"/></clipPath><clipPath id="53d569b99c"><path d="M 187.5 0 C 83.945312 0 0 83.945312 0 187.5 C 0 291.054688 83.945312 375 187.5 375 C 291.054688 375 375 291.054688 375 187.5 C 375 83.945312 291.054688 0 187.5 0 Z M 187.5 0 " clip-rule="nonzero"/></clipPath><clipPath id="ecf8353578"><rect x="0" width="375" y="0" height="375"/></clipPath><clipPath id="aa24780317"><path d="M 58.253906 56 L 317 56 L 317 316 L 58.253906 316 Z M 58.253906 56 " clip-rule="nonzero"/></clipPath></defs><g clip-path="url(#b85946301e)"><g transform="matrix(1, 0, 0, 1, 0, 0)"><g clip-path="url(#ecf8353578)"><g clip-path="url(#7638e2bf2b)"><g clip-path="url(#53d569b99c)"><rect x="-82.5" width="540" fill="#fbf9ff" height="539.999987" y="-82.499998" fill-opacity="1"/></g></g></g></g></g><g clip-path="url(#aa24780317)"><path fill="#351775" d="M 187.5 56.816406 C 177.582031 56.816406 169.726562 64.894531 169.726562 74.722656 C 169.726562 78.785156 171.03125 82.488281 173.296875 85.515625 C 165.039062 90.40625 159.609375 99.449219 159.609375 109.792969 L 159.609375 113.8125 C 159.609375 122.855469 166.832031 130.058594 175.695312 130.058594 L 199.300781 130.058594 C 208.164062 130.058594 215.390625 122.808594 215.390625 113.8125 L 215.390625 109.792969 C 215.390625 99.449219 209.960938 90.40625 201.703125 85.515625 C 203.992188 82.488281 205.269531 78.785156 205.269531 74.722656 C 205.269531 64.894531 197.417969 56.816406 187.5 56.816406 Z M 187.5 65.433594 C 192.503906 65.433594 196.65625 69.515625 196.65625 74.722656 C 196.65625 79.929688 192.503906 84.035156 187.5 84.035156 C 182.496094 84.035156 178.320312 79.929688 178.320312 74.722656 C 178.320312 69.515625 182.496094 65.433594 187.5 65.433594 Z M 180.949219 91.371094 C 183.035156 92.226562 185.234375 92.628906 187.5 92.628906 C 189.765625 92.628906 191.785156 92.269531 194.074219 91.371094 C 201.34375 94.019531 206.773438 101.15625 206.773438 109.792969 L 206.773438 113.8125 C 206.773438 118.007812 203.5 121.441406 199.300781 121.441406 L 175.695312 121.441406 C 171.5 121.441406 168.226562 118.007812 168.226562 113.8125 L 168.226562 109.792969 C 168.226562 101.019531 173.835938 93.886719 180.949219 91.371094 Z M 135.578125 113.722656 C 134.882812 113.765625 134.230469 113.96875 133.667969 114.328125 C 100.191406 133.648438 79.792969 169.121094 79.792969 207.605469 C 79.882812 213.347656 88.253906 213.328125 88.410156 207.605469 C 88.410156 172.195312 107.28125 139.503906 137.957031 121.800781 C 141.746094 119.578125 140.3125 113.699219 135.578125 113.722656 Z M 239.109375 113.722656 C 234.53125 114.058594 233.429688 119.578125 237.042969 121.800781 C 267.71875 139.503906 286.589844 172.195312 286.589844 207.605469 C 286.589844 213.347656 295.226562 213.347656 295.226562 207.605469 C 295.226562 169.121094 274.671875 133.558594 241.351562 114.328125 C 240.722656 113.945312 240.027344 113.742188 239.109375 113.722656 Z M 187.5 138.671875 C 149.195312 138.671875 118.546875 169.839844 118.546875 207.605469 C 118.546875 245.367188 149.175781 276.535156 187.5 276.535156 C 225.847656 276.535156 256.410156 245.480469 256.410156 207.605469 C 256.410156 169.683594 225.800781 138.671875 187.5 138.671875 Z M 174.800781 148.636719 C 167.820312 155.007812 162.078125 162.457031 157.769531 170.714844 C 153.683594 168.808594 149.78125 166.519531 146.054688 163.828125 C 153.953125 156.355469 163.917969 150.992188 174.800781 148.636719 Z M 200.199219 148.660156 C 211.105469 150.992188 221.066406 156.332031 228.945312 163.78125 C 225.21875 166.496094 221.3125 168.832031 217.230469 170.761719 C 212.921875 162.503906 207.179688 155.007812 200.199219 148.660156 Z M 191.785156 152.742188 C 198.921875 158.664062 204.84375 165.9375 209.175781 173.945312 C 203.566406 175.785156 197.707031 176.953125 191.785156 177.3125 Z M 183.167969 152.808594 L 183.167969 177.335938 C 177.265625 176.953125 171.410156 175.808594 165.824219 173.96875 C 170.132812 165.957031 176.054688 158.710938 183.167969 152.808594 Z M 140.222656 170.175781 C 144.640625 173.476562 149.285156 176.300781 154.199219 178.613281 C 151.148438 186.421875 149.308594 194.726562 148.835938 203.296875 L 127.363281 203.296875 C 128.238281 190.820312 132.882812 179.398438 140.222656 170.175781 Z M 234.800781 170.199219 C 242.113281 179.421875 246.757812 190.820312 247.632812 203.296875 L 226.136719 203.296875 C 225.691406 194.726562 223.871094 186.421875 220.796875 178.589844 C 225.710938 176.300781 230.378906 173.476562 234.800781 170.199219 Z M 162.1875 181.84375 C 168.921875 184.15625 176.011719 185.523438 183.167969 185.929688 L 183.167969 203.296875 L 157.476562 203.296875 C 157.925781 195.847656 159.519531 188.644531 162.1875 181.84375 Z M 212.808594 181.84375 C 215.457031 188.644531 217.074219 195.824219 217.523438 203.296875 L 191.785156 203.296875 L 191.785156 185.949219 C 198.964844 185.546875 206.035156 184.15625 212.808594 181.84375 Z M 127.339844 211.914062 L 148.835938 211.914062 C 149.308594 220.507812 151.148438 228.808594 154.222656 236.640625 C 149.308594 238.929688 144.621094 241.753906 140.199219 245.03125 C 132.882812 235.808594 128.214844 224.410156 127.339844 211.914062 Z M 157.476562 211.914062 L 183.167969 211.914062 L 183.167969 229.28125 C 176.011719 229.683594 168.941406 231.074219 162.1875 233.386719 C 159.519531 226.566406 157.925781 219.382812 157.476562 211.914062 Z M 191.785156 211.914062 L 217.523438 211.914062 C 217.074219 219.382812 215.480469 226.566406 212.808594 233.386719 C 206.054688 231.074219 198.941406 229.660156 191.785156 229.28125 Z M 226.136719 211.914062 L 247.632812 211.914062 C 246.757812 224.410156 242.09375 235.789062 234.777344 245.03125 C 230.378906 241.734375 225.691406 238.929688 220.777344 236.640625 C 223.851562 228.808594 225.691406 220.507812 226.136719 211.914062 Z M 92.71875 224.835938 C 80.804688 224.835938 71.179688 234.507812 71.179688 246.355469 C 71.179688 251.671875 73.109375 256.566406 76.339844 260.335938 C 65.566406 266.148438 58.253906 277.636719 58.253906 290.828125 L 58.253906 295.855469 C 58.253906 306.535156 66.800781 315.308594 77.664062 315.308594 L 107.796875 315.308594 C 118.476562 315.308594 127.164062 306.738281 127.164062 295.855469 L 127.164062 290.828125 C 127.164062 277.636719 119.9375 266.191406 109.097656 260.355469 C 112.332031 256.585938 114.261719 251.695312 114.261719 246.355469 C 114.261719 234.507812 104.632812 224.835938 92.71875 224.835938 Z M 282.28125 226.070312 C 270.320312 226.070312 260.738281 235.765625 260.738281 247.613281 C 260.738281 252.570312 262.375 257.082031 265.226562 260.738281 C 254.746094 266.683594 247.792969 278.0625 247.792969 290.828125 L 247.792969 295.855469 C 247.792969 306.535156 256.386719 315.308594 267.203125 315.308594 L 297.359375 315.308594 C 308.21875 315.308594 316.746094 306.535156 316.746094 295.855469 L 316.746094 290.828125 C 316.746094 277.925781 309.8125 266.683594 299.332031 260.738281 C 302.207031 257.082031 303.84375 252.480469 303.84375 247.613281 C 303.84375 235.765625 294.21875 226.070312 282.28125 226.070312 Z M 92.71875 233.453125 C 99.785156 233.453125 105.644531 239.175781 105.644531 246.355469 C 105.644531 253.558594 99.832031 259.304688 92.71875 259.304688 C 85.628906 259.304688 79.792969 253.558594 79.792969 246.355469 C 79.792969 239.175781 85.652344 233.453125 92.71875 233.453125 Z M 282.28125 234.6875 C 289.347656 234.6875 295.226562 240.410156 295.226562 247.613281 C 295.226562 254.792969 289.347656 260.558594 282.28125 260.558594 C 275.210938 260.558594 269.355469 254.792969 269.355469 247.613281 C 269.355469 240.410156 275.210938 234.6875 282.28125 234.6875 Z M 183.167969 237.894531 L 183.167969 262.445312 C 176.054688 256.542969 170.132812 249.273438 165.824219 241.261719 C 171.410156 239.445312 177.265625 238.277344 183.167969 237.894531 Z M 191.785156 237.894531 C 197.707031 238.277344 203.542969 239.421875 209.152344 241.261719 C 204.84375 249.273438 198.964844 256.519531 191.828125 262.421875 Z M 157.769531 244.492188 C 162.078125 252.726562 167.820312 260.199219 174.777344 266.550781 C 163.757812 264.195312 153.929688 258.875 146.054688 251.40625 C 149.78125 248.710938 153.683594 246.402344 157.769531 244.492188 Z M 217.230469 244.492188 C 221.3125 246.402344 225.242188 248.710938 228.964844 251.425781 C 221.203125 258.785156 211.195312 264.21875 200.175781 266.574219 C 207.179688 260.179688 212.921875 252.726562 217.230469 244.492188 Z M 101.089844 266.234375 C 111.140625 269.601562 118.546875 279.273438 118.546875 290.828125 L 118.546875 295.855469 C 118.546875 301.824219 113.832031 306.691406 107.796875 306.691406 L 77.664062 306.691406 C 71.695312 306.691406 66.871094 301.9375 66.871094 295.855469 L 66.871094 290.828125 C 66.871094 279.273438 74.253906 269.625 84.347656 266.234375 C 86.886719 267.289062 89.824219 267.917969 92.71875 267.917969 C 95.636719 267.917969 98.554688 267.289062 101.089844 266.234375 Z M 272.453125 266.773438 C 275.367188 268.253906 278.800781 269.175781 282.28125 269.175781 C 285.757812 269.175781 289.191406 268.277344 292.109375 266.773438 C 301.398438 270.523438 308.128906 279.8125 308.128906 290.828125 L 308.128906 295.855469 C 308.128906 301.9375 303.304688 306.691406 297.359375 306.691406 L 267.203125 306.691406 C 261.300781 306.691406 256.410156 301.9375 256.410156 295.855469 L 256.410156 290.828125 C 256.410156 279.8125 263.320312 270.453125 272.453125 266.773438 Z M 147.605469 298.863281 C 143.136719 299.289062 142.171875 305.347656 146.347656 307.140625 C 172.691406 318.023438 202.265625 318.023438 228.628906 307.140625 C 232.960938 305.257812 231.679688 299.152344 227.28125 298.863281 C 226.609375 298.863281 225.960938 298.882812 225.351562 299.199219 C 201.097656 309.207031 173.878906 309.207031 149.625 299.199219 C 148.972656 298.90625 148.320312 298.816406 147.605469 298.863281 " fill-opacity="1" fill-rule="nonzero"/></g></svg>