<svg xmlns="http://www.w3.org/2000/svg" xmlns:xlink="http://www.w3.org/1999/xlink" width="500" zoomAndPan="magnify" viewBox="0 0 375 374.999991" height="500" preserveAspectRatio="xMidYMid meet" version="1.0"><defs><clipPath id="457168c330"><path d="M 187.5 0 C 83.945312 0 0 83.945312 0 187.5 C 0 291.054688 83.945312 375 187.5 375 C 291.054688 375 375 291.054688 375 187.5 C 375 83.945312 291.054688 0 187.5 0 Z M 187.5 0 " clip-rule="nonzero"/></clipPath><clipPath id="be8142af1e"><path d="M 0 0 L 375 0 L 375 375 L 0 375 Z M 0 0 " clip-rule="nonzero"/></clipPath><clipPath id="3b195f5df6"><path d="M 187.5 0 C 83.945312 0 0 83.945312 0 187.5 C 0 291.054688 83.945312 375 187.5 375 C 291.054688 375 375 291.054688 375 187.5 C 375 83.945312 291.054688 0 187.5 0 Z M 187.5 0 " clip-rule="nonzero"/></clipPath><clipPath id="e8f3fe4f41"><rect x="0" width="375" y="0" height="375"/></clipPath><clipPath id="f19c35a950"><path d="M 64.140625 124 L 286 124 L 286 312 L 64.140625 312 Z M 64.140625 124 " clip-rule="nonzero"/></clipPath></defs><g clip-path="url(#457168c330)"><g transform="matrix(1, 0, 0, 1, 0, 0)"><g clip-path="url(#e8f3fe4f41)"><g clip-path="url(#be8142af1e)"><g clip-path="url(#3b195f5df6)"><rect x="-82.5" width="540" fill="#fbf9ff" height="539.999987" y="-82.499998" fill-opacity="1"/></g></g></g></g></g><g clip-path="url(#f19c35a950)"><path fill="#351775" d="M 72.179688 309.496094 L 79.863281 311.417969 L 83.074219 298.578125 L 108.570312 298.578125 L 111.78125 311.417969 L 119.464844 309.496094 L 116.734375 298.578125 L 127.503906 298.578125 L 127.503906 290.65625 L 123.542969 290.65625 L 123.542969 278.777344 L 281.949219 278.777344 C 282.207031 278.777344 282.464844 278.75 282.71875 278.699219 C 282.976562 278.648438 283.222656 278.574219 283.464844 278.476562 C 283.703125 278.375 283.933594 278.253906 284.148438 278.109375 C 284.363281 277.964844 284.5625 277.800781 284.75 277.617188 C 284.933594 277.433594 285.097656 277.234375 285.242188 277.015625 C 285.386719 276.800781 285.507812 276.570312 285.605469 276.332031 C 285.707031 276.089844 285.78125 275.84375 285.832031 275.589844 C 285.882812 275.332031 285.90625 275.074219 285.90625 274.816406 L 285.90625 132.253906 C 285.90625 131.730469 285.855469 131.21875 285.753906 130.707031 C 285.652344 130.199219 285.5 129.703125 285.300781 129.222656 C 285.101562 128.742188 284.859375 128.285156 284.570312 127.855469 C 284.28125 127.421875 283.953125 127.023438 283.585938 126.652344 C 283.21875 126.285156 282.816406 125.957031 282.386719 125.667969 C 281.953125 125.378906 281.496094 125.136719 281.015625 124.9375 C 280.535156 124.738281 280.042969 124.585938 279.53125 124.484375 C 279.023438 124.382812 278.507812 124.332031 277.988281 124.332031 L 95.824219 124.332031 C 95.304688 124.332031 94.789062 124.382812 94.277344 124.484375 C 93.769531 124.585938 93.273438 124.738281 92.792969 124.9375 C 92.3125 125.136719 91.855469 125.378906 91.425781 125.667969 C 90.992188 125.957031 90.59375 126.285156 90.226562 126.652344 C 89.855469 127.023438 89.527344 127.421875 89.238281 127.855469 C 88.949219 128.285156 88.707031 128.742188 88.507812 129.222656 C 88.308594 129.703125 88.15625 130.199219 88.054688 130.707031 C 87.953125 131.21875 87.902344 131.730469 87.902344 132.253906 L 87.902344 211.453125 L 64.140625 211.453125 L 64.140625 219.375 L 68.101562 219.375 L 68.101562 290.65625 L 64.140625 290.65625 L 64.140625 298.578125 L 74.910156 298.578125 Z M 111.664062 282.734375 L 103.742188 282.734375 L 103.742188 274.816406 L 111.664062 274.816406 Z M 111.664062 251.054688 L 99.78125 251.054688 L 99.78125 243.136719 L 111.664062 243.136719 Z M 95.824219 132.253906 L 277.988281 132.253906 L 277.988281 270.855469 L 123.542969 270.855469 L 123.542969 219.375 L 127.503906 219.375 L 127.503906 211.453125 L 95.824219 211.453125 Z M 79.980469 227.292969 L 111.664062 227.292969 L 111.664062 235.214844 L 79.980469 235.214844 Z M 79.980469 243.136719 L 91.863281 243.136719 L 91.863281 251.054688 L 79.980469 251.054688 Z M 79.980469 258.976562 L 111.664062 258.976562 L 111.664062 266.894531 L 79.980469 266.894531 Z M 79.980469 274.816406 L 95.824219 274.816406 L 95.824219 282.734375 L 79.980469 282.734375 Z M 79.980469 274.816406 " fill-opacity="1" fill-rule="nonzero"/></g><path fill="#351775" d="M 103.742188 140.171875 L 159.183594 140.171875 L 159.183594 191.652344 L 103.742188 191.652344 Z M 103.742188 140.171875 " fill-opacity="1" fill-rule="nonzero"/><path fill="#351775" d="M 238.386719 207.496094 L 270.066406 207.496094 L 270.066406 262.9375 L 238.386719 262.9375 Z M 238.386719 207.496094 " fill-opacity="1" fill-rule="nonzero"/><path fill="#351775" d="M 175.023438 140.171875 L 270.066406 140.171875 L 270.066406 191.652344 L 175.023438 191.652344 Z M 175.023438 140.171875 " fill-opacity="1" fill-rule="nonzero"/><path fill="#351775" d="M 135.421875 207.496094 L 222.546875 207.496094 L 222.546875 262.9375 L 135.421875 262.9375 Z M 135.421875 207.496094 " fill-opacity="1" fill-rule="nonzero"/><path fill="#351775" d="M 78.6875 91.445312 L 91.863281 76.664062 L 81.515625 67.441406 C 81.03125 67.007812 80.507812 66.628906 79.949219 66.300781 C 79.386719 65.972656 78.800781 65.703125 78.1875 65.492188 C 77.574219 65.277344 76.945312 65.125 76.304688 65.039062 C 75.660156 64.949219 75.015625 64.921875 74.367188 64.960938 C 73.71875 65 73.082031 65.097656 72.453125 65.261719 C 71.824219 65.425781 71.21875 65.648438 70.632812 65.929688 C 70.046875 66.214844 69.496094 66.550781 68.980469 66.941406 C 68.460938 67.332031 67.984375 67.769531 67.554688 68.253906 C 67.121094 68.742188 66.742188 69.261719 66.410156 69.820312 C 66.082031 70.382812 65.808594 70.96875 65.597656 71.582031 C 65.382812 72.195312 65.230469 72.820312 65.140625 73.464844 C 65.050781 74.105469 65.023438 74.753906 65.058594 75.402344 C 65.09375 76.050781 65.195312 76.6875 65.355469 77.316406 C 65.519531 77.945312 65.742188 78.550781 66.023438 79.136719 C 66.304688 79.722656 66.640625 80.273438 67.03125 80.792969 C 67.417969 81.3125 67.855469 81.789062 68.339844 82.21875 Z M 78.6875 91.445312 " fill-opacity="1" fill-rule="nonzero"/><path fill="#351775" d="M 95.019531 85.238281 L 96.664062 77.484375 L 108.484375 79.992188 L 106.839844 87.742188 Z M 95.019531 85.238281 " fill-opacity="1" fill-rule="nonzero"/><path fill="#351775" d="M 78.910156 97.398438 L 86.421875 94.878906 L 90.480469 106.980469 L 82.96875 109.5 Z M 78.910156 97.398438 " fill-opacity="1" fill-rule="nonzero"/><path fill="#351775" d="M 88.910156 93.585938 L 94.269531 87.761719 L 106.382812 98.90625 L 101.019531 104.730469 Z M 88.910156 93.585938 " fill-opacity="1" fill-rule="nonzero"/><path fill="#351775" d="M 293.179688 67.441406 L 282.832031 76.664062 L 296.011719 91.445312 L 306.355469 82.21875 C 306.839844 81.789062 307.277344 81.3125 307.667969 80.792969 C 308.058594 80.273438 308.398438 79.722656 308.679688 79.136719 C 308.960938 78.550781 309.183594 77.945312 309.347656 77.316406 C 309.507812 76.6875 309.609375 76.046875 309.644531 75.398438 C 309.683594 74.75 309.65625 74.105469 309.566406 73.460938 C 309.476562 72.816406 309.324219 72.1875 309.109375 71.574219 C 308.894531 70.960938 308.621094 70.375 308.292969 69.816406 C 307.964844 69.257812 307.582031 68.734375 307.152344 68.25 C 306.71875 67.761719 306.242188 67.324219 305.722656 66.933594 C 305.207031 66.542969 304.652344 66.207031 304.070312 65.921875 C 303.484375 65.640625 302.878906 65.417969 302.25 65.253906 C 301.621094 65.089844 300.980469 64.992188 300.332031 64.953125 C 299.683594 64.914062 299.039062 64.941406 298.394531 65.03125 C 297.75 65.121094 297.121094 65.273438 296.507812 65.484375 C 295.894531 65.699219 295.308594 65.96875 294.75 66.300781 C 294.1875 66.628906 293.664062 67.007812 293.179688 67.441406 Z M 293.179688 67.441406 " fill-opacity="1" fill-rule="nonzero"/><path fill="#351775" d="M 266.210938 79.988281 L 278.03125 77.480469 L 279.675781 85.230469 L 267.855469 87.738281 Z M 266.210938 79.988281 " fill-opacity="1" fill-rule="nonzero"/><path fill="#351775" d="M 284.214844 106.980469 L 288.273438 94.882812 L 295.789062 97.402344 L 291.726562 109.503906 Z M 284.214844 106.980469 " fill-opacity="1" fill-rule="nonzero"/><path fill="#351775" d="M 268.3125 98.910156 L 280.417969 87.757812 L 285.78125 93.582031 L 273.675781 104.730469 Z M 268.3125 98.910156 " fill-opacity="1" fill-rule="nonzero"/></svg>