<svg xmlns="http://www.w3.org/2000/svg" xmlns:xlink="http://www.w3.org/1999/xlink" width="500" zoomAndPan="magnify" viewBox="0 0 375 374.999991" height="500" preserveAspectRatio="xMidYMid meet" version="1.0"><defs><g/><clipPath id="6277c1d16f"><path d="M 129.835938 202 L 242.335938 202 L 242.335938 314.5 L 129.835938 314.5 Z M 129.835938 202 " clip-rule="nonzero"/></clipPath><clipPath id="2bb0b20a17"><path d="M 186.085938 202 C 155.019531 202 129.835938 227.183594 129.835938 258.25 C 129.835938 289.3125 155.019531 314.5 186.085938 314.5 C 217.152344 314.5 242.335938 289.3125 242.335938 258.25 C 242.335938 227.183594 217.152344 202 186.085938 202 Z M 186.085938 202 " clip-rule="nonzero"/></clipPath><clipPath id="f73e7c6dba"><path d="M 0.835938 0 L 113.335938 0 L 113.335938 112.5 L 0.835938 112.5 Z M 0.835938 0 " clip-rule="nonzero"/></clipPath><clipPath id="341f1f197c"><path d="M 57.085938 0 C 26.019531 0 0.835938 25.183594 0.835938 56.25 C 0.835938 87.3125 26.019531 112.5 57.085938 112.5 C 88.152344 112.5 113.335938 87.3125 113.335938 56.25 C 113.335938 25.183594 88.152344 0 57.085938 0 Z M 57.085938 0 " clip-rule="nonzero"/></clipPath><clipPath id="844a5ac18d"><rect x="0" width="114" y="0" height="113"/></clipPath><clipPath id="c388f97959"><path d="M 41.835938 112 L 248.835938 112 L 248.835938 322.652344 L 41.835938 322.652344 Z M 41.835938 112 " clip-rule="nonzero"/></clipPath><clipPath id="29ed012970"><path d="M 22.582031 84.4375 L 186.085938 84.4375 L 186.085938 247.941406 L 22.582031 247.941406 Z M 22.582031 84.4375 " clip-rule="nonzero"/></clipPath><clipPath id="f4cbc7797c"><path d="M 104.332031 84.4375 C 59.183594 84.4375 22.582031 121.039062 22.582031 166.191406 C 22.582031 211.339844 59.183594 247.941406 104.332031 247.941406 C 149.484375 247.941406 186.085938 211.339844 186.085938 166.191406 C 186.085938 121.039062 149.484375 84.4375 104.332031 84.4375 Z M 104.332031 84.4375 " clip-rule="nonzero"/></clipPath><clipPath id="e537e30ccd"><path d="M 0.582031 0.4375 L 164.085938 0.4375 L 164.085938 163.941406 L 0.582031 163.941406 Z M 0.582031 0.4375 " clip-rule="nonzero"/></clipPath><clipPath id="4d4c99b147"><path d="M 82.332031 0.4375 C 37.183594 0.4375 0.582031 37.039062 0.582031 82.191406 C 0.582031 127.339844 37.183594 163.941406 82.332031 163.941406 C 127.484375 163.941406 164.085938 127.339844 164.085938 82.191406 C 164.085938 37.039062 127.484375 0.4375 82.332031 0.4375 Z M 82.332031 0.4375 " clip-rule="nonzero"/></clipPath><clipPath id="9b4b6691e2"><rect x="0" width="165" y="0" height="164"/></clipPath><clipPath id="c3a50aed6d"><path d="M 22.582031 84.4375 L 186.082031 84.4375 L 186.082031 247.9375 L 22.582031 247.9375 Z M 22.582031 84.4375 " clip-rule="nonzero"/></clipPath><clipPath id="3d791ea95c"><path d="M 104.332031 84.4375 C 59.179688 84.4375 22.582031 121.039062 22.582031 166.1875 C 22.582031 211.335938 59.179688 247.9375 104.332031 247.9375 C 149.480469 247.9375 186.082031 211.335938 186.082031 166.1875 C 186.082031 121.039062 149.480469 84.4375 104.332031 84.4375 Z M 104.332031 84.4375 " clip-rule="nonzero"/></clipPath><clipPath id="5638c8da3e"><path d="M 56.1875 130.382812 L 152.1875 130.382812 L 152.1875 201.632812 L 56.1875 201.632812 Z M 56.1875 130.382812 " clip-rule="nonzero"/></clipPath><clipPath id="3e02f8661a"><rect x="0" width="126" y="0" height="233"/></clipPath><clipPath id="a7169eee70"><rect x="0" width="111" y="0" height="257"/></clipPath></defs><g clip-path="url(#6277c1d16f)"><g clip-path="url(#2bb0b20a17)"><g transform="matrix(1, 0, 0, 1, 129, 202)"><g clip-path="url(#844a5ac18d)"><g clip-path="url(#f73e7c6dba)"><g clip-path="url(#341f1f197c)"><path fill="#b3ff75" d="M 0.835938 0 L 113.335938 0 L 113.335938 112.5 L 0.835938 112.5 Z M 0.835938 0 " fill-opacity="1" fill-rule="nonzero"/></g></g></g></g></g></g><g clip-path="url(#c388f97959)"><path fill="#ffffff" d="M 104.804688 112.355469 C 139.597656 112.355469 167.789062 140.558594 167.789062 175.355469 C 167.789062 210.148438 139.585938 238.34375 104.804688 238.34375 C 70.007812 238.34375 41.804688 210.136719 41.804688 175.355469 C 41.804688 140.558594 70.007812 112.355469 104.804688 112.355469 Z M 185.5625 196.390625 C 181.179688 196.390625 176.898438 196.84375 172.761719 197.695312 C 165.386719 220.117188 147.238281 237.644531 124.433594 244.144531 C 123.222656 249.03125 122.574219 254.132812 122.574219 259.390625 C 122.574219 294.183594 150.777344 322.378906 185.5625 322.378906 C 220.359375 322.378906 248.5625 294.171875 248.5625 259.390625 C 248.5625 224.59375 220.359375 196.390625 185.5625 196.390625 Z M 191.382812 221.214844 C 191.988281 218.949219 194.332031 217.59375 196.601562 218.199219 C 198.867188 218.804688 200.222656 221.144531 199.617188 223.414062 L 179.75 297.550781 C 179.144531 299.820312 176.804688 301.175781 174.535156 300.570312 C 172.265625 299.964844 170.910156 297.625 171.519531 295.355469 Z M 158.570312 233.402344 C 160.152344 231.65625 162.851562 231.535156 164.585938 233.117188 C 166.332031 234.695312 166.457031 237.398438 164.875 239.132812 L 146.476562 259.390625 L 164.875 279.636719 C 166.457031 281.371094 166.332031 284.0625 164.585938 285.652344 C 162.851562 287.234375 160.164062 287.109375 158.570312 285.363281 L 137.574219 262.242188 C 136.105469 260.640625 136.085938 258.15625 137.574219 256.515625 L 158.570312 233.394531 Z M 206.25 239.132812 C 204.671875 237.398438 204.792969 234.707031 206.539062 233.117188 C 208.273438 231.535156 210.964844 231.65625 212.554688 233.402344 L 233.550781 256.523438 C 235.039062 258.15625 235.019531 260.652344 233.550781 262.253906 L 212.554688 285.375 C 210.972656 287.109375 208.273438 287.234375 206.539062 285.664062 C 204.792969 284.082031 204.667969 281.382812 206.25 279.644531 L 224.648438 259.398438 L 206.25 239.144531 Z M 126.394531 179.675781 C 126.394531 177.316406 128.304688 175.414062 130.65625 175.414062 C 133.015625 175.414062 134.914062 177.324219 134.914062 179.675781 L 134.914062 210.40625 C 134.914062 212.765625 133.007812 214.667969 130.65625 214.667969 L 78.929688 214.667969 C 76.570312 214.667969 74.667969 212.757812 74.667969 210.40625 L 74.667969 179.675781 C 74.667969 177.316406 76.578125 175.414062 78.929688 175.414062 C 81.292969 175.414062 83.199219 177.324219 83.199219 179.675781 L 83.199219 206.132812 L 126.394531 206.132812 Z M 104.792969 136.019531 C 109.957031 136.019531 114.636719 138.117188 118.027344 141.503906 C 121.414062 144.890625 123.507812 149.574219 123.507812 154.738281 C 123.507812 159.902344 121.414062 164.582031 118.027344 167.972656 C 114.636719 171.359375 109.96875 173.453125 104.792969 173.453125 C 99.617188 173.453125 94.945312 171.359375 91.558594 167.972656 C 88.171875 164.582031 86.074219 159.914062 86.074219 154.738281 C 86.074219 149.574219 88.171875 144.890625 91.558594 141.503906 C 94.945312 138.117188 99.617188 136.019531 104.792969 136.019531 Z M 111.988281 147.53125 C 110.140625 145.691406 107.59375 144.554688 104.792969 144.554688 C 101.980469 144.554688 99.433594 145.691406 97.585938 147.53125 C 95.738281 149.378906 94.597656 151.925781 94.597656 154.738281 C 94.597656 157.550781 95.738281 160.097656 97.585938 161.933594 C 99.433594 163.78125 101.980469 164.921875 104.792969 164.921875 C 107.605469 164.921875 110.152344 163.78125 111.988281 161.933594 C 113.835938 160.097656 114.976562 157.550781 114.976562 154.738281 C 114.976562 151.925781 113.835938 149.378906 111.988281 147.53125 Z M 111.988281 147.53125 " fill-opacity="1" fill-rule="evenodd"/></g><g clip-path="url(#29ed012970)"><g clip-path="url(#f4cbc7797c)"><g transform="matrix(1, 0, 0, 1, 22, 84)"><g clip-path="url(#9b4b6691e2)"><g clip-path="url(#e537e30ccd)"><g clip-path="url(#4d4c99b147)"><path fill="#ffffff" d="M 0.582031 0.4375 L 164.085938 0.4375 L 164.085938 163.941406 L 0.582031 163.941406 Z M 0.582031 0.4375 " fill-opacity="1" fill-rule="nonzero"/></g></g></g></g></g></g><g clip-path="url(#c3a50aed6d)"><g clip-path="url(#3d791ea95c)"><path stroke-linecap="butt" transform="matrix(0.75, 0, 0, 0.75, 22.580648, 84.437418)" fill="none" stroke-linejoin="miter" d="M 109.001858 0.000108726 C 48.798726 0.000108726 0.00184426 48.802198 0.00184426 109.000123 C 0.00184426 169.198047 48.798726 218.000137 109.001858 218.000137 C 169.199783 218.000137 218.001873 169.198047 218.001873 109.000123 C 218.001873 48.802198 169.199783 0.000108726 109.001858 0.000108726 Z M 109.001858 0.000108726 " stroke="#b3ff75" stroke-width="12" stroke-opacity="1" stroke-miterlimit="4"/></g></g><g clip-path="url(#5638c8da3e)"><path fill="#b3ff75" d="M 126.476562 130.382812 L 82.160156 130.382812 C 67.875 130.382812 56.253906 142.007812 56.253906 156.292969 L 56.253906 181.644531 C 56.253906 192.863281 65.378906 201.988281 76.59375 201.988281 C 87.808594 201.988281 96.632812 193.160156 96.929688 182.199219 L 111.707031 182.199219 C 112.003906 193.160156 121.011719 201.988281 132.042969 201.988281 C 143.078125 201.988281 152.386719 192.863281 152.386719 181.644531 L 152.386719 156.292969 C 152.386719 142.007812 140.761719 130.382812 126.476562 130.382812 Z M 146.328125 181.644531 C 146.328125 189.523438 139.921875 195.933594 132.042969 195.933594 C 124.164062 195.933594 117.757812 189.523438 117.757812 181.644531 L 117.757812 179.171875 C 117.757812 177.503906 116.402344 176.144531 114.730469 176.144531 L 93.910156 176.144531 C 92.238281 176.144531 90.882812 177.503906 90.882812 179.171875 L 90.882812 181.644531 C 90.882812 189.523438 84.472656 195.933594 76.597656 195.933594 C 68.71875 195.933594 62.308594 189.523438 62.308594 181.644531 L 62.308594 156.292969 C 62.308594 145.347656 71.214844 136.4375 82.164062 136.4375 L 126.480469 136.4375 C 137.425781 136.4375 146.332031 145.34375 146.332031 156.292969 L 146.332031 181.644531 Z M 90.210938 156.292969 C 90.210938 157.964844 88.855469 159.320312 87.183594 159.320312 L 82.839844 159.320312 L 82.839844 163.664062 C 82.839844 165.335938 81.484375 166.691406 79.8125 166.691406 C 78.140625 166.691406 76.785156 165.335938 76.785156 163.664062 L 76.785156 159.320312 L 72.441406 159.320312 C 70.769531 159.320312 69.414062 157.964844 69.414062 156.292969 C 69.414062 154.621094 70.769531 153.265625 72.441406 153.265625 L 76.785156 153.265625 L 76.785156 148.921875 C 76.785156 147.25 78.140625 145.894531 79.8125 145.894531 C 81.484375 145.894531 82.839844 147.25 82.839844 148.921875 L 82.839844 153.265625 L 87.183594 153.265625 C 88.855469 153.265625 90.210938 154.621094 90.210938 156.292969 Z M 126.660156 149.511719 C 126.660156 147.453125 128.335938 145.78125 130.390625 145.78125 C 132.449219 145.78125 134.125 147.457031 134.125 149.511719 C 134.125 151.570312 132.449219 153.246094 130.390625 153.246094 C 128.335938 153.246094 126.660156 151.570312 126.660156 149.511719 Z M 127.34375 156.292969 C 127.34375 158.351562 125.667969 160.023438 123.613281 160.023438 C 121.554688 160.023438 119.878906 158.347656 119.878906 156.292969 C 119.878906 154.234375 121.554688 152.558594 123.613281 152.558594 C 125.667969 152.558594 127.34375 154.234375 127.34375 156.292969 Z M 140.90625 156.292969 C 140.90625 158.351562 139.230469 160.023438 137.175781 160.023438 C 135.117188 160.023438 133.441406 158.347656 133.441406 156.292969 C 133.441406 154.234375 135.117188 152.558594 137.175781 152.558594 C 139.230469 152.558594 140.90625 154.234375 140.90625 156.292969 Z M 134.125 163.074219 C 134.125 165.132812 132.449219 166.804688 130.390625 166.804688 C 128.335938 166.804688 126.660156 165.132812 126.660156 163.074219 C 126.660156 161.015625 128.335938 159.34375 130.390625 159.34375 C 132.449219 159.34375 134.125 161.019531 134.125 163.074219 Z M 134.125 163.074219 " fill-opacity="1" fill-rule="nonzero"/></g><g transform="matrix(1, 0, 0, 1, 186, 0)"><g clip-path="url(#3e02f8661a)"><g fill="#c6ff98" fill-opacity="1"><g transform="translate(1.856908, 172.313358)"><g><path d="M 61.203125 1.109375 C 42.398438 1.109375 27.835938 -5.097656 17.515625 -17.515625 C 9.160156 -27.585938 4.984375 -39.382812 4.984375 -52.90625 C 4.984375 -67.53125 9.097656 -80.066406 17.328125 -90.515625 C 27.648438 -103.421875 42.210938 -109.875 61.015625 -109.875 C 75.765625 -109.875 87.8125 -106.398438 97.15625 -99.453125 C 106.5 -92.515625 112.03125 -83.269531 113.75 -71.71875 L 84.8125 -71.71875 C 84.8125 -77 82.71875 -81.050781 78.53125 -83.875 C 74.351562 -86.707031 69.128906 -88.125 62.859375 -88.125 C 53.765625 -88.125 46.578125 -84.863281 41.296875 -78.34375 C 36.015625 -71.832031 33.375 -63.351562 33.375 -52.90625 C 33.375 -43.195312 35.890625 -35.390625 40.921875 -29.484375 C 45.960938 -23.585938 52.660156 -20.640625 61.015625 -20.640625 C 68.890625 -20.640625 74.945312 -21.898438 79.1875 -24.421875 C 83.425781 -26.941406 86.585938 -31.273438 88.671875 -37.421875 L 69.5 -37.421875 L 69.5 -58.25 L 113.015625 -58.25 L 113.015625 0 L 92.359375 0 L 91.625 -8.84375 C 83.882812 -2.207031 73.742188 1.109375 61.203125 1.109375 Z M 61.203125 1.109375 "/></g></g></g></g></g><g transform="matrix(1, 0, 0, 1, 258, 118)"><g clip-path="url(#a7169eee70)"><g fill="#c6ff98" fill-opacity="1"><g transform="translate(1.954001, 198.815431)"><g><path d="M 101.40625 -34.453125 C 101.40625 -23.203125 98.125 -14.644531 91.5625 -8.78125 C 84.0625 -2.226562 71.992188 1.046875 55.359375 1.046875 C 42.234375 1.046875 31.101562 -1.46875 21.96875 -6.5 C 12.832031 -11.539062 7.382812 -19.507812 5.625 -30.40625 L 36.90625 -30.40625 C 37.613281 -23.257812 43.820312 -19.6875 55.53125 -19.6875 C 62.675781 -19.6875 67.597656 -20.445312 70.296875 -21.96875 C 72.992188 -23.488281 74.34375 -26.179688 74.34375 -30.046875 C 74.34375 -31.109375 73.960938 -32.109375 73.203125 -33.046875 C 72.441406 -33.984375 71.269531 -34.800781 69.6875 -35.5 C 68.101562 -36.207031 66.519531 -36.851562 64.9375 -37.4375 C 63.351562 -38.019531 61.300781 -38.601562 58.78125 -39.1875 C 56.269531 -39.78125 54.160156 -40.25 52.453125 -40.59375 C 50.753906 -40.945312 48.53125 -41.359375 45.78125 -41.828125 C 43.03125 -42.296875 41.128906 -42.648438 40.078125 -42.890625 C 33.984375 -43.941406 28.472656 -45.578125 23.546875 -47.796875 C 11.710938 -52.835938 5.796875 -60.628906 5.796875 -71.171875 C 5.796875 -81.835938 9.019531 -89.925781 15.46875 -95.4375 C 22.726562 -101.644531 34.675781 -104.75 51.3125 -104.75 C 64.207031 -104.75 75.367188 -101.9375 84.796875 -96.3125 C 94.234375 -90.6875 98.953125 -82.894531 98.953125 -72.9375 L 67.484375 -72.9375 C 66.898438 -80.320312 61.570312 -84.015625 51.5 -84.015625 C 45.757812 -84.015625 41.21875 -83.25 37.875 -81.71875 C 34.53125 -80.195312 32.859375 -78.441406 32.859375 -76.453125 C 32.859375 -75.046875 33.359375 -73.695312 34.359375 -72.40625 C 35.359375 -71.113281 36.941406 -69.96875 39.109375 -68.96875 C 41.273438 -67.976562 43.296875 -67.128906 45.171875 -66.421875 C 47.046875 -65.722656 49.625 -64.992188 52.90625 -64.234375 C 56.1875 -63.472656 58.613281 -62.945312 60.1875 -62.65625 C 61.769531 -62.363281 64.085938 -61.925781 67.140625 -61.34375 C 72.992188 -60.164062 78.5 -58.582031 83.65625 -56.59375 C 95.488281 -51.789062 101.40625 -44.410156 101.40625 -34.453125 Z M 101.40625 -34.453125 "/></g></g></g></g></g></svg>