<svg xmlns="http://www.w3.org/2000/svg" xmlns:xlink="http://www.w3.org/1999/xlink" width="1000" zoomAndPan="magnify" viewBox="0 0 750 749.999995" height="1000" preserveAspectRatio="xMidYMid meet" version="1.0"><defs><clipPath id="2c6d4ba196"><path d="M 13.328125 39 L 736 39 L 736 714 L 13.328125 714 Z M 13.328125 39 " clip-rule="nonzero"/></clipPath><clipPath id="efdf934b70"><path d="M 13.328125 39 L 736 39 L 736 714 L 13.328125 714 Z M 13.328125 39 " clip-rule="nonzero"/></clipPath></defs><rect x="-75" width="900" fill="#ffffff" y="-74.999999" height="899.999994" fill-opacity="1"/><rect x="-75" width="900" fill="#b0ffca" y="-74.999999" height="899.999994" fill-opacity="1"/><g clip-path="url(#2c6d4ba196)"><path fill="#ffffff" d="M 735.769531 174.457031 C 734.871094 171.3125 731.953125 169.289062 726.335938 166.371094 C 719.375 162.554688 715.78125 159.410156 716.679688 151.550781 C 717.128906 147.058594 713.984375 141.667969 710.84375 138.300781 C 705.902344 132.910156 698.941406 130.214844 691.753906 130.890625 C 683.667969 131.785156 676.484375 136.726562 671.992188 144.585938 C 658.964844 167.042969 645.714844 189.949219 632.917969 211.957031 L 622.8125 229.476562 C 616.972656 239.582031 611.359375 249.460938 605.519531 259.566406 L 603.496094 262.9375 L 594.515625 194.890625 L 594.289062 192.644531 L 538.597656 200.054688 L 532.984375 157.164062 L 532.757812 154.917969 L 421.597656 169.515625 C 420.472656 165.472656 419.574219 161.207031 418.675781 157.164062 C 415.308594 143.464844 411.9375 129.992188 408.570312 116.292969 C 402.507812 91.8125 389.929688 84.179688 363.207031 89.34375 C 354.449219 70.03125 340.300781 65.089844 314.699219 71.378906 C 313.351562 71.828125 311.78125 72.050781 310.433594 72.5 C 309.3125 68.457031 308.414062 64.191406 307.289062 60.148438 C 306.167969 55.882812 304.144531 51.839844 301.449219 48.246094 C 293.367188 38.816406 279.890625 36.34375 269.113281 42.40625 C 259.007812 48.246094 254.066406 59.925781 256.535156 71.378906 C 257.660156 76.09375 258.78125 80.585938 259.90625 85.300781 C 194.105469 101.46875 128.082031 117.863281 62.957031 134.257812 C 33.761719 141.667969 24.332031 157.386719 31.742188 187.03125 C 48.585938 254.625 65.203125 321.996094 82.046875 389.59375 C 86.761719 408.457031 91.476562 427.320312 95.96875 446.183594 C 92.824219 446.632812 89.90625 448.429688 87.886719 451.125 L 16.246094 547.015625 C 14.226562 549.710938 13.328125 553.082031 13.777344 556.449219 C 14.226562 559.816406 16.023438 562.738281 18.71875 564.757812 L 37.804688 578.90625 L 53.527344 590.582031 C 55.769531 592.378906 58.464844 593.054688 61.160156 593.054688 C 64.980469 593.054688 69.019531 591.257812 71.492188 587.886719 L 116.40625 527.703125 C 121.570312 548.363281 126.734375 569.25 131.902344 589.683594 C 133.921875 597.546875 136.390625 604.058594 139.3125 609.222656 C 145.375 628.3125 163.117188 640.886719 182.429688 640.886719 C 185.796875 640.886719 189.390625 640.4375 192.984375 639.539062 L 248.226562 625.839844 L 254.742188 675.695312 L 310.433594 668.285156 L 316.273438 713.421875 L 575.875 679.289062 L 576.550781 679.289062 L 578.570312 677.265625 C 579.242188 677.042969 580.140625 676.816406 580.589844 676.144531 L 645.269531 610.121094 C 645.269531 610.121094 645.269531 609.894531 645.492188 609.894531 L 648.636719 606.753906 L 613.378906 339.066406 L 636.507812 299.089844 L 637.183594 299.539062 L 708.820312 175.800781 L 716.007812 179.621094 L 681.871094 238.683594 C 679.625 242.5 677.382812 246.316406 675.359375 250.136719 C 669.070312 260.691406 662.785156 271.695312 656.945312 282.699219 C 655.597656 285.394531 656.269531 288.535156 656.945312 291.679688 C 657.167969 293.027344 657.617188 294.152344 657.617188 295.273438 L 658.066406 298.640625 L 663.457031 295.722656 C 665.703125 294.375 668.171875 293.027344 670.417969 291.679688 C 671.542969 291.007812 671.992188 289.882812 672.214844 289.210938 C 672.214844 288.984375 672.441406 288.761719 672.441406 288.535156 C 691.976562 254.625 711.515625 220.714844 731.277344 186.804688 C 734.871094 181.640625 736.667969 177.824219 735.769531 174.457031 Z M 281.6875 79.910156 C 280.789062 75.867188 279.667969 71.601562 278.769531 67.558594 C 278.320312 65.3125 277.871094 62.84375 281.015625 62.171875 C 284.160156 61.496094 285.28125 63.292969 285.957031 65.988281 C 286.855469 70.03125 287.976562 74.296875 288.875 78.339844 C 286.40625 78.789062 283.933594 79.238281 281.6875 79.910156 Z M 277.648438 47.347656 C 281.015625 46.449219 284.609375 46.675781 287.976562 48.023438 C 295.164062 50.492188 298.53125 55.882812 300.328125 63.070312 C 301.226562 66.886719 302.125 70.703125 303.246094 74.746094 C 301 75.417969 298.53125 75.867188 296.285156 76.542969 C 295.164062 71.601562 293.816406 66.886719 292.691406 61.945312 C 291.121094 56.78125 285.957031 53.636719 280.789062 54.308594 C 274.726562 54.757812 270.234375 60.148438 270.910156 66.210938 C 270.910156 66.886719 271.132812 67.558594 271.359375 68.234375 C 272.480469 72.726562 273.605469 77.441406 274.726562 81.933594 C 272.257812 82.605469 270.011719 83.054688 267.539062 83.730469 C 266.417969 79.238281 265.296875 74.523438 264.171875 70.03125 C 261.476562 59.699219 267.765625 49.820312 277.648438 47.347656 Z M 277.648438 47.347656 " fill-opacity="1" fill-rule="nonzero"/></g><path fill="#8c52ff" d="M 578.792969 571.71875 L 516.8125 635.046875 L 516.589844 634.148438 L 509.628906 580.703125 Z M 274.503906 113.820312 C 274.726562 114.496094 274.953125 115.167969 274.953125 116.066406 C 275.402344 117.640625 275.625 119.210938 276.074219 120.78125 C 276.75 123.027344 277.199219 125.5 277.648438 127.746094 L 286.179688 125.722656 C 285.730469 125.5 285.28125 125.050781 284.832031 124.824219 C 284.382812 124.375 284.160156 123.476562 283.933594 122.804688 C 283.261719 120.109375 282.585938 117.191406 281.914062 114.496094 C 281.6875 113.820312 281.464844 113.148438 281.464844 112.25 C 281.238281 111.574219 281.015625 110.675781 281.015625 110.003906 C 278.992188 102.144531 277.199219 94.058594 275.175781 86.199219 C 272.707031 86.871094 270.460938 87.320312 267.988281 87.996094 C 270.011719 95.855469 271.808594 103.941406 273.828125 111.800781 C 274.054688 112.25 274.277344 113.148438 274.503906 113.820312 Z M 288.875 110.226562 C 289.101562 110.902344 289.324219 111.574219 289.324219 112.472656 C 289.773438 114.496094 290.445312 116.742188 290.894531 118.761719 C 291.34375 120.109375 291.570312 121.679688 291.570312 123.253906 C 291.570312 123.703125 291.34375 124.152344 291.121094 124.375 L 299.207031 122.355469 C 299.207031 122.355469 299.207031 122.355469 299.429688 122.355469 C 298.53125 118.539062 297.632812 114.71875 296.511719 110.675781 C 296.285156 110.003906 296.0625 109.328125 296.0625 108.433594 C 295.835938 107.757812 295.613281 106.859375 295.613281 106.1875 C 293.589844 98.324219 291.792969 90.242188 289.773438 82.382812 C 287.304688 83.054688 285.058594 83.503906 282.585938 84.179688 C 284.609375 92.039062 286.40625 100.121094 288.425781 107.984375 C 288.652344 108.65625 288.875 109.554688 288.875 110.226562 Z M 382.519531 179.394531 C 382.296875 178.722656 382.070312 177.824219 381.847656 177.148438 C 381.621094 176.476562 381.398438 175.578125 381.171875 174.90625 C 374.886719 150.875 374.210938 148.179688 371.515625 136.953125 C 369.945312 130.664062 367.921875 121.90625 363.65625 105.289062 C 362.757812 101.46875 361.636719 97.875 360.511719 94.734375 C 360.289062 94.058594 360.0625 93.386719 359.613281 92.710938 C 359.390625 92.039062 358.941406 91.363281 358.714844 90.691406 C 353.328125 78.789062 345.464844 73.625 333.117188 73.625 C 328.175781 73.625 322.5625 74.523438 315.824219 76.09375 C 309.535156 77.664062 303.472656 79.238281 297.183594 80.808594 C 299.207031 88.667969 301 96.753906 303.023438 104.613281 C 303.246094 105.289062 303.472656 106.1875 303.472656 106.859375 C 303.695312 107.535156 303.921875 108.207031 303.921875 109.105469 C 305.042969 113.371094 305.941406 117.640625 307.066406 122.128906 C 316.273438 123.027344 324.132812 129.765625 326.601562 138.972656 L 335.808594 176.699219 C 336.257812 178.273438 336.484375 179.84375 336.484375 181.417969 C 336.484375 182.089844 336.484375 182.988281 336.484375 183.664062 C 336.484375 184.335938 336.257812 185.234375 336.257812 185.910156 C 335.808594 188.601562 334.910156 191.296875 333.339844 193.769531 C 330.195312 198.933594 325.253906 202.527344 319.417969 203.875 L 201.066406 233.066406 L 198.824219 233.515625 L 196.578125 233.964844 L 122.019531 252.382812 C 120.222656 252.832031 118.425781 253.054688 116.628906 253.054688 C 106.523438 253.054688 97.316406 246.09375 94.847656 235.988281 L 85.640625 198.257812 C 84.292969 192.421875 85.191406 186.359375 88.109375 181.191406 C 91.253906 176.027344 96.195312 172.433594 102.03125 171.085938 L 270.460938 129.316406 C 269.5625 125.5 268.4375 121.679688 267.539062 117.640625 C 267.316406 116.964844 267.09375 116.292969 267.09375 115.394531 C 266.867188 114.71875 266.644531 113.820312 266.644531 113.148438 C 265.746094 109.328125 264.847656 105.738281 263.949219 101.917969 C 262.824219 97.652344 261.925781 93.609375 260.804688 89.34375 C 195.230469 105.738281 129.207031 122.355469 64.082031 138.523438 C 37.132812 145.261719 29.496094 158.511719 36.234375 185.910156 C 53.078125 253.503906 69.695312 320.875 86.539062 388.46875 C 91.253906 407.558594 95.96875 426.871094 100.910156 446.183594 C 102.707031 446.632812 104.503906 447.308594 106.074219 448.429688 L 109.894531 451.351562 C 110.117188 451.351562 110.34375 451.351562 110.34375 451.351562 C 110.34375 451.351562 110.566406 451.351562 111.015625 450.453125 L 111.242188 450.226562 C 114.382812 445.734375 117.753906 441.246094 121.121094 436.753906 C 116.628906 431.363281 112.8125 425.972656 109.667969 420.136719 C 95.746094 400.371094 89.679688 377.691406 92.152344 352.316406 C 93.273438 340.414062 96.644531 329.183594 101.808594 319.078125 C 102.257812 317.957031 102.929688 317.058594 103.378906 315.933594 C 103.828125 315.035156 104.503906 314.136719 104.953125 313.238281 C 123.816406 281.351562 159.972656 260.691406 198.375 264.058594 C 199.046875 264.058594 199.945312 264.285156 200.617188 264.285156 C 201.292969 264.285156 202.191406 264.507812 202.863281 264.507812 C 203.539062 264.507812 204.4375 264.730469 205.109375 264.957031 C 227.34375 268.324219 246.65625 278.65625 261.253906 293.925781 C 262.152344 294.824219 263.050781 295.722656 263.949219 296.847656 C 264.847656 297.96875 265.746094 298.867188 266.644531 299.988281 C 270.460938 304.707031 274.054688 309.871094 276.972656 315.484375 C 289.101562 332.550781 296.0625 353.660156 296.0625 377.242188 C 295.835938 393.636719 291.34375 409.578125 282.8125 423.503906 C 282.136719 424.402344 281.464844 425.523438 281.015625 426.421875 C 280.566406 427.097656 280.117188 427.769531 279.667969 428.445312 C 279.441406 428.667969 279.21875 429.117188 278.992188 429.34375 C 265.96875 447.757812 250.023438 460.558594 231.835938 467.292969 C 231.160156 467.519531 230.488281 467.742188 229.589844 468.191406 C 228.914062 468.417969 228.242188 468.640625 227.34375 468.867188 C 212.746094 473.359375 196.800781 474.480469 179.285156 472.011719 C 168.730469 470.4375 158.847656 466.84375 149.640625 461.457031 C 148.292969 460.78125 148.292969 460.78125 147.394531 461.90625 C 146.046875 463.925781 144.476562 465.945312 143.128906 467.742188 C 142.679688 468.417969 142.230469 469.089844 141.558594 469.765625 C 141.558594 469.988281 141.332031 469.988281 141.332031 470.214844 C 140.660156 471.113281 140.210938 471.785156 139.535156 472.683594 C 139.085938 473.132812 138.863281 473.582031 138.636719 474.03125 L 140.210938 475.378906 L 140.433594 475.605469 C 141.558594 476.5 142.679688 477.625 143.355469 478.746094 C 144.925781 481.21875 145.597656 484.136719 145.375 487.054688 C 145.148438 488.628906 144.925781 489.976562 144.253906 491.546875 C 143.804688 492.222656 143.578125 492.894531 143.128906 493.570312 L 119.773438 524.785156 C 125.164062 546.792969 130.777344 568.574219 136.167969 590.359375 C 136.390625 591.480469 136.839844 592.378906 137.066406 593.503906 C 138.1875 576.433594 148.96875 561.164062 165.363281 554.425781 C 166.035156 554.203125 166.933594 553.753906 167.832031 553.527344 C 168.730469 553.304688 169.628906 552.855469 170.527344 552.632812 C 170.527344 552.632812 170.75 552.632812 170.75 552.632812 L 236.324219 535.789062 L 238.570312 535.113281 L 240.816406 534.441406 L 291.34375 521.414062 L 293.589844 520.742188 L 295.835938 520.066406 L 378.253906 498.734375 C 377.804688 496.488281 377.132812 494.242188 376.457031 491.773438 C 376.007812 490.425781 375.785156 488.851562 375.335938 487.28125 C 374.210938 482.789062 373.089844 478.074219 371.964844 473.359375 C 371.515625 472.011719 371.292969 470.4375 370.84375 468.867188 C 366.800781 452.25 362.308594 434.507812 358.042969 416.765625 C 357.59375 415.195312 357.367188 413.847656 356.917969 412.273438 C 355.796875 407.558594 354.675781 403.066406 353.550781 398.351562 C 353.101562 396.78125 352.878906 395.433594 352.429688 393.859375 C 345.914062 368.035156 340.078125 344.679688 336.257812 330.082031 C 331.09375 310.542969 333.789062 293.925781 344.570312 278.207031 C 348.160156 272.816406 351.753906 267.203125 355.125 261.589844 C 356.246094 260.015625 357.144531 258.21875 358.265625 256.648438 C 359.164062 255.300781 360.0625 253.953125 360.738281 252.605469 C 362.984375 248.789062 365.453125 244.96875 367.921875 241.152344 C 369.046875 239.582031 369.945312 237.785156 371.066406 236.210938 C 371.292969 235.761719 371.742188 235.3125 371.964844 234.863281 C 373.089844 233.292969 374.210938 231.496094 375.109375 229.925781 C 375.785156 228.800781 376.683594 227.679688 377.355469 226.554688 C 377.582031 226.332031 377.582031 226.105469 377.804688 226.105469 C 378.253906 225.433594 378.703125 224.757812 379.152344 224.085938 C 379.601562 223.1875 380.050781 222.511719 380.5 221.613281 C 386.789062 210.386719 387.910156 198.933594 384.316406 185.234375 C 383.417969 182.765625 382.746094 181.191406 382.519531 179.394531 Z M 223.074219 435.628906 C 212.96875 440.121094 201.964844 442.589844 190.511719 442.589844 L 190.511719 444.835938 L 190.511719 442.589844 C 166.484375 442.589844 145.148438 431.8125 130.554688 415.195312 C 129.429688 413.847656 128.308594 412.5 127.183594 411.152344 C 126.960938 410.703125 126.511719 410.253906 126.285156 410.027344 C 124.714844 407.109375 123.367188 404.191406 122.246094 401.046875 C 120.222656 395.882812 118.875 390.265625 118.203125 384.878906 C 117.753906 381.285156 117.527344 377.691406 117.527344 373.875 C 117.527344 373.425781 117.527344 372.976562 117.527344 372.527344 C 117.527344 370.054688 117.753906 367.359375 117.976562 364.890625 C 122.246094 325.140625 155.480469 293.925781 195.902344 293.703125 L 196.351562 293.703125 C 196.578125 293.703125 196.578125 293.703125 196.800781 293.703125 C 199.496094 293.703125 201.964844 293.925781 204.660156 294.152344 C 205.335938 294.152344 206.234375 294.375 206.90625 294.375 C 207.582031 294.375 208.480469 294.601562 209.152344 294.601562 C 230.488281 297.96875 249.125 309.871094 261.253906 326.488281 C 264.171875 332.328125 266.417969 338.390625 267.988281 344.902344 C 269.113281 349.84375 269.785156 355.007812 270.011719 360.398438 C 270.011719 361.296875 270.011719 361.972656 270.011719 362.871094 C 270.011719 384.203125 261.925781 404.191406 246.878906 419.460938 C 241.042969 425.300781 234.527344 430.242188 227.34375 434.058594 C 226.667969 434.507812 225.996094 434.730469 225.320312 435.179688 C 224.421875 434.957031 223.75 435.179688 223.074219 435.628906 Z M 221.953125 427.320312 C 222.625 426.871094 223.300781 426.648438 223.972656 426.199219 C 224.648438 425.75 225.320312 425.300781 225.996094 425.074219 C 245.308594 413.621094 258.332031 392.289062 258.332031 368.257812 C 258.332031 337.941406 237.898438 312.339844 210.050781 304.480469 C 209.378906 304.257812 208.480469 304.03125 207.804688 303.808594 C 207.132812 303.582031 206.234375 303.359375 205.558594 303.359375 C 201.292969 302.460938 196.800781 302.011719 192.308594 302.011719 C 155.707031 302.011719 126.0625 331.652344 126.0625 368.257812 C 126.0625 404.863281 155.707031 434.507812 192.308594 434.507812 C 203.089844 434.28125 212.96875 431.585938 221.953125 427.320312 Z M 471.898438 250.136719 C 464.714844 242.949219 457.527344 235.761719 450.339844 228.578125 L 453.035156 250.585938 C 453.484375 254.851562 457.527344 257.996094 461.792969 257.546875 L 497.277344 253.054688 C 501.542969 252.605469 504.6875 248.5625 504.238281 244.296875 L 501.542969 222.960938 C 492.558594 231.945312 483.351562 241.152344 474.371094 250.136719 C 473.472656 251.035156 472.796875 251.035156 471.898438 250.136719 Z M 448.769531 216.449219 L 448.992188 219.144531 L 449.441406 223.636719 L 449.890625 226.332031 C 449.890625 226.332031 450.117188 226.105469 450.117188 226.105469 C 451.015625 225.207031 452.136719 224.308594 453.035156 223.1875 C 453.261719 222.960938 453.261719 222.960938 453.484375 222.738281 C 454.609375 221.613281 455.507812 220.714844 456.628906 219.59375 C 457.976562 218.246094 458.648438 218.472656 459.773438 219.820312 C 463.367188 223.410156 466.960938 226.78125 470.328125 230.597656 C 472.125 232.617188 473.246094 232.84375 475.042969 230.597656 C 481.554688 223.859375 488.292969 217.347656 494.804688 210.609375 C 495.03125 210.386719 495.480469 209.9375 495.703125 209.710938 C 497.277344 208.140625 498.175781 207.917969 499.523438 209.039062 L 499.523438 208.8125 C 499.523438 208.367188 499.296875 207.917969 499.296875 207.46875 C 499.074219 206.792969 498.625 205.894531 498.398438 205.445312 C 496.828125 202.976562 493.90625 201.628906 490.761719 201.851562 L 455.28125 206.34375 C 452.136719 206.792969 449.441406 209.039062 448.769531 211.957031 C 448.542969 212.632812 448.542969 213.53125 448.542969 214.203125 C 448.542969 214.429688 448.542969 214.878906 448.542969 215.101562 Z M 509.628906 286.964844 L 514.117188 322.445312 C 514.566406 326.714844 511.648438 330.757812 507.15625 331.203125 L 471.675781 335.695312 C 467.40625 336.144531 463.367188 333.226562 462.917969 328.734375 L 458.425781 293.253906 C 457.976562 288.984375 460.894531 284.945312 465.386719 284.496094 L 500.867188 280.003906 C 505.136719 279.554688 508.953125 282.699219 509.628906 286.964844 Z M 504.238281 291.457031 C 501.765625 289.882812 499.523438 288.085938 497.277344 286.066406 C 495.929688 284.71875 495.03125 285.167969 494.132812 286.515625 C 491.660156 289.882812 488.742188 293.253906 486.273438 296.621094 C 485.375 297.96875 484.476562 297.96875 483.351562 297.070312 C 479.984375 294.375 476.390625 291.679688 473.023438 288.984375 C 471.898438 288.085938 471.226562 288.085938 470.328125 289.210938 C 468.53125 291.679688 466.734375 294.152344 464.714844 296.398438 C 463.589844 297.742188 463.589844 298.417969 465.164062 299.539062 C 468.53125 302.011719 471.675781 304.707031 475.042969 307.175781 C 476.617188 308.300781 476.839844 309.195312 475.492188 310.542969 C 472.796875 313.914062 470.328125 317.28125 467.632812 320.648438 C 466.734375 321.773438 466.511719 322.445312 467.855469 323.34375 C 470.328125 325.140625 472.796875 327.164062 475.269531 328.960938 C 476.617188 330.082031 477.289062 329.859375 478.1875 328.511719 C 480.65625 325.140625 483.578125 321.773438 486.046875 318.40625 C 487.171875 317.058594 487.84375 316.832031 489.191406 317.957031 C 492.335938 320.648438 495.703125 323.121094 499.074219 325.589844 C 499.746094 326.039062 500.195312 326.714844 501.09375 326.714844 C 501.316406 326.265625 501.765625 325.816406 502.214844 325.367188 C 504.011719 323.121094 505.808594 320.648438 507.605469 318.40625 C 508.730469 317.058594 508.953125 316.160156 507.15625 315.035156 C 503.789062 312.566406 500.644531 309.871094 497.277344 307.402344 C 495.929688 306.277344 495.703125 305.605469 496.828125 304.257812 C 499.523438 301.113281 501.992188 297.746094 504.6875 294.375 C 505.808594 293.476562 506.035156 292.578125 504.238281 291.457031 Z M 509.851562 359.949219 L 474.371094 364.441406 C 470.101562 364.890625 466.960938 368.933594 467.40625 373.199219 L 468.304688 380.160156 C 470.328125 378.363281 472.125 376.34375 473.921875 374.546875 C 475.269531 373.199219 475.941406 373.425781 477.066406 374.773438 C 480.65625 378.363281 484.25 381.734375 487.621094 385.550781 C 489.414062 387.570312 490.539062 387.796875 492.335938 385.550781 C 499.074219 378.589844 506.257812 371.851562 512.996094 364.667969 C 514.792969 362.871094 515.691406 362.871094 517.261719 364.667969 C 517.488281 364.890625 517.710938 365.113281 517.9375 365.339844 C 517.261719 361.746094 513.667969 359.5 509.851562 359.949219 Z M 489.191406 405.089844 C 482.453125 398.351562 475.941406 391.839844 469.203125 385.101562 L 472.125 408.683594 C 472.574219 412.949219 476.617188 416.09375 480.882812 415.644531 L 516.363281 411.152344 C 517.710938 410.925781 518.835938 410.476562 519.734375 409.804688 L 523.324219 403.742188 C 523.324219 403.292969 523.324219 402.84375 523.324219 402.167969 L 520.183594 376.566406 C 510.75 386 501.316406 395.433594 491.886719 404.863281 C 490.761719 405.988281 490.089844 406.210938 489.191406 405.089844 Z M 520.40625 475.605469 C 518.835938 474.929688 517.261719 474.03125 515.691406 473.359375 L 504.6875 482.339844 L 506.707031 468.640625 C 506.484375 468.417969 506.257812 468.417969 506.035156 468.191406 C 499.074219 464.597656 500.644531 458.984375 501.542969 454.71875 C 501.765625 453.820312 501.992188 453.148438 502.214844 452.472656 C 502.890625 449.105469 503.339844 445.734375 504.011719 442.144531 C 504.011719 442.144531 504.011719 442.144531 504.011719 441.917969 L 485.148438 444.164062 C 480.882812 444.613281 477.738281 448.65625 478.1875 452.921875 L 482.679688 488.402344 C 483.128906 492.671875 487.171875 495.816406 491.4375 495.367188 L 526.917969 490.875 C 531.1875 490.425781 534.328125 486.382812 533.882812 482.117188 L 532.308594 468.640625 C 530.511719 470.214844 528.492188 471.785156 526.695312 473.359375 C 524.671875 474.929688 523.101562 475.828125 521.753906 475.828125 C 521.304688 475.828125 520.855469 475.828125 520.40625 475.605469 Z M 453.933594 578.90625 C 453.484375 574.640625 449.441406 571.496094 445.175781 571.945312 L 409.019531 576.433594 L 405.425781 576.882812 C 404.304688 577.109375 403.179688 577.332031 402.28125 578.007812 C 400.039062 579.355469 398.464844 581.824219 398.464844 584.519531 C 398.464844 584.96875 398.464844 585.417969 398.464844 585.867188 L 398.691406 586.765625 L 398.914062 589.011719 L 400.933594 605.40625 C 401.382812 609.671875 405.425781 612.816406 409.695312 612.367188 L 414.410156 611.691406 L 449.667969 607.203125 C 453.933594 606.753906 457.078125 602.710938 456.628906 598.441406 Z M 538.820312 518.273438 L 456.628906 529.050781 L 457.300781 533.542969 L 539.496094 522.761719 Z M 692.425781 135.378906 C 685.914062 136.054688 679.851562 140.320312 676.035156 146.832031 C 663.007812 169.289062 649.757812 192.195312 636.957031 214.203125 L 626.851562 231.71875 C 625.054688 235.089844 623.035156 238.234375 621.238281 241.601562 C 620.789062 242.273438 620.566406 242.949219 620.117188 243.621094 C 616.523438 249.6875 613.152344 255.75 609.5625 262.039062 L 604.621094 270.570312 L 602.824219 273.714844 L 602.375 274.613281 L 602.824219 274.839844 L 603.046875 274.839844 L 605.519531 276.183594 L 619.21875 284.269531 L 636.507812 255.523438 L 637.632812 253.503906 L 638.753906 251.484375 L 705.902344 139.648438 C 702.082031 136.503906 697.367188 134.929688 692.425781 135.378906 Z M 137.964844 477.847656 L 136.390625 476.726562 L 134.371094 475.15625 L 133.695312 474.707031 C 133.921875 476.5 133.472656 478.296875 133.023438 479.871094 C 132.574219 480.992188 132.125 482.117188 131.226562 483.238281 L 115.058594 504.796875 L 113.261719 507.042969 L 111.464844 509.511719 L 60.9375 577.78125 L 59.8125 579.355469 C 59.8125 579.355469 59.589844 579.578125 59.589844 579.578125 C 59.140625 580.253906 58.691406 580.703125 58.015625 581.375 C 56.445312 582.722656 54.425781 583.621094 52.402344 584.296875 L 56.445312 587.214844 C 60.039062 589.910156 65.203125 589.234375 68.121094 585.417969 L 115.058594 522.3125 L 116.855469 519.84375 L 118.652344 517.597656 L 139.761719 489.300781 C 142.230469 485.933594 141.558594 480.542969 137.964844 477.847656 Z M 137.964844 477.847656 " fill-opacity="1" fill-rule="nonzero"/><g clip-path="url(#efdf934b70)"><path fill="#000000" d="M 437.089844 300.4375 L 437.765625 304.929688 L 406.773438 308.972656 L 403.628906 309.421875 L 400.488281 309.871094 L 362.535156 314.8125 L 361.859375 310.320312 L 404.304688 304.707031 L 410.59375 303.808594 Z M 474.371094 250.136719 C 483.351562 241.152344 492.558594 231.945312 501.542969 222.960938 C 503.113281 221.390625 504.6875 219.820312 506.484375 218.023438 C 506.933594 217.574219 507.15625 217.347656 507.382812 216.898438 C 506.933594 216.226562 506.484375 215.777344 506.035156 215.328125 C 504.238281 213.53125 502.214844 211.734375 500.421875 209.710938 C 500.421875 209.710938 500.421875 209.710938 500.421875 209.488281 C 500.195312 209.261719 499.972656 209.039062 499.746094 208.816406 C 498.398438 207.691406 497.5 207.917969 495.929688 209.488281 C 495.703125 209.710938 495.253906 210.160156 495.03125 210.386719 C 488.519531 217.125 481.78125 223.636719 475.269531 230.375 C 473.246094 232.394531 472.347656 232.167969 470.550781 230.375 C 467.183594 226.78125 463.367188 223.1875 459.996094 219.59375 C 458.875 218.472656 457.976562 218.023438 456.851562 219.371094 C 455.957031 220.492188 454.832031 221.613281 453.710938 222.511719 C 453.484375 222.738281 453.484375 222.738281 453.261719 222.960938 C 452.363281 223.859375 451.238281 224.757812 450.339844 225.882812 C 450.117188 226.105469 450.117188 226.105469 450.117188 226.105469 C 449.441406 226.78125 449.441406 227.453125 450.339844 228.351562 C 457.527344 235.539062 464.714844 242.722656 471.898438 249.910156 C 472.796875 251.035156 473.472656 251.035156 474.371094 250.136719 Z M 523.773438 373.199219 C 524.222656 372.75 524.449219 372.527344 524.671875 372.078125 C 524.222656 371.402344 523.773438 370.953125 523.324219 370.503906 C 521.753906 368.933594 519.957031 367.136719 518.386719 365.5625 C 518.160156 365.339844 517.9375 365.113281 517.710938 364.890625 C 516.140625 363.09375 515.015625 363.09375 513.445312 364.890625 C 506.707031 371.851562 499.523438 378.589844 492.785156 385.777344 C 490.761719 387.796875 489.863281 387.570312 488.070312 385.777344 C 484.699219 382.183594 480.882812 378.589844 477.515625 374.996094 C 476.390625 373.875 475.492188 373.425781 474.371094 374.773438 C 472.574219 376.792969 470.550781 378.589844 468.753906 380.386719 C 468.53125 380.609375 468.082031 381.058594 467.855469 381.285156 C 466.960938 382.183594 466.734375 382.855469 467.855469 383.753906 C 468.304688 384.203125 468.980469 384.878906 469.429688 385.328125 C 476.167969 392.0625 482.902344 398.574219 489.417969 405.3125 C 490.3125 406.210938 490.988281 406.210938 491.886719 405.3125 C 501.316406 395.882812 510.75 386.449219 520.183594 377.015625 C 521.304688 375.671875 522.429688 374.324219 523.773438 373.199219 Z M 467.632812 320.648438 C 466.734375 321.773438 466.511719 322.445312 467.855469 323.34375 C 470.328125 325.140625 472.796875 327.164062 475.269531 328.960938 C 476.617188 330.082031 477.289062 329.859375 478.1875 328.511719 C 480.65625 325.140625 483.578125 321.773438 486.046875 318.40625 C 487.171875 317.058594 487.84375 316.832031 489.191406 317.957031 C 492.335938 320.648438 495.703125 323.121094 499.074219 325.589844 C 499.746094 326.039062 500.195312 326.714844 501.09375 326.714844 C 501.316406 326.265625 501.765625 325.816406 502.214844 325.367188 C 504.011719 323.121094 505.808594 320.648438 507.605469 318.40625 C 508.730469 317.058594 508.953125 316.160156 507.15625 315.035156 C 503.789062 312.566406 500.644531 309.871094 497.277344 307.402344 C 495.929688 306.277344 495.703125 305.605469 496.828125 304.257812 C 499.523438 301.113281 501.992188 297.746094 504.6875 294.375 C 505.808594 293.027344 506.035156 292.128906 504.460938 291.007812 C 501.992188 289.433594 499.746094 287.636719 497.5 285.617188 C 496.152344 284.269531 495.253906 284.71875 494.355469 286.066406 C 491.886719 289.433594 488.96875 292.804688 486.496094 296.171875 C 485.597656 297.519531 484.699219 297.519531 483.578125 296.621094 C 480.207031 293.925781 476.617188 291.230469 473.246094 288.535156 C 472.125 287.636719 471.449219 287.636719 470.550781 288.761719 C 468.753906 291.230469 466.960938 293.703125 464.9375 295.949219 C 463.816406 297.296875 463.816406 297.96875 465.386719 299.089844 C 468.753906 301.5625 471.898438 304.257812 475.269531 306.726562 C 476.839844 307.851562 477.066406 308.75 475.71875 310.09375 C 472.796875 313.914062 470.328125 317.507812 467.632812 320.648438 Z M 418.902344 555.550781 C 419.574219 561.164062 415.53125 566.328125 410.144531 567.003906 L 407 567.453125 L 400.039062 568.351562 L 378.925781 571.046875 L 373.3125 571.71875 L 365.003906 572.84375 L 303.695312 580.476562 L 301.449219 580.703125 L 299.207031 580.925781 L 290.445312 582.050781 C 289.996094 582.050781 289.546875 582.050781 289.101562 582.050781 C 283.933594 582.050781 279.667969 578.230469 278.992188 573.066406 L 276.523438 553.53125 C 275.851562 547.914062 279.890625 542.75 285.28125 542.078125 L 293.589844 540.953125 L 295.835938 540.730469 L 298.082031 540.503906 L 385.441406 529.5 L 387.6875 529.277344 L 389.929688 529.050781 L 390.15625 529.050781 L 398.242188 528.152344 L 405.203125 527.253906 C 410.816406 526.582031 415.980469 530.625 416.65625 536.011719 Z M 414.410156 556.222656 L 411.9375 536.460938 C 411.492188 533.316406 408.796875 531.074219 405.652344 531.519531 L 399.140625 532.417969 L 391.054688 533.316406 L 390.828125 533.316406 L 388.585938 533.542969 L 386.339844 533.765625 L 298.757812 544.769531 L 296.511719 544.996094 L 294.265625 545.21875 L 285.730469 546.34375 C 282.585938 546.792969 280.339844 549.488281 280.789062 552.632812 L 283.261719 572.394531 C 283.710938 575.539062 286.40625 577.78125 289.546875 577.332031 L 298.082031 576.210938 L 300.328125 575.988281 L 302.574219 575.761719 L 377.132812 566.328125 L 381.171875 565.878906 L 384.542969 565.429688 L 398.242188 563.636719 L 405.425781 562.738281 L 409.019531 562.289062 C 412.613281 562.289062 414.859375 559.367188 414.410156 556.222656 Z M 303.921875 601.8125 L 306.167969 601.585938 L 355.125 595.074219 L 374.886719 592.378906 L 388.585938 590.582031 L 388.359375 589.011719 L 388.136719 586.765625 L 388.136719 586.09375 L 305.71875 596.871094 L 303.472656 597.097656 L 301.226562 597.320312 L 282.136719 599.789062 L 282.8125 604.28125 L 301.898438 601.8125 Z M 307.964844 615.734375 L 305.71875 615.960938 L 303.472656 616.183594 L 283.035156 618.878906 L 283.710938 623.371094 L 304.144531 620.675781 L 306.390625 620.453125 L 308.636719 620.226562 L 389.929688 609.445312 L 389.257812 604.957031 Z M 731.953125 186.804688 C 712.414062 220.714844 692.652344 254.625 673.113281 288.535156 C 673.113281 288.761719 672.890625 288.984375 672.890625 289.210938 C 672.664062 290.109375 672.214844 291.007812 671.09375 291.679688 C 668.847656 293.027344 666.378906 294.375 664.132812 295.722656 L 658.742188 298.640625 L 658.292969 295.273438 C 658.066406 294.152344 657.84375 293.027344 657.617188 291.679688 C 656.945312 288.535156 656.046875 285.167969 657.617188 282.699219 C 663.457031 271.695312 669.746094 260.691406 676.035156 250.136719 C 678.28125 246.316406 680.523438 242.5 682.546875 238.683594 L 716.679688 179.621094 L 709.496094 175.800781 L 637.40625 299.765625 L 636.734375 299.316406 L 613.601562 339.289062 L 648.859375 606.976562 L 645.71875 610.121094 C 645.71875 610.121094 645.71875 610.34375 645.492188 610.34375 L 580.816406 676.367188 C 580.367188 676.816406 579.46875 677.265625 578.796875 677.492188 L 576.773438 679.511719 L 576.101562 679.511719 L 316.496094 713.648438 L 310.660156 668.507812 L 254.964844 675.921875 L 248.453125 626.066406 L 193.207031 639.765625 C 189.617188 640.664062 186.246094 641.113281 182.652344 641.113281 C 163.117188 641.113281 145.375 628.535156 139.535156 609.445312 C 136.617188 604.28125 134.144531 597.996094 132.125 589.910156 C 126.960938 569.25 121.796875 548.589844 116.628906 527.929688 L 71.714844 588.113281 C 69.246094 591.480469 65.429688 593.277344 61.386719 593.277344 C 58.691406 593.277344 55.996094 592.378906 53.75 590.808594 L 38.03125 579.128906 L 18.941406 564.980469 C 16.246094 562.960938 14.449219 560.042969 14 556.671875 C 13.550781 553.304688 14.449219 549.9375 16.472656 547.242188 L 87.886719 450.902344 C 89.90625 448.207031 92.824219 446.410156 95.96875 445.960938 C 91.253906 427.097656 86.539062 408.234375 82.046875 389.367188 C 65.203125 321.996094 48.359375 254.402344 31.742188 187.03125 C 24.332031 157.386719 33.761719 141.667969 62.957031 134.257812 C 128.308594 117.863281 194.105469 101.46875 259.679688 85.300781 C 258.558594 80.808594 257.433594 76.09375 256.3125 71.378906 C 253.84375 59.925781 259.007812 48.246094 268.886719 42.40625 C 279.667969 36.34375 293.367188 38.816406 301.226562 48.246094 C 303.921875 51.839844 305.941406 55.882812 307.066406 60.148438 C 308.1875 64.191406 309.085938 68.457031 310.210938 72.5 C 311.558594 72.050781 313.128906 71.828125 314.476562 71.378906 C 339.851562 65.089844 354.226562 70.03125 362.984375 89.34375 C 389.707031 84.179688 402.058594 91.8125 408.347656 116.292969 C 411.714844 129.992188 415.082031 143.464844 418.453125 157.164062 C 419.351562 161.207031 420.472656 165.246094 421.371094 169.515625 L 532.535156 154.917969 L 532.757812 157.164062 L 538.371094 200.054688 L 594.066406 192.644531 L 594.289062 194.890625 L 603.273438 262.9375 L 605.292969 259.566406 C 611.132812 249.460938 616.746094 239.355469 622.585938 229.476562 L 632.691406 211.957031 C 645.492188 189.949219 658.515625 167.042969 671.765625 144.585938 C 676.257812 136.726562 683.445312 131.785156 691.527344 130.890625 C 698.714844 130.214844 705.453125 132.910156 710.617188 138.300781 C 713.535156 141.667969 716.90625 147.058594 716.457031 151.550781 C 715.558594 159.183594 718.925781 162.554688 726.113281 166.371094 C 731.953125 169.515625 734.644531 171.3125 735.542969 174.457031 C 736.667969 177.824219 734.871094 181.640625 731.953125 186.804688 Z M 539.496094 204.546875 L 557.910156 344.003906 L 596.984375 276.183594 L 596.535156 275.960938 L 600.355469 269.449219 L 590.921875 197.808594 Z M 263.722656 69.804688 C 264.847656 74.296875 265.96875 79.011719 267.09375 83.503906 C 269.5625 82.832031 271.808594 82.382812 274.277344 81.707031 C 273.15625 77.214844 272.03125 72.5 270.910156 68.007812 C 270.683594 67.335938 270.683594 66.660156 270.460938 65.988281 C 270.011719 59.925781 274.277344 54.535156 280.339844 54.085938 C 285.730469 53.410156 290.671875 56.554688 292.242188 61.722656 C 293.367188 66.660156 294.714844 71.378906 295.835938 76.316406 C 298.082031 75.644531 300.550781 75.195312 302.796875 74.523438 C 301.898438 70.703125 301 66.886719 299.878906 62.84375 C 298.082031 55.882812 294.714844 50.269531 287.527344 47.796875 C 284.160156 46.675781 280.566406 46.449219 277.199219 47.125 C 267.765625 49.820312 261.476562 59.699219 263.722656 69.804688 Z M 293.816406 147.957031 C 284.160156 149.976562 274.503906 144.363281 271.582031 134.929688 C 271.582031 134.707031 271.359375 134.257812 271.359375 133.808594 L 102.929688 175.578125 C 98.214844 176.699219 94.398438 179.621094 91.925781 183.664062 C 89.457031 187.703125 88.785156 192.644531 89.90625 197.363281 L 99.113281 234.863281 C 101.582031 244.519531 111.242188 250.359375 120.898438 248.113281 L 195.902344 229.476562 L 200.394531 228.578125 L 318.292969 199.382812 C 323.007812 198.257812 326.828125 195.339844 329.296875 191.296875 C 330.195312 189.726562 330.871094 188.152344 331.320312 186.359375 C 331.542969 185.683594 331.542969 184.785156 331.769531 184.113281 C 331.769531 183.4375 331.992188 182.539062 331.992188 181.867188 C 331.992188 180.519531 331.769531 179.171875 331.542969 177.824219 L 322.335938 140.097656 C 320.539062 133.132812 314.925781 128.195312 308.414062 126.847656 C 308.414062 127.070312 308.414062 127.070312 308.414062 127.296875 C 310.210938 135.828125 303.023438 145.933594 293.816406 147.957031 Z M 275.175781 85.976562 C 272.707031 86.648438 270.460938 87.097656 267.988281 87.769531 C 270.011719 95.632812 271.808594 103.714844 273.828125 111.574219 C 274.054688 112.25 274.277344 113.148438 274.277344 113.820312 C 274.503906 114.496094 274.726562 115.167969 274.726562 116.066406 C 275.175781 117.640625 275.402344 119.210938 275.851562 120.78125 C 276.523438 123.027344 276.972656 125.5 277.421875 127.746094 L 285.957031 125.722656 C 285.507812 125.5 285.058594 125.050781 284.609375 124.824219 C 284.160156 124.375 283.933594 123.476562 283.710938 122.804688 C 283.035156 120.109375 282.363281 117.191406 281.6875 114.496094 C 281.464844 113.820312 281.238281 113.148438 281.238281 112.25 C 281.015625 111.574219 280.789062 110.675781 280.789062 110.003906 C 278.992188 101.917969 277.199219 94.058594 275.175781 85.976562 Z M 278.542969 67.335938 C 279.441406 71.378906 280.566406 75.644531 281.464844 79.6875 C 283.933594 79.011719 286.179688 78.5625 288.652344 77.890625 C 287.753906 73.847656 286.628906 69.582031 285.730469 65.539062 C 285.058594 62.84375 283.933594 61.046875 280.789062 61.722656 C 277.871094 62.621094 278.097656 65.089844 278.542969 67.335938 Z M 300.328125 126.621094 L 278.769531 132.011719 C 278.769531 132.234375 278.769531 132.460938 278.992188 132.460938 C 280.566406 138.300781 286.855469 141.894531 292.691406 140.097656 C 298.53125 138.523438 301.898438 132.460938 300.328125 126.621094 Z M 299.429688 122.128906 C 298.53125 118.3125 297.632812 114.496094 296.511719 110.453125 C 296.285156 109.777344 296.0625 109.105469 296.0625 108.207031 C 295.835938 107.535156 295.613281 106.636719 295.613281 105.960938 C 293.589844 98.101562 291.792969 90.015625 289.773438 82.15625 C 287.304688 82.832031 285.058594 83.28125 282.585938 83.953125 C 284.609375 91.8125 286.40625 99.898438 288.425781 107.757812 C 288.652344 108.433594 288.875 109.328125 288.875 110.003906 C 289.101562 110.675781 289.324219 111.351562 289.324219 112.25 C 289.773438 114.269531 290.445312 116.515625 290.894531 118.539062 C 291.34375 119.882812 291.570312 121.457031 291.570312 123.027344 C 291.570312 123.476562 291.34375 123.925781 291.121094 124.152344 L 299.429688 122.128906 C 299.207031 122.355469 299.429688 122.355469 299.429688 122.128906 Z M 50.605469 580.027344 C 51.730469 579.804688 52.851562 579.355469 53.976562 578.679688 C 54.648438 578.230469 55.097656 577.78125 55.769531 577.109375 C 55.996094 576.882812 55.996094 576.882812 56.21875 576.660156 L 57.117188 575.3125 L 60.710938 570.371094 L 110.34375 503.898438 L 112.136719 501.429688 L 113.933594 499.183594 L 122.917969 487.054688 L 127.632812 480.542969 C 127.859375 480.320312 127.859375 480.09375 128.082031 479.871094 C 129.207031 478.074219 129.429688 476.050781 129.207031 474.03125 C 128.757812 472.234375 127.859375 470.664062 126.511719 469.316406 C 126.285156 469.316406 126.285156 469.089844 126.0625 468.867188 L 120 464.375 L 118.203125 463.027344 L 115.957031 461.457031 L 109.894531 456.964844 L 107.421875 455.167969 L 107.199219 454.941406 L 104.277344 452.699219 L 103.15625 451.800781 C 102.707031 451.574219 102.480469 451.351562 102.03125 451.125 C 102.03125 451.125 102.03125 451.125 101.808594 451.125 C 100.910156 450.675781 100.238281 450.453125 99.339844 450.226562 C 98.890625 450.226562 98.441406 450.226562 97.992188 450.226562 C 97.542969 450.226562 97.316406 450.226562 96.867188 450.453125 C 94.621094 450.675781 92.601562 451.800781 91.253906 453.59375 L 19.839844 549.710938 C 18.492188 551.507812 18.042969 553.753906 18.269531 555.773438 C 18.492188 558.019531 19.839844 559.816406 21.414062 561.164062 L 25.679688 564.308594 L 28.375 566.328125 L 33.539062 570.148438 L 44.542969 578.230469 C 46.339844 579.804688 48.359375 580.253906 50.605469 580.027344 Z M 126.285156 436.078125 C 126.0625 436.753906 125.613281 437.425781 125.164062 438.324219 C 124.9375 438.550781 124.9375 438.550781 124.9375 438.773438 C 124.488281 439.222656 124.265625 439.671875 123.816406 440.121094 C 120.671875 444.164062 117.527344 448.65625 114.609375 452.699219 L 114.382812 452.921875 C 114.160156 453.148438 113.933594 453.597656 113.484375 454.042969 L 126.0625 463.476562 C 126.0625 463.253906 126.285156 463.253906 126.285156 463.027344 C 128.082031 460.558594 129.878906 458.085938 131.675781 455.839844 C 132.800781 454.492188 133.695312 453.148438 134.820312 451.574219 C 135.492188 450.675781 135.941406 450.003906 136.617188 449.105469 C 136.839844 448.65625 137.066406 448.429688 137.515625 447.980469 C 137.738281 447.53125 138.1875 447.082031 138.414062 446.859375 C 140.882812 444.164062 143.578125 445.0625 145.597656 446.183594 C 154.359375 451.351562 163.789062 454.71875 173.671875 456.289062 C 181.53125 457.414062 188.941406 457.863281 196.128906 457.414062 C 206.457031 456.964844 216.113281 454.941406 225.097656 451.351562 C 225.769531 451.125 226.445312 450.902344 227.34375 450.453125 C 228.015625 450.226562 228.691406 449.777344 229.589844 449.554688 C 245.082031 442.59375 258.332031 430.914062 269.5625 414.746094 C 270.460938 413.398438 271.359375 412.050781 272.257812 410.476562 C 273.605469 408.457031 274.726562 406.210938 275.851562 403.964844 C 276.523438 402.617188 276.972656 401.496094 277.648438 400.148438 C 278.320312 398.800781 278.769531 397.453125 279.441406 396.105469 C 283.035156 386.675781 285.058594 376.566406 285.28125 366.238281 C 285.28125 348.273438 281.015625 331.65625 273.15625 317.28125 C 271.582031 314.363281 269.785156 311.441406 267.988281 308.523438 C 267.09375 307.175781 266.195312 305.828125 265.296875 304.707031 C 264.847656 304.03125 264.398438 303.582031 263.949219 302.910156 C 263.5 302.234375 263.050781 301.785156 262.601562 301.335938 C 259.007812 297.070312 254.964844 293.027344 250.699219 289.433594 C 238.347656 279.105469 223.074219 271.917969 206.234375 269.222656 C 205.558594 269 204.660156 269 203.988281 268.773438 C 203.3125 268.773438 202.414062 268.550781 201.742188 268.550781 C 200.617188 268.324219 199.722656 268.324219 198.597656 268.101562 C 160.421875 264.734375 124.265625 286.515625 107.199219 319.304688 C 106.75 320.203125 106.074219 321.324219 105.625 322.222656 C 105.175781 323.34375 104.503906 324.46875 104.054688 325.589844 C 100.460938 333.898438 97.992188 343.109375 97.09375 352.539062 C 95.96875 364.21875 96.644531 375.445312 99.339844 386 C 100.683594 391.613281 102.707031 397.230469 105.175781 402.617188 C 107.648438 407.785156 110.566406 412.949219 114.160156 417.890625 C 117.304688 422.378906 120.898438 426.648438 125.164062 430.691406 C 125.613281 432.035156 126.960938 433.832031 126.285156 436.078125 Z M 118.425781 517.824219 L 139.535156 489.527344 C 142.230469 485.933594 141.558594 480.542969 137.738281 477.847656 L 136.167969 476.726562 L 134.144531 475.15625 L 133.472656 474.707031 C 133.695312 476.5 133.25 478.296875 132.800781 479.871094 C 132.351562 480.992188 131.902344 482.117188 131.003906 483.238281 L 114.832031 504.796875 L 113.035156 507.042969 L 111.242188 509.511719 L 60.9375 577.78125 L 59.8125 579.355469 C 59.8125 579.355469 59.589844 579.578125 59.589844 579.578125 C 59.140625 580.253906 58.691406 580.703125 58.015625 581.375 C 56.445312 582.722656 54.425781 583.621094 52.402344 584.296875 L 56.445312 587.214844 C 60.039062 589.910156 65.203125 589.234375 68.121094 585.417969 L 115.058594 522.3125 L 116.855469 519.84375 Z M 240.367188 533.316406 L 290.894531 520.292969 L 293.140625 519.621094 L 295.386719 518.945312 L 377.804688 497.613281 C 377.355469 495.367188 376.683594 493.121094 376.007812 490.648438 C 375.558594 489.300781 375.335938 487.730469 374.886719 486.160156 C 373.761719 481.667969 372.640625 476.949219 371.515625 472.234375 C 371.066406 470.886719 370.84375 469.316406 370.394531 467.742188 C 366.351562 451.125 361.859375 433.382812 357.59375 415.644531 C 357.144531 414.070312 356.917969 412.722656 356.46875 411.152344 C 355.347656 406.4375 354.226562 401.945312 353.101562 397.230469 C 352.652344 395.65625 352.429688 394.308594 351.980469 392.738281 C 345.464844 366.910156 339.628906 343.554688 335.808594 328.960938 C 330.644531 309.421875 333.339844 292.804688 344.121094 277.082031 C 347.710938 271.695312 351.304688 266.078125 354.675781 260.464844 C 355.796875 258.894531 356.695312 257.097656 357.816406 255.523438 C 358.714844 254.175781 359.613281 252.832031 360.289062 251.484375 C 362.535156 247.664062 365.003906 243.847656 367.472656 240.03125 C 368.597656 238.457031 369.496094 236.660156 370.617188 235.089844 C 370.84375 234.640625 371.292969 234.191406 371.515625 233.742188 C 372.640625 232.167969 373.761719 230.375 374.660156 228.800781 C 375.335938 227.679688 376.234375 226.554688 376.90625 225.433594 C 377.132812 225.207031 377.132812 224.984375 377.355469 224.984375 C 377.804688 224.308594 378.253906 223.636719 378.703125 222.960938 C 379.152344 222.0625 379.601562 221.390625 380.050781 220.492188 C 386.339844 209.261719 387.460938 197.8125 383.867188 184.113281 C 383.417969 182.316406 382.96875 180.519531 382.519531 178.945312 C 382.296875 178.273438 382.070312 177.375 381.847656 176.699219 C 381.621094 176.027344 381.398438 175.128906 381.171875 174.457031 C 374.886719 150.425781 374.210938 147.730469 371.515625 136.503906 C 369.945312 130.214844 367.921875 121.457031 363.65625 104.839844 C 362.757812 101.019531 361.636719 97.429688 360.511719 94.285156 C 360.289062 93.609375 360.0625 92.9375 359.613281 92.261719 C 359.390625 91.589844 358.941406 90.914062 358.714844 90.242188 C 353.328125 78.339844 345.464844 73.175781 333.117188 73.175781 C 328.175781 73.175781 322.5625 74.074219 315.824219 75.644531 C 309.535156 77.214844 303.472656 78.789062 297.183594 80.359375 C 299.207031 88.21875 301 96.304688 303.023438 104.164062 C 303.246094 104.839844 303.472656 105.738281 303.472656 106.410156 C 303.695312 107.085938 303.921875 107.757812 303.921875 108.65625 C 305.042969 112.921875 305.941406 117.191406 307.066406 121.679688 C 316.273438 122.578125 324.132812 129.316406 326.601562 138.523438 L 335.808594 176.25 C 336.257812 177.824219 336.484375 179.394531 336.484375 180.96875 C 336.484375 181.640625 336.484375 182.539062 336.484375 183.214844 C 336.484375 183.886719 336.257812 184.785156 336.257812 185.460938 C 335.808594 188.152344 334.910156 190.847656 333.339844 193.320312 C 330.195312 198.484375 325.253906 202.078125 319.417969 203.425781 L 201.066406 232.617188 L 198.824219 233.066406 L 196.578125 233.515625 L 122.019531 251.933594 C 120.222656 252.382812 118.425781 252.605469 116.628906 252.605469 C 106.523438 252.605469 97.316406 245.644531 94.847656 235.539062 L 85.640625 197.8125 C 84.292969 191.972656 85.191406 185.910156 88.109375 180.742188 C 91.253906 175.578125 96.195312 171.984375 102.03125 170.636719 L 270.460938 128.867188 C 269.5625 125.050781 268.4375 121.230469 267.539062 117.191406 C 267.316406 116.515625 267.089844 115.84375 267.089844 114.945312 C 266.867188 114.269531 266.644531 113.371094 266.644531 112.699219 C 265.746094 108.882812 264.847656 105.289062 263.949219 101.46875 C 262.824219 97.203125 261.925781 93.160156 260.804688 88.894531 C 195.230469 105.738281 129.207031 122.355469 64.082031 138.523438 C 37.132812 145.261719 29.496094 158.511719 36.234375 185.910156 C 53.078125 253.503906 69.695312 320.875 86.539062 388.46875 C 91.253906 407.558594 95.96875 426.871094 100.910156 446.183594 C 102.707031 446.632812 104.503906 447.308594 106.074219 448.429688 L 109.894531 451.351562 C 110.117188 451.351562 110.34375 451.351562 110.34375 451.351562 C 110.34375 451.351562 110.566406 451.351562 111.015625 450.453125 L 111.242188 450.226562 C 114.382812 445.734375 117.753906 441.246094 121.121094 436.753906 C 116.628906 431.363281 112.8125 425.972656 109.667969 420.136719 C 95.746094 400.371094 89.679688 377.691406 92.152344 352.316406 C 93.273438 340.414062 96.644531 329.183594 101.808594 319.078125 C 102.257812 317.957031 102.929688 317.058594 103.378906 315.933594 C 103.828125 315.035156 104.503906 314.136719 104.953125 313.238281 C 123.816406 281.351562 159.972656 260.691406 198.375 264.058594 C 199.046875 264.058594 199.945312 264.285156 200.617188 264.285156 C 201.292969 264.285156 202.191406 264.507812 202.863281 264.507812 C 203.539062 264.507812 204.4375 264.730469 205.109375 264.957031 C 227.34375 268.324219 246.65625 278.65625 261.253906 293.925781 C 262.152344 294.824219 263.050781 295.722656 263.949219 296.847656 C 264.847656 297.96875 265.746094 298.867188 266.644531 299.988281 C 270.460938 304.707031 274.054688 309.871094 276.972656 315.484375 C 289.101562 332.550781 296.0625 353.660156 296.0625 377.242188 C 295.835938 393.636719 291.34375 409.578125 282.8125 423.503906 C 282.136719 424.402344 281.464844 425.523438 281.015625 426.421875 C 280.566406 427.097656 280.117188 427.769531 279.667969 428.445312 C 279.441406 428.667969 279.21875 429.117188 278.992188 429.34375 C 265.96875 447.757812 250.023438 460.558594 231.835938 467.292969 C 231.160156 467.519531 230.488281 467.742188 229.589844 468.191406 C 228.914062 468.417969 228.242188 468.640625 227.34375 468.867188 C 212.746094 473.359375 196.800781 474.480469 179.285156 472.011719 C 168.730469 470.4375 158.847656 466.84375 149.640625 461.457031 C 148.292969 460.78125 148.292969 460.78125 147.394531 461.90625 C 146.046875 463.925781 144.476562 465.945312 143.128906 467.742188 C 142.679688 468.417969 142.230469 469.089844 141.558594 469.765625 C 141.558594 469.988281 141.332031 469.988281 141.332031 470.214844 C 140.660156 471.113281 140.210938 471.785156 139.535156 472.683594 C 139.085938 473.132812 138.863281 473.582031 138.636719 474.03125 L 140.210938 475.378906 L 140.433594 475.605469 C 141.558594 476.5 142.679688 477.625 143.355469 478.746094 C 144.925781 481.21875 145.597656 484.136719 145.375 487.054688 C 145.148438 488.628906 144.925781 489.976562 144.253906 491.546875 C 143.804688 492.222656 143.578125 492.894531 143.128906 493.570312 L 119.773438 524.785156 C 125.164062 546.792969 130.777344 568.574219 136.167969 590.359375 C 136.390625 591.480469 136.839844 592.378906 137.066406 593.503906 C 138.1875 576.433594 148.96875 561.164062 165.363281 554.425781 C 166.035156 554.203125 166.933594 553.753906 167.832031 553.527344 C 168.730469 553.304688 169.628906 552.855469 170.527344 552.632812 C 170.527344 552.632812 170.75 552.632812 170.75 552.632812 L 236.324219 535.789062 L 238.570312 535.113281 Z M 314.476562 664.019531 L 512.996094 637.96875 C 512.769531 637.519531 512.769531 637.292969 512.546875 636.84375 L 504.6875 577.109375 L 581.039062 567.003906 C 581.488281 567.003906 582.164062 567.003906 582.613281 567.226562 L 563.972656 426.199219 L 546.007812 457.414062 L 546.230469 457.636719 L 545.332031 458.3125 L 543.089844 462.355469 L 541.515625 461.457031 L 538.820312 463.703125 C 536.574219 465.722656 534.328125 467.519531 532.085938 469.316406 C 530.289062 470.886719 528.265625 472.460938 526.46875 474.03125 C 524.449219 475.605469 522.878906 476.5 521.53125 476.5 C 521.082031 476.5 520.632812 476.5 520.183594 476.277344 C 518.609375 475.605469 517.039062 474.707031 515.464844 474.03125 L 504.460938 483.015625 L 506.484375 469.316406 C 506.257812 469.089844 506.035156 469.089844 505.808594 468.867188 C 498.847656 465.273438 500.421875 459.660156 501.316406 455.390625 C 501.542969 454.492188 501.765625 453.820312 501.992188 453.148438 C 502.664062 449.777344 503.113281 446.410156 503.789062 442.816406 C 503.789062 442.816406 503.789062 442.816406 503.789062 442.589844 C 504.011719 441.695312 504.011719 440.796875 504.238281 440.121094 L 502.890625 439.449219 L 504.910156 435.855469 L 505.136719 434.507812 L 505.585938 434.730469 L 519.507812 410.703125 L 523.101562 404.640625 L 553.867188 351.417969 L 534.777344 206.121094 L 534.554688 203.875 L 534.328125 201.628906 L 528.941406 160.980469 L 422.71875 174.90625 L 420.472656 175.128906 L 418.226562 175.355469 L 387.011719 179.394531 C 387.460938 180.96875 387.910156 182.539062 388.136719 184.113281 C 391.726562 197.808594 390.828125 209.710938 385.441406 220.941406 C 384.992188 221.839844 384.542969 222.511719 384.09375 223.410156 C 383.644531 224.308594 383.195312 224.984375 382.746094 225.882812 C 382.070312 226.78125 381.621094 227.679688 380.949219 228.578125 C 380.722656 228.800781 380.722656 229.027344 380.5 229.027344 C 379.375 230.597656 378.253906 232.394531 377.132812 233.964844 C 376.90625 234.414062 376.457031 234.863281 376.234375 235.539062 L 430.804688 228.351562 L 431.476562 232.84375 L 373.089844 240.480469 C 369.945312 245.417969 367.027344 250.136719 364.105469 255.074219 C 363.882812 255.523438 363.65625 255.75 363.433594 256.199219 L 410.59375 249.910156 L 411.265625 254.402344 L 360.511719 261.140625 C 356.46875 267.875 352.203125 274.613281 347.710938 280.902344 C 337.832031 295.5 335.359375 310.992188 340.078125 329.183594 C 340.527344 331.429688 341.199219 333.675781 341.875 336.144531 L 341.425781 332.328125 L 387.910156 326.265625 L 390.828125 325.816406 L 393.972656 325.367188 L 447.421875 318.40625 L 448.09375 322.894531 L 390.605469 330.53125 L 385.214844 331.429688 L 342.324219 337.042969 C 346.140625 351.640625 351.082031 371.851562 356.46875 393.636719 L 388.136719 389.59375 L 390.378906 389.367188 L 392.625 389.144531 L 437.316406 383.304688 L 437.988281 387.796875 L 393.972656 393.636719 L 391.726562 393.859375 L 389.480469 394.085938 L 357.816406 398.125 C 358.941406 402.617188 360.0625 407.335938 361.1875 412.050781 L 392.851562 407.785156 L 395.097656 407.558594 L 397.34375 407.335938 L 447.871094 400.597656 L 448.542969 405.089844 L 398.464844 411.601562 L 396.21875 411.824219 L 393.972656 412.050781 L 362.308594 416.316406 C 366.578125 433.832031 371.066406 451.800781 375.109375 468.417969 L 406.773438 464.375 L 409.019531 464.152344 L 411.265625 463.925781 L 462.917969 457.1875 L 463.589844 461.679688 L 412.386719 468.417969 L 410.144531 468.640625 L 407.898438 468.867188 L 376.457031 472.910156 C 377.582031 477.625 378.703125 482.339844 379.824219 486.832031 L 410.144531 482.789062 L 412.386719 482.566406 L 414.632812 482.339844 L 442.707031 478.746094 L 443.378906 483.238281 L 414.632812 487.054688 L 412.386719 487.28125 L 410.144531 487.503906 L 380.949219 491.324219 C 381.621094 494.46875 382.519531 497.386719 383.195312 500.304688 L 383.644531 502.101562 L 381.398438 502.777344 L 379.152344 503.449219 L 296.285156 525.007812 L 294.039062 525.683594 L 291.792969 526.355469 L 241.941406 539.382812 L 242.613281 545.445312 L 242.839844 547.691406 L 243.0625 549.9375 L 249.574219 603.160156 L 249.800781 605.40625 L 250.023438 607.652344 L 251.820312 622.246094 L 252.046875 624.492188 L 252.269531 626.738281 L 252.496094 627.636719 L 253.617188 636.621094 L 258.332031 672.550781 L 309.761719 665.8125 L 312.003906 665.589844 Z M 508.730469 440.796875 C 508.730469 441.019531 508.730469 441.246094 508.730469 441.46875 C 508.730469 441.695312 508.730469 441.695312 508.730469 441.917969 C 508.730469 442.367188 508.503906 442.589844 508.503906 443.039062 C 507.832031 446.632812 507.382812 450.003906 506.707031 453.59375 C 506.484375 454.492188 506.257812 455.390625 506.035156 456.289062 C 504.910156 460.78125 504.460938 462.804688 508.054688 464.597656 C 509.402344 465.273438 510.75 465.945312 512.097656 466.84375 C 512.320312 466.84375 512.320312 467.070312 512.546875 467.070312 L 522.203125 450.226562 L 522.652344 449.328125 L 509.402344 441.695312 Z M 578.792969 571.71875 L 509.628906 580.703125 L 516.589844 634.148438 L 516.8125 635.046875 Z M 610.234375 345.800781 L 567.789062 419.460938 L 587.554688 569.25 L 584.183594 572.617188 C 584.183594 572.617188 584.183594 572.84375 583.960938 572.84375 L 519.285156 638.867188 C 518.835938 639.316406 517.9375 639.765625 517.261719 639.988281 L 515.242188 642.011719 L 514.566406 642.011719 L 315.375 668.285156 L 320.765625 708.933594 L 574.976562 675.472656 C 574.753906 675.023438 574.753906 674.796875 574.527344 674.347656 L 566.667969 614.613281 L 643.023438 604.507812 C 643.472656 604.507812 644.144531 604.507812 644.59375 604.730469 Z M 616.972656 288.085938 L 606.191406 281.800781 L 603.722656 280.453125 L 601.25 279.105469 L 600.578125 278.65625 L 558.582031 351.417969 L 556.785156 354.558594 L 554.992188 357.703125 L 509.628906 436.078125 L 516.8125 440.121094 L 524.898438 444.835938 L 526.695312 441.695312 L 558.582031 387.121094 L 560.378906 383.980469 L 562.175781 380.835938 L 604.84375 308.074219 L 608.4375 301.785156 Z M 706.125 139.871094 C 702.308594 136.503906 697.59375 134.929688 692.652344 135.378906 C 686.140625 136.054688 680.074219 140.320312 676.257812 146.832031 C 663.234375 169.289062 649.984375 192.195312 637.183594 214.203125 L 627.078125 231.71875 C 625.28125 235.089844 623.257812 238.234375 621.464844 241.601562 C 621.015625 242.273438 620.789062 242.949219 620.339844 243.621094 C 616.746094 249.6875 613.378906 255.75 609.785156 262.039062 L 604.84375 270.570312 L 603.046875 273.714844 L 602.597656 274.613281 L 603.046875 274.839844 L 603.273438 274.839844 L 605.742188 276.183594 L 619.441406 284.269531 L 636.734375 255.523438 L 637.855469 253.503906 L 638.980469 251.484375 Z M 126.0625 368.035156 C 126.0625 331.429688 155.707031 301.785156 192.308594 301.785156 C 196.800781 301.785156 201.292969 302.234375 205.558594 303.132812 C 206.234375 303.359375 207.132812 303.582031 207.804688 303.582031 C 208.703125 303.808594 209.378906 304.03125 210.050781 304.257812 C 237.898438 312.117188 258.332031 337.71875 258.332031 368.035156 C 258.332031 392.289062 245.308594 413.398438 225.996094 424.851562 C 225.320312 425.300781 224.648438 425.75 223.972656 425.972656 C 223.300781 426.421875 222.625 426.648438 221.953125 427.097656 C 212.96875 431.585938 203.089844 434.058594 192.308594 434.058594 C 155.929688 434.28125 126.0625 404.640625 126.0625 368.035156 Z M 130.554688 368.035156 C 130.554688 402.167969 158.175781 429.792969 192.308594 429.792969 C 202.863281 429.792969 212.746094 427.097656 221.28125 422.605469 C 221.953125 422.15625 222.625 421.929688 223.300781 421.480469 C 223.972656 421.03125 224.648438 420.582031 225.320312 420.132812 C 242.390625 409.128906 253.84375 390.042969 253.84375 368.257812 C 253.84375 340.636719 235.652344 317.28125 210.726562 309.421875 C 210.050781 309.195312 209.152344 308.972656 208.480469 308.75 C 207.804688 308.523438 206.90625 308.300781 206.234375 308.074219 C 201.742188 306.953125 197.027344 306.503906 192.308594 306.503906 C 158.398438 306.277344 130.554688 333.898438 130.554688 368.035156 Z M 129.429688 420.808594 C 128.308594 419.6875 127.183594 418.5625 126.285156 417.214844 C 124.9375 415.644531 123.816406 414.070312 122.46875 412.5 C 112.363281 398.574219 106.300781 381.734375 106.300781 363.320312 C 106.300781 357.03125 106.972656 350.96875 108.097656 345.128906 C 108.546875 343.554688 108.769531 341.984375 109.21875 340.414062 C 109.667969 339.066406 110.117188 337.71875 110.566406 336.371094 C 111.6875 333.226562 112.8125 330.082031 114.160156 327.164062 C 127.183594 299.089844 155.03125 279.554688 187.59375 278.878906 C 188.042969 278.878906 188.71875 278.878906 189.164062 278.878906 L 189.613281 278.878906 C 189.839844 278.878906 189.839844 278.878906 190.0625 278.878906 C 194.332031 278.878906 198.375 279.105469 202.414062 279.777344 C 203.089844 280.003906 203.988281 280.003906 204.660156 280.226562 C 205.335938 280.453125 206.234375 280.453125 206.90625 280.675781 C 222.851562 283.820312 237.449219 291.679688 249.125 303.359375 C 255.414062 309.644531 260.578125 316.609375 264.621094 324.46875 C 264.621094 324.691406 264.847656 324.691406 264.847656 324.917969 C 265.96875 327.164062 267.089844 329.410156 267.988281 331.878906 C 268.886719 334.125 269.785156 336.371094 270.460938 338.617188 C 271.132812 340.414062 271.582031 342.433594 272.03125 344.453125 C 272.707031 347.597656 273.378906 350.742188 273.605469 354.109375 C 273.828125 356.132812 274.054688 358.152344 274.054688 360.398438 C 274.054688 361.296875 274.054688 362.195312 274.054688 363.09375 C 274.054688 366.6875 273.828125 370.054688 273.378906 373.425781 C 273.15625 375.894531 272.707031 378.589844 272.03125 381.058594 C 268.664062 396.78125 261.027344 411.152344 249.574219 422.605469 C 243.0625 429.117188 235.652344 434.507812 227.34375 438.773438 C 226.667969 439.222656 225.996094 439.449219 225.320312 439.898438 C 224.648438 440.121094 223.972656 440.570312 223.074219 440.796875 C 212.746094 445.285156 201.515625 447.53125 190.0625 447.757812 L 189.839844 447.757812 C 173.222656 447.757812 157.726562 442.816406 144.476562 434.507812 C 139.984375 431.585938 135.71875 428.21875 131.902344 424.625 C 131.453125 422.828125 130.554688 421.929688 129.429688 420.808594 Z M 126.960938 410.925781 C 128.082031 412.273438 129.207031 413.621094 130.328125 414.96875 C 144.925781 431.8125 166.484375 442.367188 190.289062 442.367188 L 190.289062 444.613281 L 190.289062 442.367188 C 201.742188 442.367188 212.746094 439.898438 222.851562 435.40625 C 223.523438 435.179688 224.199219 434.730469 225.097656 434.507812 C 225.769531 434.058594 226.445312 433.832031 227.117188 433.382812 C 234.304688 429.566406 240.816406 424.851562 246.65625 418.789062 C 261.703125 403.742188 269.785156 383.53125 269.785156 362.195312 C 269.785156 361.296875 269.785156 360.625 269.785156 359.726562 C 269.5625 354.558594 268.886719 349.394531 267.765625 344.230469 C 266.195312 337.941406 263.949219 331.652344 261.027344 325.816406 C 248.902344 308.972656 230.261719 297.296875 208.929688 293.925781 C 208.253906 293.703125 207.355469 293.703125 206.683594 293.703125 C 206.007812 293.703125 205.109375 293.476562 204.4375 293.476562 C 201.964844 293.253906 199.273438 293.027344 196.578125 293.027344 C 196.351562 293.027344 196.351562 293.027344 196.128906 293.027344 L 195.679688 293.027344 C 155.257812 293.253906 122.019531 324.46875 117.753906 364.21875 C 117.527344 366.6875 117.304688 369.15625 117.304688 371.851562 C 117.304688 372.300781 117.304688 372.75 117.304688 373.199219 C 117.304688 377.015625 117.527344 380.609375 117.976562 384.203125 C 118.652344 389.816406 120 395.207031 122.019531 400.371094 C 123.140625 403.515625 124.488281 406.4375 126.0625 409.355469 C 126.511719 410.253906 126.734375 410.703125 126.960938 410.925781 Z M 126.960938 410.925781 " fill-opacity="1" fill-rule="nonzero"/></g></svg>