<svg xmlns="http://www.w3.org/2000/svg" xmlns:xlink="http://www.w3.org/1999/xlink" width="500" zoomAndPan="magnify" viewBox="0 0 375 374.999991" height="500" preserveAspectRatio="xMidYMid meet" version="1.0"><defs><clipPath id="127cfc2d5e"><path d="M 187.5 0 C 83.945312 0 0 83.945312 0 187.5 C 0 291.054688 83.945312 375 187.5 375 C 291.054688 375 375 291.054688 375 187.5 C 375 83.945312 291.054688 0 187.5 0 Z M 187.5 0 " clip-rule="nonzero"/></clipPath><clipPath id="2a9acae945"><path d="M 0 0 L 375 0 L 375 375 L 0 375 Z M 0 0 " clip-rule="nonzero"/></clipPath><clipPath id="cb695fbdd9"><path d="M 187.5 0 C 83.945312 0 0 83.945312 0 187.5 C 0 291.054688 83.945312 375 187.5 375 C 291.054688 375 375 291.054688 375 187.5 C 375 83.945312 291.054688 0 187.5 0 Z M 187.5 0 " clip-rule="nonzero"/></clipPath><clipPath id="91bfa61e17"><rect x="0" width="375" y="0" height="375"/></clipPath><clipPath id="76cfdd8519"><path d="M 54.433594 54.433594 L 320.683594 54.433594 L 320.683594 320.683594 L 54.433594 320.683594 Z M 54.433594 54.433594 " clip-rule="nonzero"/></clipPath></defs><g clip-path="url(#127cfc2d5e)"><g transform="matrix(1, 0, 0, 1, 0, 0)"><g clip-path="url(#91bfa61e17)"><g clip-path="url(#2a9acae945)"><g clip-path="url(#cb695fbdd9)"><rect x="-82.5" width="540" fill="#f5ffed" height="539.999987" y="-82.499998" fill-opacity="1"/></g></g></g></g></g><path fill="#210d47" d="M 187.496094 109.167969 C 162.390625 109.167969 141.902344 129.570312 141.902344 154.675781 C 141.902344 179.867188 162.390625 200.269531 187.496094 200.269531 C 212.601562 200.269531 233.089844 179.867188 233.089844 154.675781 C 233.089844 129.570312 212.601562 109.167969 187.496094 109.167969 Z M 187.496094 109.167969 " fill-opacity="1" fill-rule="nonzero"/><g clip-path="url(#76cfdd8519)"><path fill="#210d47" d="M 187.40625 54.523438 C 114.136719 54.523438 54.433594 114.136719 54.433594 187.496094 C 54.433594 228.300781 72.976562 264.847656 101.980469 289.242188 C 101.980469 289.242188 101.980469 289.242188 101.980469 289.332031 C 125.136719 308.757812 154.941406 320.46875 187.40625 320.46875 C 233.710938 320.46875 275.9375 297.050781 300.421875 257.75 C 313.636719 236.640625 320.554688 212.421875 320.554688 187.496094 C 320.554688 162.570312 313.636719 138.265625 300.421875 117.238281 C 275.9375 77.941406 233.710938 54.523438 187.40625 54.523438 Z M 285.429688 248.347656 C 281.171875 255.179688 276.203125 261.210938 270.792969 266.890625 C 257.308594 239.210938 228.65625 220.761719 196.988281 220.761719 L 178.003906 220.761719 C 156.003906 220.761719 135.335938 229.367188 119.8125 244.890625 C 113.335938 251.277344 108.191406 258.816406 104.199219 266.976562 C 84.417969 246.308594 72.175781 218.367188 72.175781 187.496094 C 72.175781 123.980469 123.894531 72.265625 187.40625 72.265625 C 227.589844 72.265625 264.140625 92.578125 285.429688 126.644531 C 296.78125 144.917969 302.816406 165.941406 302.816406 187.496094 C 302.816406 209.050781 296.78125 230.074219 285.429688 248.347656 Z M 285.429688 248.347656 " fill-opacity="1" fill-rule="nonzero"/></g></svg>