<svg xmlns="http://www.w3.org/2000/svg" xmlns:xlink="http://www.w3.org/1999/xlink" width="500" zoomAndPan="magnify" viewBox="0 0 375 374.999991" height="500" preserveAspectRatio="xMidYMid meet" version="1.0"><defs><clipPath id="a9894a6e14"><path d="M 187.5 0 C 83.945312 0 0 83.945312 0 187.5 C 0 291.054688 83.945312 375 187.5 375 C 291.054688 375 375 291.054688 375 187.5 C 375 83.945312 291.054688 0 187.5 0 Z M 187.5 0 " clip-rule="nonzero"/></clipPath><clipPath id="5138113c58"><path d="M 0 0 L 375 0 L 375 375 L 0 375 Z M 0 0 " clip-rule="nonzero"/></clipPath><clipPath id="d4ed4124a2"><path d="M 187.5 0 C 83.945312 0 0 83.945312 0 187.5 C 0 291.054688 83.945312 375 187.5 375 C 291.054688 375 375 291.054688 375 187.5 C 375 83.945312 291.054688 0 187.5 0 Z M 187.5 0 " clip-rule="nonzero"/></clipPath><clipPath id="188df95b52"><rect x="0" width="375" y="0" height="375"/></clipPath><clipPath id="80c3cafdf1"><path d="M 57.472656 99 L 290 99 L 290 262 L 57.472656 262 Z M 57.472656 99 " clip-rule="nonzero"/></clipPath><clipPath id="ad4fe8b760"><path d="M 57.472656 216 L 290 216 L 290 226 L 57.472656 226 Z M 57.472656 216 " clip-rule="nonzero"/></clipPath><clipPath id="c2a1ed72eb"><path d="M 112 289 L 236 289 L 236 319.90625 L 112 319.90625 Z M 112 289 " clip-rule="nonzero"/></clipPath><clipPath id="ba1bd00c44"><path d="M 217 59 L 317.722656 59 L 317.722656 159 L 217 159 Z M 217 59 " clip-rule="nonzero"/></clipPath></defs><g clip-path="url(#a9894a6e14)"><g transform="matrix(1, 0, 0, 1, 0, 0)"><g clip-path="url(#188df95b52)"><g clip-path="url(#5138113c58)"><g clip-path="url(#d4ed4124a2)"><rect x="-82.5" width="540" fill="#fbf9ff" height="539.999987" y="-82.499998" fill-opacity="1"/></g></g></g></g></g><g clip-path="url(#80c3cafdf1)"><path fill="#351775" d="M 267.457031 261.609375 L 79.753906 261.609375 C 79.027344 261.609375 78.300781 261.570312 77.574219 261.5 C 76.851562 261.429688 76.132812 261.320312 75.417969 261.179688 C 74.703125 261.035156 73.996094 260.859375 73.300781 260.644531 C 72.605469 260.433594 71.917969 260.1875 71.246094 259.910156 C 70.574219 259.628906 69.917969 259.320312 69.273438 258.976562 C 68.632812 258.632812 68.007812 258.257812 67.402344 257.851562 C 66.796875 257.449219 66.214844 257.015625 65.652344 256.554688 C 65.085938 256.089844 64.546875 255.601562 64.035156 255.085938 C 63.519531 254.574219 63.03125 254.035156 62.566406 253.46875 C 62.105469 252.90625 61.671875 252.324219 61.269531 251.71875 C 60.863281 251.113281 60.488281 250.488281 60.144531 249.847656 C 59.800781 249.203125 59.492188 248.546875 59.210938 247.875 C 58.933594 247.203125 58.6875 246.515625 58.476562 245.820312 C 58.261719 245.125 58.085938 244.417969 57.941406 243.703125 C 57.800781 242.988281 57.691406 242.269531 57.621094 241.546875 C 57.550781 240.820312 57.511719 240.09375 57.511719 239.367188 L 57.511719 121.925781 C 57.511719 121.195312 57.550781 120.46875 57.621094 119.746094 C 57.691406 119.019531 57.800781 118.300781 57.941406 117.585938 C 58.085938 116.871094 58.261719 116.167969 58.476562 115.46875 C 58.6875 114.773438 58.933594 114.089844 59.210938 113.417969 C 59.492188 112.742188 59.800781 112.085938 60.144531 111.445312 C 60.488281 110.800781 60.863281 110.179688 61.269531 109.574219 C 61.671875 108.96875 62.105469 108.382812 62.566406 107.820312 C 63.03125 107.257812 63.519531 106.71875 64.035156 106.203125 C 64.546875 105.6875 65.085938 105.199219 65.652344 104.738281 C 66.214844 104.273438 66.796875 103.84375 67.402344 103.4375 C 68.007812 103.03125 68.632812 102.65625 69.273438 102.316406 C 69.917969 101.972656 70.574219 101.660156 71.246094 101.378906 C 71.917969 101.101562 72.605469 100.855469 73.300781 100.644531 C 73.996094 100.433594 74.703125 100.253906 75.417969 100.113281 C 76.132812 99.96875 76.851562 99.863281 77.574219 99.789062 C 78.300781 99.71875 79.027344 99.683594 79.753906 99.679688 L 87.511719 99.679688 C 87.816406 99.679688 88.117188 99.710938 88.417969 99.769531 C 88.714844 99.828125 89.007812 99.917969 89.289062 100.035156 C 89.570312 100.152344 89.835938 100.292969 90.089844 100.464844 C 90.34375 100.632812 90.578125 100.824219 90.792969 101.042969 C 91.011719 101.257812 91.203125 101.492188 91.371094 101.746094 C 91.542969 102 91.683594 102.265625 91.800781 102.546875 C 91.917969 102.828125 92.003906 103.121094 92.066406 103.417969 C 92.125 103.71875 92.15625 104.019531 92.15625 104.324219 C 92.15625 104.628906 92.125 104.933594 92.066406 105.230469 C 92.003906 105.53125 91.917969 105.820312 91.800781 106.101562 C 91.683594 106.382812 91.542969 106.652344 91.371094 106.90625 C 91.203125 107.160156 91.011719 107.394531 90.792969 107.609375 C 90.578125 107.824219 90.34375 108.015625 90.089844 108.1875 C 89.835938 108.355469 89.570312 108.5 89.289062 108.613281 C 89.007812 108.730469 88.714844 108.820312 88.417969 108.878906 C 88.117188 108.9375 87.816406 108.96875 87.511719 108.96875 L 79.753906 108.96875 C 78.90625 108.96875 78.0625 109.054688 77.230469 109.21875 C 76.394531 109.386719 75.585938 109.632812 74.800781 109.960938 C 74.015625 110.285156 73.269531 110.683594 72.5625 111.15625 C 71.855469 111.628906 71.199219 112.167969 70.597656 112.769531 C 69.996094 113.371094 69.460938 114.023438 68.988281 114.730469 C 68.515625 115.4375 68.117188 116.183594 67.789062 116.96875 C 67.464844 117.753906 67.21875 118.566406 67.050781 119.398438 C 66.882812 120.230469 66.800781 121.074219 66.800781 121.925781 L 66.800781 239.367188 C 66.800781 240.214844 66.882812 241.058594 67.050781 241.890625 C 67.21875 242.726562 67.464844 243.535156 67.789062 244.320312 C 68.117188 245.105469 68.515625 245.851562 68.988281 246.558594 C 69.460938 247.265625 69.996094 247.921875 70.597656 248.523438 C 71.199219 249.125 71.855469 249.660156 72.5625 250.132812 C 73.269531 250.605469 74.015625 251.003906 74.800781 251.332031 C 75.585938 251.65625 76.394531 251.902344 77.230469 252.070312 C 78.0625 252.238281 78.90625 252.320312 79.753906 252.320312 L 267.457031 252.320312 C 268.308594 252.320312 269.148438 252.238281 269.984375 252.070312 C 270.816406 251.902344 271.625 251.65625 272.410156 251.332031 C 273.195312 251.003906 273.945312 250.605469 274.648438 250.132812 C 275.355469 249.660156 276.011719 249.125 276.613281 248.523438 C 277.214844 247.921875 277.75 247.265625 278.222656 246.558594 C 278.695312 245.851562 279.097656 245.105469 279.421875 244.320312 C 279.746094 243.535156 279.992188 242.726562 280.160156 241.890625 C 280.328125 241.058594 280.410156 240.214844 280.414062 239.367188 L 280.414062 171.007812 C 280.414062 170.703125 280.441406 170.402344 280.5 170.101562 C 280.5625 169.804688 280.648438 169.515625 280.765625 169.230469 C 280.882812 168.949219 281.027344 168.683594 281.195312 168.429688 C 281.363281 168.175781 281.558594 167.941406 281.773438 167.726562 C 281.988281 167.511719 282.222656 167.316406 282.476562 167.148438 C 282.730469 166.980469 282.996094 166.835938 283.277344 166.71875 C 283.5625 166.601562 283.851562 166.515625 284.148438 166.453125 C 284.449219 166.394531 284.75 166.367188 285.054688 166.367188 C 285.359375 166.367188 285.664062 166.394531 285.960938 166.453125 C 286.261719 166.515625 286.550781 166.601562 286.832031 166.71875 C 287.113281 166.835938 287.382812 166.980469 287.636719 167.148438 C 287.890625 167.316406 288.125 167.511719 288.339844 167.726562 C 288.554688 167.941406 288.746094 168.175781 288.917969 168.429688 C 289.085938 168.683594 289.230469 168.949219 289.347656 169.230469 C 289.464844 169.515625 289.550781 169.804688 289.609375 170.101562 C 289.671875 170.402344 289.699219 170.703125 289.699219 171.007812 L 289.699219 239.367188 C 289.699219 240.09375 289.664062 240.820312 289.589844 241.546875 C 289.519531 242.269531 289.410156 242.988281 289.269531 243.703125 C 289.125 244.417969 288.949219 245.125 288.738281 245.820312 C 288.523438 246.515625 288.28125 247.203125 288 247.875 C 287.722656 248.546875 287.410156 249.203125 287.066406 249.847656 C 286.722656 250.488281 286.347656 251.113281 285.945312 251.71875 C 285.539062 252.324219 285.105469 252.90625 284.644531 253.46875 C 284.183594 254.035156 283.691406 254.574219 283.179688 255.085938 C 282.664062 255.601562 282.125 256.089844 281.5625 256.554688 C 281 257.015625 280.414062 257.449219 279.808594 257.851562 C 279.203125 258.257812 278.578125 258.632812 277.9375 258.976562 C 277.296875 259.320312 276.636719 259.628906 275.964844 259.910156 C 275.292969 260.1875 274.609375 260.433594 273.910156 260.644531 C 273.214844 260.859375 272.507812 261.035156 271.792969 261.179688 C 271.082031 261.320312 270.359375 261.429688 269.636719 261.5 C 268.910156 261.570312 268.183594 261.609375 267.457031 261.609375 Z M 267.457031 261.609375 " fill-opacity="1" fill-rule="nonzero"/></g><path fill="#351775" d="M 203.371094 108.96875 L 196.824219 108.96875 C 196.519531 108.96875 196.21875 108.9375 195.917969 108.878906 C 195.621094 108.820312 195.328125 108.730469 195.046875 108.613281 C 194.765625 108.5 194.5 108.355469 194.246094 108.1875 C 193.992188 108.015625 193.757812 107.824219 193.542969 107.609375 C 193.324219 107.394531 193.132812 107.160156 192.964844 106.90625 C 192.792969 106.652344 192.652344 106.382812 192.535156 106.101562 C 192.417969 105.820312 192.332031 105.53125 192.269531 105.230469 C 192.210938 104.933594 192.179688 104.628906 192.179688 104.324219 C 192.179688 104.019531 192.210938 103.71875 192.269531 103.417969 C 192.332031 103.121094 192.417969 102.828125 192.535156 102.546875 C 192.652344 102.265625 192.792969 102 192.964844 101.746094 C 193.132812 101.492188 193.324219 101.257812 193.542969 101.042969 C 193.757812 100.824219 193.992188 100.632812 194.246094 100.464844 C 194.5 100.292969 194.765625 100.152344 195.046875 100.035156 C 195.328125 99.917969 195.621094 99.828125 195.917969 99.769531 C 196.21875 99.710938 196.519531 99.679688 196.824219 99.679688 L 203.371094 99.679688 C 203.679688 99.679688 203.980469 99.710938 204.277344 99.769531 C 204.578125 99.828125 204.867188 99.917969 205.148438 100.035156 C 205.433594 100.152344 205.699219 100.292969 205.953125 100.464844 C 206.207031 100.632812 206.441406 100.824219 206.65625 101.042969 C 206.871094 101.257812 207.066406 101.492188 207.234375 101.746094 C 207.402344 102 207.546875 102.265625 207.664062 102.546875 C 207.78125 102.828125 207.867188 103.121094 207.925781 103.417969 C 207.988281 103.71875 208.015625 104.019531 208.015625 104.324219 C 208.015625 104.628906 207.988281 104.933594 207.925781 105.230469 C 207.867188 105.53125 207.78125 105.820312 207.664062 106.101562 C 207.546875 106.382812 207.402344 106.652344 207.234375 106.90625 C 207.066406 107.160156 206.871094 107.394531 206.65625 107.609375 C 206.441406 107.824219 206.207031 108.015625 205.953125 108.1875 C 205.699219 108.355469 205.433594 108.5 205.148438 108.613281 C 204.867188 108.730469 204.578125 108.820312 204.277344 108.878906 C 203.980469 108.9375 203.679688 108.96875 203.371094 108.96875 Z M 203.371094 108.96875 " fill-opacity="1" fill-rule="nonzero"/><g clip-path="url(#ad4fe8b760)"><path fill="#351775" d="M 285.054688 225.714844 L 62.15625 225.714844 C 61.851562 225.714844 61.546875 225.683594 61.25 225.625 C 60.949219 225.5625 60.660156 225.476562 60.378906 225.359375 C 60.097656 225.242188 59.828125 225.101562 59.574219 224.929688 C 59.320312 224.761719 59.085938 224.570312 58.871094 224.351562 C 58.65625 224.136719 58.464844 223.902344 58.292969 223.648438 C 58.125 223.394531 57.980469 223.128906 57.867188 222.847656 C 57.75 222.566406 57.660156 222.273438 57.601562 221.976562 C 57.542969 221.675781 57.511719 221.375 57.511719 221.070312 C 57.511719 220.765625 57.542969 220.460938 57.601562 220.164062 C 57.660156 219.863281 57.75 219.574219 57.867188 219.292969 C 57.980469 219.011719 58.125 218.742188 58.292969 218.488281 C 58.464844 218.234375 58.65625 218 58.871094 217.785156 C 59.085938 217.570312 59.320312 217.378906 59.574219 217.207031 C 59.828125 217.039062 60.097656 216.894531 60.378906 216.777344 C 60.660156 216.664062 60.949219 216.574219 61.25 216.515625 C 61.546875 216.457031 61.851562 216.425781 62.15625 216.425781 L 285.054688 216.425781 C 285.359375 216.425781 285.664062 216.457031 285.960938 216.515625 C 286.261719 216.574219 286.550781 216.664062 286.832031 216.777344 C 287.113281 216.894531 287.382812 217.039062 287.636719 217.207031 C 287.890625 217.378906 288.125 217.570312 288.339844 217.785156 C 288.554688 218 288.746094 218.234375 288.917969 218.488281 C 289.085938 218.742188 289.230469 219.011719 289.347656 219.292969 C 289.464844 219.574219 289.550781 219.863281 289.609375 220.164062 C 289.671875 220.460938 289.699219 220.765625 289.699219 221.070312 C 289.699219 221.375 289.671875 221.675781 289.609375 221.976562 C 289.550781 222.273438 289.464844 222.566406 289.347656 222.847656 C 289.230469 223.128906 289.085938 223.394531 288.917969 223.648438 C 288.746094 223.902344 288.554688 224.136719 288.339844 224.351562 C 288.125 224.570312 287.890625 224.761719 287.636719 224.929688 C 287.382812 225.101562 287.113281 225.242188 286.832031 225.359375 C 286.550781 225.476562 286.261719 225.5625 285.960938 225.625 C 285.664062 225.683594 285.359375 225.714844 285.054688 225.714844 Z M 285.054688 225.714844 " fill-opacity="1" fill-rule="nonzero"/></g><path fill="#351775" d="M 106.421875 243.28125 L 83.859375 243.28125 C 83.554688 243.28125 83.253906 243.25 82.953125 243.191406 C 82.65625 243.132812 82.363281 243.042969 82.082031 242.925781 C 81.800781 242.8125 81.535156 242.667969 81.28125 242.5 C 81.027344 242.328125 80.792969 242.136719 80.574219 241.921875 C 80.359375 241.703125 80.167969 241.46875 80 241.21875 C 79.828125 240.964844 79.6875 240.695312 79.570312 240.414062 C 79.453125 240.132812 79.363281 239.84375 79.304688 239.542969 C 79.246094 239.242188 79.214844 238.941406 79.214844 238.636719 C 79.214844 238.332031 79.246094 238.03125 79.304688 237.730469 C 79.363281 237.433594 79.453125 237.140625 79.570312 236.859375 C 79.6875 236.578125 79.828125 236.308594 80 236.058594 C 80.167969 235.804688 80.359375 235.570312 80.574219 235.351562 C 80.792969 235.136719 81.027344 234.945312 81.28125 234.777344 C 81.535156 234.605469 81.800781 234.464844 82.082031 234.347656 C 82.363281 234.230469 82.65625 234.140625 82.953125 234.082031 C 83.253906 234.023438 83.554688 233.992188 83.859375 233.992188 L 106.421875 233.992188 C 106.726562 233.992188 107.027344 234.023438 107.328125 234.082031 C 107.625 234.140625 107.917969 234.230469 108.199219 234.347656 C 108.480469 234.464844 108.746094 234.605469 109 234.777344 C 109.253906 234.945312 109.488281 235.136719 109.703125 235.351562 C 109.921875 235.570312 110.113281 235.804688 110.28125 236.058594 C 110.453125 236.308594 110.59375 236.578125 110.710938 236.859375 C 110.828125 237.140625 110.914062 237.433594 110.976562 237.730469 C 111.035156 238.03125 111.066406 238.332031 111.066406 238.636719 C 111.066406 238.941406 111.035156 239.242188 110.976562 239.542969 C 110.914062 239.84375 110.828125 240.132812 110.710938 240.414062 C 110.59375 240.695312 110.453125 240.964844 110.28125 241.21875 C 110.113281 241.46875 109.921875 241.703125 109.703125 241.921875 C 109.488281 242.136719 109.253906 242.328125 109 242.5 C 108.746094 242.667969 108.480469 242.8125 108.199219 242.925781 C 107.917969 243.042969 107.625 243.132812 107.328125 243.191406 C 107.027344 243.25 106.726562 243.28125 106.421875 243.28125 Z M 106.421875 243.28125 " fill-opacity="1" fill-rule="nonzero"/><g clip-path="url(#c2a1ed72eb)"><path fill="#351775" d="M 220.296875 319.144531 L 126.914062 319.144531 C 125.941406 319.152344 124.972656 319.0625 124.019531 318.875 C 123.0625 318.691406 122.132812 318.414062 121.230469 318.042969 C 120.328125 317.675781 119.472656 317.21875 118.660156 316.683594 C 117.847656 316.144531 117.09375 315.53125 116.40625 314.84375 C 115.714844 314.15625 115.097656 313.40625 114.554688 312.597656 C 114.011719 311.789062 113.550781 310.933594 113.175781 310.035156 C 112.804688 309.136719 112.519531 308.207031 112.332031 307.253906 C 112.140625 306.296875 112.042969 305.332031 112.042969 304.355469 C 112.042969 303.382812 112.140625 302.417969 112.332031 301.460938 C 112.519531 300.507812 112.804688 299.578125 113.175781 298.679688 C 113.550781 297.777344 114.011719 296.925781 114.554688 296.117188 C 115.097656 295.304688 115.714844 294.558594 116.40625 293.871094 C 117.09375 293.183594 117.847656 292.570312 118.660156 292.03125 C 119.472656 291.492188 120.328125 291.039062 121.230469 290.671875 C 122.132812 290.300781 123.0625 290.023438 124.019531 289.839844 C 124.972656 289.652344 125.941406 289.5625 126.914062 289.570312 L 220.296875 289.570312 C 221.265625 289.574219 222.222656 289.671875 223.171875 289.867188 C 224.117188 290.058594 225.039062 290.34375 225.933594 290.71875 C 226.824219 291.09375 227.671875 291.550781 228.472656 292.089844 C 229.277344 292.628906 230.019531 293.242188 230.703125 293.929688 C 231.382812 294.613281 231.992188 295.359375 232.527344 296.167969 C 233.066406 296.972656 233.515625 297.820312 233.886719 298.714844 C 234.253906 299.609375 234.535156 300.53125 234.722656 301.480469 C 234.910156 302.429688 235.003906 303.390625 235.003906 304.355469 C 235.003906 305.324219 234.910156 306.28125 234.722656 307.230469 C 234.535156 308.179688 234.253906 309.101562 233.886719 309.996094 C 233.515625 310.890625 233.066406 311.742188 232.527344 312.546875 C 231.992188 313.351562 231.382812 314.097656 230.703125 314.785156 C 230.019531 315.472656 229.277344 316.085938 228.472656 316.625 C 227.671875 317.164062 226.824219 317.621094 225.933594 317.996094 C 225.039062 318.371094 224.117188 318.652344 223.171875 318.847656 C 222.222656 319.039062 221.265625 319.140625 220.296875 319.144531 Z M 126.914062 298.855469 C 126.550781 298.851562 126.191406 298.886719 125.832031 298.953125 C 125.476562 299.019531 125.128906 299.125 124.792969 299.261719 C 124.457031 299.398438 124.136719 299.566406 123.832031 299.765625 C 123.53125 299.964844 123.25 300.195312 122.992188 300.449219 C 122.734375 300.703125 122.503906 300.984375 122.300781 301.285156 C 122.097656 301.585938 121.925781 301.90625 121.785156 302.238281 C 121.644531 302.574219 121.539062 302.921875 121.46875 303.277344 C 121.398438 303.632812 121.363281 303.992188 121.363281 304.355469 C 121.363281 304.71875 121.398438 305.082031 121.46875 305.4375 C 121.539062 305.792969 121.644531 306.140625 121.785156 306.472656 C 121.925781 306.808594 122.097656 307.128906 122.300781 307.429688 C 122.503906 307.730469 122.734375 308.007812 122.992188 308.265625 C 123.25 308.519531 123.53125 308.75 123.832031 308.949219 C 124.136719 309.148438 124.457031 309.316406 124.792969 309.453125 C 125.128906 309.589844 125.476562 309.691406 125.832031 309.761719 C 126.191406 309.828125 126.550781 309.859375 126.914062 309.859375 L 220.296875 309.859375 C 220.65625 309.855469 221.011719 309.816406 221.363281 309.742188 C 221.714844 309.671875 222.054688 309.5625 222.386719 309.425781 C 222.71875 309.285156 223.03125 309.113281 223.328125 308.914062 C 223.625 308.710938 223.902344 308.484375 224.152344 308.230469 C 224.40625 307.972656 224.632812 307.695312 224.832031 307.398438 C 225.027344 307.097656 225.195312 306.78125 225.332031 306.449219 C 225.46875 306.117188 225.574219 305.777344 225.644531 305.425781 C 225.710938 305.070312 225.746094 304.714844 225.746094 304.355469 C 225.746094 304 225.710938 303.640625 225.644531 303.289062 C 225.574219 302.9375 225.46875 302.597656 225.332031 302.265625 C 225.195312 301.933594 225.027344 301.617188 224.832031 301.316406 C 224.632812 301.019531 224.40625 300.742188 224.152344 300.484375 C 223.902344 300.230469 223.625 300.003906 223.328125 299.800781 C 223.03125 299.601562 222.71875 299.429688 222.386719 299.289062 C 222.054688 299.148438 221.714844 299.042969 221.363281 298.972656 C 221.011719 298.898438 220.65625 298.859375 220.296875 298.855469 Z M 126.914062 298.855469 " fill-opacity="1" fill-rule="nonzero"/></g><path fill="#351775" d="M 138.925781 298.855469 C 138.730469 298.855469 138.535156 298.84375 138.339844 298.820312 C 138.144531 298.792969 137.953125 298.757812 137.761719 298.707031 C 137.570312 298.65625 137.386719 298.597656 137.203125 298.523438 C 137.019531 298.449219 136.84375 298.367188 136.671875 298.269531 C 136.5 298.175781 136.335938 298.066406 136.175781 297.953125 C 136.019531 297.835938 135.867188 297.707031 135.726562 297.574219 C 135.582031 297.4375 135.449219 297.292969 135.324219 297.140625 C 135.203125 296.988281 135.085938 296.828125 134.984375 296.660156 C 134.878906 296.496094 134.789062 296.320312 134.707031 296.140625 C 134.625 295.964844 134.554688 295.78125 134.496094 295.59375 C 134.4375 295.40625 134.390625 295.214844 134.355469 295.019531 C 134.320312 294.828125 134.300781 294.632812 134.289062 294.4375 C 134.28125 294.238281 134.285156 294.042969 134.296875 293.847656 C 134.3125 293.652344 134.339844 293.457031 134.382812 293.265625 C 134.421875 293.070312 134.472656 292.882812 134.539062 292.695312 C 134.601562 292.511719 134.675781 292.328125 134.765625 292.152344 C 137.414062 286.636719 139.519531 280.917969 141.078125 275 C 142.636719 269.078125 143.617188 263.066406 144.023438 256.957031 C 144.023438 256.652344 144.054688 256.351562 144.113281 256.050781 C 144.171875 255.753906 144.261719 255.460938 144.378906 255.179688 C 144.496094 254.898438 144.636719 254.632812 144.808594 254.378906 C 144.976562 254.125 145.167969 253.890625 145.386719 253.675781 C 145.601562 253.457031 145.835938 253.265625 146.089844 253.097656 C 146.34375 252.925781 146.609375 252.785156 146.890625 252.667969 C 147.171875 252.550781 147.464844 252.464844 147.761719 252.402344 C 148.0625 252.34375 148.363281 252.3125 148.667969 252.3125 C 148.972656 252.3125 149.273438 252.34375 149.574219 252.402344 C 149.875 252.464844 150.164062 252.550781 150.445312 252.667969 C 150.726562 252.785156 150.996094 252.925781 151.25 253.097656 C 151.5 253.265625 151.738281 253.457031 151.953125 253.675781 C 152.167969 253.890625 152.359375 254.125 152.53125 254.378906 C 152.699219 254.632812 152.84375 254.898438 152.957031 255.179688 C 153.074219 255.460938 153.164062 255.753906 153.222656 256.050781 C 153.28125 256.351562 153.3125 256.652344 153.3125 256.957031 C 152.917969 263.78125 151.863281 270.503906 150.144531 277.121094 C 148.421875 283.734375 146.070312 290.121094 143.089844 296.269531 C 142.898438 296.660156 142.65625 297.011719 142.367188 297.335938 C 142.074219 297.65625 141.746094 297.929688 141.378906 298.15625 C 141.007812 298.386719 140.617188 298.558594 140.203125 298.679688 C 139.785156 298.796875 139.359375 298.855469 138.925781 298.855469 Z M 138.925781 298.855469 " fill-opacity="1" fill-rule="nonzero"/><path fill="#351775" d="M 208.28125 298.855469 C 207.847656 298.855469 207.421875 298.796875 207.007812 298.679688 C 206.589844 298.558594 206.199219 298.386719 205.828125 298.15625 C 205.460938 297.929688 205.132812 297.65625 204.839844 297.335938 C 204.550781 297.011719 204.308594 296.660156 204.117188 296.269531 C 201.136719 290.121094 198.785156 283.734375 197.0625 277.121094 C 195.34375 270.503906 194.289062 263.78125 193.894531 256.957031 C 193.894531 256.652344 193.925781 256.351562 193.984375 256.050781 C 194.042969 255.753906 194.132812 255.460938 194.25 255.179688 C 194.363281 254.898438 194.507812 254.632812 194.675781 254.378906 C 194.847656 254.125 195.039062 253.890625 195.253906 253.675781 C 195.472656 253.457031 195.707031 253.265625 195.957031 253.097656 C 196.210938 252.925781 196.480469 252.785156 196.761719 252.667969 C 197.042969 252.550781 197.332031 252.464844 197.632812 252.402344 C 197.933594 252.34375 198.234375 252.3125 198.539062 252.3125 C 198.84375 252.3125 199.144531 252.34375 199.445312 252.402344 C 199.742188 252.464844 200.035156 252.550781 200.316406 252.667969 C 200.597656 252.785156 200.863281 252.925781 201.117188 253.097656 C 201.371094 253.265625 201.605469 253.457031 201.824219 253.675781 C 202.039062 253.890625 202.230469 254.125 202.398438 254.378906 C 202.570312 254.632812 202.710938 254.898438 202.828125 255.179688 C 202.945312 255.460938 203.035156 255.753906 203.09375 256.050781 C 203.152344 256.351562 203.183594 256.652344 203.183594 256.957031 C 203.589844 263.066406 204.570312 269.078125 206.128906 275 C 207.6875 280.917969 209.792969 286.636719 212.441406 292.152344 C 212.53125 292.328125 212.605469 292.511719 212.667969 292.695312 C 212.734375 292.882812 212.785156 293.070312 212.824219 293.265625 C 212.867188 293.457031 212.894531 293.652344 212.910156 293.847656 C 212.921875 294.042969 212.925781 294.238281 212.917969 294.4375 C 212.90625 294.632812 212.886719 294.828125 212.851562 295.019531 C 212.816406 295.214844 212.769531 295.40625 212.710938 295.59375 C 212.652344 295.78125 212.582031 295.964844 212.5 296.140625 C 212.417969 296.320312 212.328125 296.496094 212.222656 296.660156 C 212.121094 296.828125 212.003906 296.988281 211.882812 297.140625 C 211.757812 297.292969 211.625 297.4375 211.480469 297.574219 C 211.339844 297.707031 211.1875 297.835938 211.03125 297.953125 C 210.871094 298.066406 210.707031 298.175781 210.535156 298.269531 C 210.363281 298.367188 210.1875 298.449219 210.003906 298.523438 C 209.820312 298.597656 209.636719 298.65625 209.445312 298.707031 C 209.253906 298.757812 209.0625 298.792969 208.867188 298.820312 C 208.671875 298.84375 208.476562 298.855469 208.28125 298.855469 Z M 208.28125 298.855469 " fill-opacity="1" fill-rule="nonzero"/><path fill="#351775" d="M 87.511719 225.714844 C 87.207031 225.714844 86.902344 225.683594 86.605469 225.625 C 86.304688 225.566406 86.015625 225.476562 85.734375 225.359375 C 85.453125 225.242188 85.183594 225.101562 84.929688 224.929688 C 84.675781 224.761719 84.441406 224.570312 84.226562 224.355469 C 84.011719 224.136719 83.816406 223.902344 83.648438 223.648438 C 83.480469 223.394531 83.335938 223.128906 83.21875 222.847656 C 83.101562 222.566406 83.015625 222.273438 82.957031 221.976562 C 82.894531 221.675781 82.867188 221.375 82.867188 221.070312 L 82.867188 90.671875 C 82.867188 90.367188 82.898438 90.066406 82.957031 89.765625 C 83.015625 89.46875 83.105469 89.175781 83.21875 88.894531 C 83.335938 88.613281 83.480469 88.347656 83.648438 88.09375 C 83.820312 87.839844 84.011719 87.605469 84.226562 87.386719 C 84.441406 87.171875 84.675781 86.980469 84.929688 86.8125 C 85.183594 86.640625 85.453125 86.5 85.734375 86.382812 C 86.015625 86.265625 86.304688 86.175781 86.605469 86.117188 C 86.902344 86.058594 87.207031 86.027344 87.511719 86.027344 C 87.816406 86.027344 88.117188 86.058594 88.417969 86.117188 C 88.714844 86.175781 89.007812 86.265625 89.289062 86.382812 C 89.570312 86.5 89.835938 86.640625 90.089844 86.8125 C 90.34375 86.980469 90.578125 87.171875 90.792969 87.386719 C 91.011719 87.605469 91.203125 87.839844 91.371094 88.09375 C 91.542969 88.347656 91.683594 88.613281 91.800781 88.894531 C 91.917969 89.175781 92.003906 89.46875 92.066406 89.765625 C 92.125 90.066406 92.15625 90.367188 92.15625 90.671875 L 92.15625 221.070312 C 92.15625 221.375 92.125 221.675781 92.066406 221.976562 C 92.003906 222.273438 91.917969 222.566406 91.800781 222.847656 C 91.683594 223.128906 91.542969 223.394531 91.371094 223.648438 C 91.203125 223.902344 91.011719 224.136719 90.792969 224.351562 C 90.578125 224.570312 90.34375 224.761719 90.089844 224.929688 C 89.835938 225.101562 89.570312 225.242188 89.289062 225.359375 C 89.007812 225.476562 88.714844 225.5625 88.417969 225.625 C 88.117188 225.683594 87.816406 225.714844 87.511719 225.714844 Z M 87.511719 225.714844 " fill-opacity="1" fill-rule="nonzero"/><path fill="#351775" d="M 196.824219 225.714844 C 196.519531 225.714844 196.21875 225.683594 195.917969 225.625 C 195.621094 225.5625 195.328125 225.476562 195.046875 225.359375 C 194.765625 225.242188 194.5 225.101562 194.246094 224.929688 C 193.992188 224.761719 193.757812 224.570312 193.542969 224.351562 C 193.324219 224.136719 193.132812 223.902344 192.964844 223.648438 C 192.792969 223.394531 192.652344 223.128906 192.535156 222.847656 C 192.417969 222.566406 192.328125 222.273438 192.269531 221.976562 C 192.210938 221.675781 192.179688 221.375 192.179688 221.070312 L 192.179688 73.53125 C 192.179688 73.191406 192.148438 72.855469 192.082031 72.527344 C 192.015625 72.195312 191.917969 71.871094 191.785156 71.558594 C 191.65625 71.25 191.5 70.953125 191.3125 70.671875 C 191.121094 70.390625 190.910156 70.128906 190.671875 69.890625 C 190.429688 69.652344 190.171875 69.4375 189.890625 69.25 C 189.609375 69.0625 189.3125 68.90625 189 68.777344 C 188.6875 68.644531 188.367188 68.546875 188.035156 68.480469 C 187.703125 68.414062 187.371094 68.382812 187.03125 68.382812 L 114.445312 68.382812 C 114.136719 68.382812 113.835938 68.351562 113.539062 68.292969 C 113.238281 68.234375 112.949219 68.144531 112.667969 68.027344 C 112.382812 67.910156 112.117188 67.769531 111.863281 67.597656 C 111.609375 67.429688 111.375 67.238281 111.160156 67.023438 C 110.945312 66.804688 110.75 66.570312 110.582031 66.320312 C 110.414062 66.066406 110.269531 65.796875 110.152344 65.515625 C 110.035156 65.234375 109.949219 64.945312 109.890625 64.644531 C 109.828125 64.34375 109.800781 64.042969 109.800781 63.738281 C 109.800781 63.433594 109.828125 63.132812 109.890625 62.832031 C 109.949219 62.535156 110.035156 62.242188 110.152344 61.960938 C 110.269531 61.679688 110.414062 61.410156 110.582031 61.160156 C 110.75 60.90625 110.945312 60.671875 111.160156 60.453125 C 111.375 60.238281 111.609375 60.046875 111.863281 59.878906 C 112.117188 59.707031 112.382812 59.566406 112.667969 59.449219 C 112.949219 59.332031 113.238281 59.242188 113.539062 59.183594 C 113.835938 59.125 114.136719 59.09375 114.445312 59.09375 L 187.03125 59.09375 C 187.980469 59.097656 188.917969 59.1875 189.847656 59.375 C 190.777344 59.558594 191.679688 59.835938 192.554688 60.199219 C 193.429688 60.5625 194.261719 61.007812 195.046875 61.53125 C 195.835938 62.058594 196.5625 62.65625 197.234375 63.328125 C 197.902344 63.996094 198.503906 64.726562 199.027344 65.515625 C 199.554688 66.300781 200 67.132812 200.363281 68.007812 C 200.726562 68.882812 201 69.785156 201.1875 70.714844 C 201.371094 71.644531 201.464844 72.582031 201.464844 73.53125 L 201.464844 221.070312 C 201.464844 221.375 201.4375 221.675781 201.378906 221.976562 C 201.316406 222.273438 201.230469 222.5625 201.113281 222.847656 C 200.996094 223.128906 200.855469 223.394531 200.683594 223.648438 C 200.515625 223.902344 200.324219 224.136719 200.105469 224.351562 C 199.890625 224.566406 199.65625 224.761719 199.402344 224.929688 C 199.148438 225.097656 198.882812 225.242188 198.601562 225.359375 C 198.320312 225.476562 198.03125 225.5625 197.730469 225.625 C 197.429688 225.683594 197.128906 225.710938 196.824219 225.714844 Z M 196.824219 225.714844 " fill-opacity="1" fill-rule="nonzero"/><path fill="#351775" d="M 106.980469 95.335938 L 87.492188 95.335938 C 87.03125 95.335938 86.582031 95.269531 86.144531 95.136719 C 85.703125 95.003906 85.292969 94.808594 84.914062 94.554688 C 84.53125 94.300781 84.195312 93.996094 83.902344 93.640625 C 83.613281 93.285156 83.378906 92.894531 83.203125 92.472656 C 83.027344 92.046875 82.917969 91.605469 82.871094 91.148438 C 82.828125 90.691406 82.847656 90.238281 82.9375 89.789062 C 83.027344 89.339844 83.179688 88.910156 83.398438 88.503906 C 83.613281 88.101562 83.882812 87.734375 84.207031 87.410156 L 111.164062 60.457031 C 111.488281 60.128906 111.855469 59.859375 112.257812 59.644531 C 112.664062 59.425781 113.09375 59.273438 113.542969 59.183594 C 113.992188 59.09375 114.445312 59.070312 114.902344 59.117188 C 115.359375 59.160156 115.800781 59.269531 116.226562 59.445312 C 116.652344 59.621094 117.039062 59.855469 117.394531 60.148438 C 117.75 60.4375 118.054688 60.777344 118.3125 61.15625 C 118.566406 61.539062 118.761719 61.949219 118.894531 62.390625 C 119.027344 62.828125 119.09375 63.277344 119.09375 63.738281 L 119.09375 83.21875 C 119.09375 84.015625 119.015625 84.804688 118.859375 85.582031 C 118.703125 86.363281 118.472656 87.121094 118.167969 87.855469 C 117.863281 88.589844 117.492188 89.289062 117.046875 89.949219 C 116.605469 90.609375 116.105469 91.222656 115.542969 91.785156 C 114.980469 92.347656 114.367188 92.847656 113.707031 93.292969 C 113.046875 93.734375 112.347656 94.105469 111.613281 94.410156 C 110.878906 94.714844 110.121094 94.945312 109.339844 95.101562 C 108.5625 95.257812 107.773438 95.335938 106.980469 95.335938 Z M 98.703125 86.050781 L 106.980469 86.050781 C 107.351562 86.050781 107.714844 85.976562 108.058594 85.832031 C 108.40625 85.691406 108.710938 85.484375 108.976562 85.21875 C 109.242188 84.953125 109.445312 84.648438 109.589844 84.300781 C 109.730469 83.957031 109.804688 83.59375 109.804688 83.21875 L 109.804688 74.949219 Z M 98.703125 86.050781 " fill-opacity="1" fill-rule="nonzero"/><path fill="#351775" d="M 111.367188 126.921875 C 110.085938 126.921875 108.992188 126.46875 108.085938 125.5625 L 101.296875 118.769531 C 101.085938 118.554688 100.898438 118.320312 100.730469 118.066406 C 100.566406 117.8125 100.425781 117.542969 100.316406 117.265625 C 100.203125 116.984375 100.117188 116.695312 100.058594 116.398438 C 100.003906 116.101562 99.976562 115.800781 99.976562 115.5 C 99.980469 115.195312 100.011719 114.898438 100.070312 114.601562 C 100.132812 114.304688 100.21875 114.015625 100.335938 113.738281 C 100.453125 113.457031 100.597656 113.191406 100.765625 112.941406 C 100.933594 112.691406 101.125 112.457031 101.339844 112.246094 C 101.550781 112.03125 101.785156 111.839844 102.035156 111.671875 C 102.285156 111.503906 102.550781 111.359375 102.832031 111.242188 C 103.109375 111.125 103.398438 111.039062 103.695312 110.976562 C 103.992188 110.917969 104.289062 110.886719 104.59375 110.882812 C 104.894531 110.882812 105.195312 110.910156 105.492188 110.964844 C 105.789062 111.023438 106.078125 111.109375 106.359375 111.222656 C 106.636719 111.335938 106.90625 111.472656 107.160156 111.636719 C 107.410156 111.804688 107.648438 111.992188 107.863281 112.203125 L 111.367188 115.714844 L 121.03125 106.050781 C 121.246094 105.828125 121.480469 105.632812 121.734375 105.457031 C 121.988281 105.285156 122.257812 105.136719 122.539062 105.019531 C 122.824219 104.898438 123.113281 104.804688 123.414062 104.742188 C 123.714844 104.679688 124.019531 104.648438 124.328125 104.648438 C 124.636719 104.644531 124.941406 104.671875 125.242188 104.730469 C 125.542969 104.789062 125.835938 104.878906 126.121094 104.996094 C 126.40625 105.113281 126.675781 105.253906 126.929688 105.425781 C 127.1875 105.597656 127.421875 105.789062 127.640625 106.007812 C 127.859375 106.226562 128.050781 106.460938 128.222656 106.71875 C 128.394531 106.972656 128.535156 107.242188 128.652344 107.527344 C 128.769531 107.8125 128.859375 108.105469 128.917969 108.40625 C 128.976562 108.707031 129.003906 109.011719 129 109.320312 C 129 109.628906 128.96875 109.933594 128.90625 110.234375 C 128.84375 110.535156 128.75 110.824219 128.628906 111.109375 C 128.511719 111.390625 128.363281 111.660156 128.191406 111.914062 C 128.015625 112.167969 127.820312 112.402344 127.597656 112.617188 L 114.652344 125.5625 C 113.746094 126.46875 112.652344 126.921875 111.367188 126.921875 Z M 111.367188 126.921875 " fill-opacity="1" fill-rule="nonzero"/><path fill="#351775" d="M 178.046875 113.976562 L 142.3125 113.976562 C 142.007812 113.976562 141.707031 113.945312 141.40625 113.886719 C 141.109375 113.828125 140.816406 113.738281 140.535156 113.625 C 140.253906 113.507812 139.984375 113.363281 139.734375 113.195312 C 139.480469 113.023438 139.246094 112.832031 139.027344 112.617188 C 138.8125 112.402344 138.621094 112.167969 138.453125 111.914062 C 138.28125 111.660156 138.140625 111.390625 138.023438 111.109375 C 137.90625 110.828125 137.816406 110.539062 137.757812 110.238281 C 137.699219 109.941406 137.667969 109.636719 137.667969 109.332031 C 137.667969 109.027344 137.699219 108.726562 137.757812 108.425781 C 137.816406 108.128906 137.90625 107.835938 138.023438 107.554688 C 138.140625 107.273438 138.28125 107.007812 138.453125 106.753906 C 138.621094 106.5 138.8125 106.265625 139.027344 106.050781 C 139.246094 105.832031 139.480469 105.640625 139.734375 105.472656 C 139.984375 105.300781 140.253906 105.160156 140.535156 105.042969 C 140.816406 104.925781 141.109375 104.835938 141.40625 104.777344 C 141.707031 104.71875 142.007812 104.6875 142.3125 104.6875 L 178.046875 104.6875 C 178.351562 104.6875 178.65625 104.71875 178.953125 104.777344 C 179.253906 104.835938 179.542969 104.925781 179.824219 105.042969 C 180.105469 105.160156 180.375 105.300781 180.628906 105.472656 C 180.882812 105.640625 181.117188 105.832031 181.332031 106.050781 C 181.546875 106.265625 181.738281 106.5 181.910156 106.753906 C 182.078125 107.007812 182.222656 107.273438 182.339844 107.554688 C 182.453125 107.835938 182.542969 108.128906 182.601562 108.425781 C 182.660156 108.726562 182.691406 109.027344 182.691406 109.332031 C 182.691406 109.636719 182.660156 109.941406 182.601562 110.238281 C 182.542969 110.539062 182.453125 110.828125 182.339844 111.109375 C 182.222656 111.390625 182.078125 111.660156 181.910156 111.914062 C 181.738281 112.167969 181.546875 112.402344 181.332031 112.617188 C 181.117188 112.832031 180.882812 113.023438 180.628906 113.195312 C 180.375 113.363281 180.105469 113.507812 179.824219 113.625 C 179.542969 113.738281 179.253906 113.828125 178.953125 113.886719 C 178.65625 113.945312 178.351562 113.976562 178.046875 113.976562 Z M 178.046875 113.976562 " fill-opacity="1" fill-rule="nonzero"/><path fill="#351775" d="M 160.179688 126.921875 L 142.3125 126.921875 C 142.007812 126.921875 141.707031 126.894531 141.40625 126.835938 C 141.109375 126.773438 140.816406 126.6875 140.535156 126.570312 C 140.253906 126.453125 139.984375 126.308594 139.734375 126.140625 C 139.480469 125.972656 139.246094 125.777344 139.027344 125.5625 C 138.8125 125.347656 138.621094 125.113281 138.453125 124.859375 C 138.28125 124.605469 138.140625 124.339844 138.023438 124.058594 C 137.90625 123.773438 137.816406 123.484375 137.757812 123.1875 C 137.699219 122.886719 137.667969 122.585938 137.667969 122.28125 C 137.667969 121.976562 137.699219 121.671875 137.757812 121.375 C 137.816406 121.074219 137.90625 120.785156 138.023438 120.503906 C 138.140625 120.222656 138.28125 119.953125 138.453125 119.699219 C 138.621094 119.445312 138.8125 119.210938 139.027344 118.996094 C 139.246094 118.78125 139.480469 118.585938 139.734375 118.417969 C 139.984375 118.25 140.253906 118.105469 140.535156 117.988281 C 140.816406 117.871094 141.109375 117.785156 141.40625 117.726562 C 141.707031 117.664062 142.007812 117.636719 142.3125 117.636719 L 160.179688 117.636719 C 160.484375 117.636719 160.789062 117.664062 161.085938 117.726562 C 161.386719 117.785156 161.675781 117.871094 161.957031 117.988281 C 162.238281 118.105469 162.507812 118.25 162.761719 118.417969 C 163.015625 118.585938 163.25 118.78125 163.464844 118.996094 C 163.679688 119.210938 163.871094 119.445312 164.042969 119.699219 C 164.210938 119.953125 164.355469 120.222656 164.46875 120.503906 C 164.585938 120.785156 164.675781 121.074219 164.734375 121.375 C 164.792969 121.671875 164.824219 121.976562 164.824219 122.28125 C 164.824219 122.585938 164.792969 122.886719 164.734375 123.1875 C 164.675781 123.484375 164.585938 123.773438 164.46875 124.058594 C 164.355469 124.339844 164.210938 124.605469 164.042969 124.859375 C 163.871094 125.113281 163.679688 125.347656 163.464844 125.5625 C 163.25 125.777344 163.015625 125.972656 162.761719 126.140625 C 162.507812 126.308594 162.238281 126.453125 161.957031 126.570312 C 161.675781 126.6875 161.386719 126.773438 161.085938 126.835938 C 160.789062 126.894531 160.484375 126.921875 160.179688 126.921875 Z M 160.179688 126.921875 " fill-opacity="1" fill-rule="nonzero"/><path fill="#351775" d="M 111.367188 160.273438 C 110.085938 160.273438 108.992188 159.820312 108.085938 158.914062 L 101.296875 152.121094 C 101.085938 151.902344 100.898438 151.667969 100.734375 151.414062 C 100.570312 151.160156 100.433594 150.894531 100.320312 150.613281 C 100.207031 150.332031 100.121094 150.046875 100.066406 149.75 C 100.011719 149.453125 99.984375 149.152344 99.984375 148.851562 C 99.988281 148.550781 100.019531 148.25 100.082031 147.953125 C 100.140625 147.660156 100.230469 147.371094 100.347656 147.09375 C 100.464844 146.8125 100.605469 146.550781 100.773438 146.300781 C 100.941406 146.046875 101.132812 145.816406 101.347656 145.601562 C 101.558594 145.390625 101.792969 145.199219 102.042969 145.03125 C 102.292969 144.863281 102.558594 144.71875 102.835938 144.601562 C 103.113281 144.484375 103.402344 144.398438 103.699219 144.335938 C 103.992188 144.277344 104.292969 144.246094 104.59375 144.242188 C 104.898438 144.242188 105.195312 144.265625 105.492188 144.324219 C 105.789062 144.378906 106.078125 144.464844 106.359375 144.574219 C 106.636719 144.6875 106.90625 144.828125 107.160156 144.992188 C 107.410156 145.15625 107.648438 145.34375 107.863281 145.554688 L 111.367188 149.0625 L 121.03125 139.398438 C 121.246094 139.179688 121.480469 138.980469 121.734375 138.804688 C 121.988281 138.632812 122.257812 138.484375 122.539062 138.363281 C 122.824219 138.242188 123.113281 138.148438 123.417969 138.085938 C 123.71875 138.023438 124.023438 137.992188 124.332031 137.988281 C 124.636719 137.988281 124.941406 138.015625 125.246094 138.074219 C 125.546875 138.132812 125.839844 138.21875 126.125 138.335938 C 126.410156 138.453125 126.683594 138.597656 126.9375 138.765625 C 127.195312 138.9375 127.429688 139.132812 127.648438 139.347656 C 127.867188 139.566406 128.0625 139.804688 128.230469 140.058594 C 128.402344 140.316406 128.546875 140.585938 128.664062 140.871094 C 128.78125 141.15625 128.867188 141.449219 128.925781 141.753906 C 128.984375 142.054688 129.011719 142.359375 129.007812 142.667969 C 129.007812 142.976562 128.972656 143.28125 128.910156 143.582031 C 128.847656 143.882812 128.757812 144.175781 128.636719 144.457031 C 128.515625 144.742188 128.367188 145.007812 128.191406 145.261719 C 128.019531 145.515625 127.820312 145.75 127.597656 145.964844 L 114.652344 158.914062 C 113.746094 159.820312 112.652344 160.273438 111.367188 160.273438 Z M 111.367188 160.273438 " fill-opacity="1" fill-rule="nonzero"/><path fill="#351775" d="M 178.046875 147.328125 L 142.3125 147.328125 C 142.007812 147.328125 141.707031 147.296875 141.40625 147.238281 C 141.109375 147.175781 140.816406 147.089844 140.535156 146.972656 C 140.253906 146.855469 139.984375 146.714844 139.734375 146.542969 C 139.480469 146.375 139.246094 146.183594 139.027344 145.964844 C 138.8125 145.75 138.621094 145.515625 138.453125 145.261719 C 138.28125 145.007812 138.140625 144.742188 138.023438 144.460938 C 137.90625 144.179688 137.816406 143.886719 137.757812 143.589844 C 137.699219 143.289062 137.667969 142.988281 137.667969 142.683594 C 137.667969 142.378906 137.699219 142.074219 137.757812 141.777344 C 137.816406 141.476562 137.90625 141.1875 138.023438 140.90625 C 138.140625 140.625 138.28125 140.355469 138.453125 140.101562 C 138.621094 139.847656 138.8125 139.613281 139.027344 139.398438 C 139.246094 139.183594 139.480469 138.992188 139.734375 138.820312 C 139.984375 138.652344 140.253906 138.507812 140.535156 138.390625 C 140.816406 138.277344 141.109375 138.1875 141.40625 138.128906 C 141.707031 138.070312 142.007812 138.039062 142.3125 138.039062 L 178.046875 138.039062 C 178.351562 138.039062 178.65625 138.070312 178.953125 138.128906 C 179.253906 138.1875 179.542969 138.277344 179.824219 138.390625 C 180.105469 138.507812 180.375 138.652344 180.628906 138.820312 C 180.882812 138.992188 181.117188 139.183594 181.332031 139.398438 C 181.546875 139.613281 181.738281 139.847656 181.910156 140.101562 C 182.078125 140.355469 182.222656 140.625 182.339844 140.90625 C 182.453125 141.1875 182.542969 141.476562 182.601562 141.777344 C 182.660156 142.074219 182.691406 142.378906 182.691406 142.683594 C 182.691406 142.988281 182.660156 143.289062 182.601562 143.589844 C 182.542969 143.886719 182.453125 144.179688 182.339844 144.460938 C 182.222656 144.742188 182.078125 145.007812 181.910156 145.261719 C 181.738281 145.515625 181.546875 145.75 181.332031 145.964844 C 181.117188 146.183594 180.882812 146.375 180.628906 146.542969 C 180.375 146.714844 180.105469 146.855469 179.824219 146.972656 C 179.542969 147.089844 179.253906 147.175781 178.953125 147.238281 C 178.65625 147.296875 178.351562 147.328125 178.046875 147.328125 Z M 178.046875 147.328125 " fill-opacity="1" fill-rule="nonzero"/><path fill="#351775" d="M 160.179688 160.273438 L 142.3125 160.273438 C 142.007812 160.273438 141.707031 160.242188 141.40625 160.183594 C 141.109375 160.125 140.816406 160.035156 140.535156 159.921875 C 140.253906 159.804688 139.984375 159.660156 139.734375 159.492188 C 139.480469 159.320312 139.246094 159.128906 139.027344 158.914062 C 138.8125 158.699219 138.621094 158.464844 138.453125 158.210938 C 138.28125 157.957031 138.140625 157.6875 138.023438 157.40625 C 137.90625 157.125 137.816406 156.835938 137.757812 156.535156 C 137.699219 156.238281 137.667969 155.933594 137.667969 155.628906 C 137.667969 155.324219 137.699219 155.023438 137.757812 154.722656 C 137.816406 154.425781 137.90625 154.132812 138.023438 153.851562 C 138.140625 153.570312 138.28125 153.304688 138.453125 153.050781 C 138.621094 152.796875 138.8125 152.5625 139.027344 152.347656 C 139.246094 152.128906 139.480469 151.9375 139.734375 151.769531 C 139.984375 151.597656 140.253906 151.457031 140.535156 151.339844 C 140.816406 151.222656 141.109375 151.132812 141.40625 151.074219 C 141.707031 151.015625 142.007812 150.984375 142.3125 150.984375 L 160.179688 150.984375 C 160.484375 150.984375 160.789062 151.015625 161.085938 151.074219 C 161.386719 151.132812 161.675781 151.222656 161.957031 151.339844 C 162.238281 151.457031 162.507812 151.597656 162.761719 151.769531 C 163.015625 151.9375 163.25 152.128906 163.464844 152.347656 C 163.679688 152.5625 163.871094 152.796875 164.042969 153.050781 C 164.210938 153.304688 164.355469 153.570312 164.46875 153.851562 C 164.585938 154.132812 164.675781 154.425781 164.734375 154.722656 C 164.792969 155.023438 164.824219 155.324219 164.824219 155.628906 C 164.824219 155.933594 164.792969 156.238281 164.734375 156.535156 C 164.675781 156.835938 164.585938 157.125 164.46875 157.40625 C 164.355469 157.6875 164.210938 157.957031 164.042969 158.210938 C 163.871094 158.464844 163.679688 158.699219 163.464844 158.914062 C 163.25 159.128906 163.015625 159.320312 162.761719 159.492188 C 162.507812 159.660156 162.238281 159.804688 161.957031 159.921875 C 161.675781 160.035156 161.386719 160.125 161.085938 160.183594 C 160.789062 160.242188 160.484375 160.273438 160.179688 160.273438 Z M 160.179688 160.273438 " fill-opacity="1" fill-rule="nonzero"/><path fill="#351775" d="M 111.367188 193.625 C 110.085938 193.625 108.992188 193.171875 108.085938 192.265625 L 101.296875 185.476562 C 101.074219 185.261719 100.878906 185.027344 100.703125 184.773438 C 100.527344 184.519531 100.382812 184.25 100.261719 183.96875 C 100.140625 183.683594 100.046875 183.390625 99.984375 183.089844 C 99.921875 182.789062 99.886719 182.484375 99.886719 182.175781 C 99.882812 181.871094 99.910156 181.5625 99.96875 181.261719 C 100.027344 180.960938 100.117188 180.667969 100.234375 180.382812 C 100.351562 180.097656 100.492188 179.824219 100.664062 179.570312 C 100.835938 179.3125 101.027344 179.074219 101.246094 178.859375 C 101.464844 178.640625 101.699219 178.445312 101.957031 178.277344 C 102.214844 178.105469 102.484375 177.960938 102.769531 177.84375 C 103.054688 177.726562 103.347656 177.640625 103.648438 177.582031 C 103.953125 177.523438 104.257812 177.496094 104.566406 177.5 C 104.875 177.5 105.179688 177.535156 105.480469 177.597656 C 105.78125 177.660156 106.074219 177.75 106.355469 177.871094 C 106.640625 177.992188 106.90625 178.140625 107.160156 178.316406 C 107.414062 178.488281 107.648438 178.6875 107.863281 178.910156 L 111.367188 182.414062 L 121.03125 172.75 C 121.246094 172.53125 121.480469 172.332031 121.734375 172.160156 C 121.988281 171.984375 122.257812 171.839844 122.539062 171.71875 C 122.824219 171.597656 123.113281 171.507812 123.414062 171.445312 C 123.714844 171.382812 124.019531 171.351562 124.328125 171.347656 C 124.636719 171.347656 124.941406 171.375 125.242188 171.433594 C 125.542969 171.492188 125.835938 171.578125 126.121094 171.695312 C 126.40625 171.8125 126.675781 171.957031 126.929688 172.128906 C 127.1875 172.296875 127.421875 172.492188 127.640625 172.707031 C 127.859375 172.925781 128.050781 173.164062 128.222656 173.417969 C 128.394531 173.675781 128.535156 173.945312 128.652344 174.230469 C 128.769531 174.511719 128.859375 174.804688 128.917969 175.109375 C 128.976562 175.410156 129.003906 175.714844 129 176.023438 C 129 176.328125 128.96875 176.632812 128.90625 176.933594 C 128.84375 177.234375 128.75 177.527344 128.628906 177.808594 C 128.511719 178.09375 128.363281 178.359375 128.191406 178.613281 C 128.015625 178.867188 127.820312 179.101562 127.597656 179.316406 L 114.652344 192.265625 C 113.746094 193.171875 112.652344 193.625 111.367188 193.625 Z M 111.367188 193.625 " fill-opacity="1" fill-rule="nonzero"/><path fill="#351775" d="M 178.046875 180.675781 L 142.3125 180.675781 C 142.007812 180.675781 141.707031 180.644531 141.40625 180.585938 C 141.109375 180.527344 140.816406 180.4375 140.535156 180.324219 C 140.253906 180.207031 139.984375 180.0625 139.734375 179.894531 C 139.480469 179.722656 139.246094 179.53125 139.027344 179.316406 C 138.8125 179.101562 138.621094 178.867188 138.453125 178.613281 C 138.28125 178.359375 138.140625 178.089844 138.023438 177.808594 C 137.90625 177.527344 137.816406 177.238281 137.757812 176.9375 C 137.699219 176.640625 137.667969 176.335938 137.667969 176.03125 C 137.667969 175.726562 137.699219 175.425781 137.757812 175.125 C 137.816406 174.828125 137.90625 174.535156 138.023438 174.253906 C 138.140625 173.972656 138.28125 173.707031 138.453125 173.453125 C 138.621094 173.199219 138.8125 172.964844 139.027344 172.75 C 139.246094 172.53125 139.480469 172.339844 139.734375 172.171875 C 139.984375 172 140.253906 171.859375 140.535156 171.742188 C 140.816406 171.625 141.109375 171.535156 141.40625 171.476562 C 141.707031 171.417969 142.007812 171.386719 142.3125 171.386719 L 178.046875 171.386719 C 178.351562 171.386719 178.65625 171.417969 178.953125 171.476562 C 179.253906 171.535156 179.542969 171.625 179.824219 171.742188 C 180.105469 171.859375 180.375 172 180.628906 172.171875 C 180.882812 172.339844 181.117188 172.53125 181.332031 172.75 C 181.546875 172.964844 181.738281 173.199219 181.910156 173.453125 C 182.078125 173.707031 182.222656 173.972656 182.339844 174.253906 C 182.453125 174.535156 182.542969 174.828125 182.601562 175.125 C 182.660156 175.425781 182.691406 175.726562 182.691406 176.03125 C 182.691406 176.335938 182.660156 176.640625 182.601562 176.9375 C 182.542969 177.238281 182.453125 177.527344 182.339844 177.808594 C 182.222656 178.089844 182.078125 178.359375 181.910156 178.613281 C 181.738281 178.867188 181.546875 179.101562 181.332031 179.316406 C 181.117188 179.53125 180.882812 179.722656 180.628906 179.894531 C 180.375 180.0625 180.105469 180.207031 179.824219 180.324219 C 179.542969 180.4375 179.253906 180.527344 178.953125 180.585938 C 178.65625 180.644531 178.351562 180.675781 178.046875 180.675781 Z M 178.046875 180.675781 " fill-opacity="1" fill-rule="nonzero"/><path fill="#351775" d="M 160.179688 193.625 L 142.3125 193.625 C 142.007812 193.625 141.707031 193.59375 141.40625 193.535156 C 141.109375 193.476562 140.816406 193.386719 140.535156 193.269531 C 140.253906 193.15625 139.984375 193.011719 139.734375 192.84375 C 139.480469 192.671875 139.246094 192.480469 139.027344 192.265625 C 138.8125 192.046875 138.621094 191.8125 138.453125 191.5625 C 138.28125 191.308594 138.140625 191.039062 138.023438 190.757812 C 137.90625 190.476562 137.816406 190.1875 137.757812 189.886719 C 137.699219 189.585938 137.667969 189.285156 137.667969 188.980469 C 137.667969 188.675781 137.699219 188.375 137.757812 188.074219 C 137.816406 187.777344 137.90625 187.484375 138.023438 187.203125 C 138.140625 186.921875 138.28125 186.65625 138.453125 186.402344 C 138.621094 186.148438 138.8125 185.914062 139.027344 185.695312 C 139.246094 185.480469 139.480469 185.289062 139.734375 185.121094 C 139.984375 184.949219 140.253906 184.808594 140.535156 184.691406 C 140.816406 184.574219 141.109375 184.484375 141.40625 184.425781 C 141.707031 184.367188 142.007812 184.335938 142.3125 184.335938 L 160.179688 184.335938 C 160.484375 184.335938 160.789062 184.367188 161.085938 184.425781 C 161.386719 184.484375 161.675781 184.574219 161.957031 184.691406 C 162.238281 184.808594 162.507812 184.949219 162.761719 185.121094 C 163.015625 185.289062 163.25 185.480469 163.464844 185.695312 C 163.679688 185.914062 163.871094 186.148438 164.042969 186.402344 C 164.210938 186.65625 164.355469 186.921875 164.46875 187.203125 C 164.585938 187.484375 164.675781 187.777344 164.734375 188.074219 C 164.792969 188.375 164.824219 188.675781 164.824219 188.980469 C 164.824219 189.285156 164.792969 189.585938 164.734375 189.886719 C 164.675781 190.1875 164.585938 190.476562 164.46875 190.757812 C 164.355469 191.039062 164.210938 191.308594 164.042969 191.5625 C 163.871094 191.8125 163.679688 192.046875 163.464844 192.265625 C 163.25 192.480469 163.015625 192.671875 162.761719 192.84375 C 162.507812 193.011719 162.238281 193.15625 161.957031 193.269531 C 161.675781 193.386719 161.386719 193.476562 161.085938 193.535156 C 160.789062 193.59375 160.484375 193.625 160.179688 193.625 Z M 160.179688 193.625 " fill-opacity="1" fill-rule="nonzero"/><g clip-path="url(#ba1bd00c44)"><path fill="#351775" d="M 267.6875 158.679688 C 266.058594 158.679688 264.429688 158.601562 262.808594 158.441406 C 261.183594 158.28125 259.574219 158.042969 257.972656 157.726562 C 256.375 157.40625 254.792969 157.011719 253.234375 156.539062 C 251.671875 156.0625 250.140625 155.515625 248.632812 154.890625 C 247.125 154.265625 245.652344 153.570312 244.214844 152.800781 C 242.777344 152.035156 241.378906 151.195312 240.023438 150.289062 C 238.667969 149.382812 237.359375 148.414062 236.097656 147.378906 C 234.839844 146.34375 233.632812 145.25 232.476562 144.097656 C 231.324219 142.945312 230.230469 141.738281 229.195312 140.476562 C 228.160156 139.214844 227.191406 137.90625 226.285156 136.550781 C 225.378906 135.195312 224.542969 133.800781 223.773438 132.359375 C 223.003906 130.921875 222.308594 129.449219 221.683594 127.941406 C 221.058594 126.4375 220.511719 124.902344 220.039062 123.34375 C 219.5625 121.78125 219.167969 120.203125 218.851562 118.601562 C 218.53125 117.003906 218.292969 115.390625 218.132812 113.769531 C 217.972656 112.144531 217.894531 110.519531 217.894531 108.886719 C 217.894531 107.257812 217.972656 105.628906 218.132812 104.007812 C 218.292969 102.382812 218.53125 100.773438 218.851562 99.171875 C 219.167969 97.574219 219.5625 95.996094 220.039062 94.433594 C 220.511719 92.871094 221.058594 91.339844 221.683594 89.832031 C 222.308594 88.324219 223.003906 86.855469 223.773438 85.414062 C 224.542969 83.976562 225.378906 82.578125 226.285156 81.222656 C 227.191406 79.867188 228.160156 78.558594 229.195312 77.300781 C 230.230469 76.039062 231.324219 74.832031 232.476562 73.679688 C 233.628906 72.523438 234.835938 71.429688 236.097656 70.398438 C 237.359375 69.363281 238.667969 68.390625 240.023438 67.484375 C 241.378906 66.578125 242.777344 65.742188 244.214844 64.972656 C 245.652344 64.203125 247.125 63.507812 248.632812 62.882812 C 250.136719 62.261719 251.671875 61.710938 253.234375 61.238281 C 254.792969 60.765625 256.375 60.371094 257.972656 60.050781 C 259.574219 59.734375 261.183594 59.492188 262.804688 59.335938 C 264.429688 59.175781 266.054688 59.09375 267.6875 59.09375 C 269.316406 59.09375 270.945312 59.175781 272.566406 59.332031 C 274.191406 59.492188 275.800781 59.734375 277.402344 60.050781 C 279 60.367188 280.582031 60.765625 282.140625 61.238281 C 283.703125 61.710938 285.234375 62.261719 286.742188 62.882812 C 288.25 63.507812 289.722656 64.203125 291.160156 64.972656 C 292.597656 65.742188 293.996094 66.578125 295.351562 67.484375 C 296.707031 68.390625 298.015625 69.363281 299.277344 70.398438 C 300.535156 71.429688 301.742188 72.523438 302.898438 73.679688 C 304.050781 74.832031 305.144531 76.039062 306.179688 77.300781 C 307.210938 78.558594 308.183594 79.867188 309.089844 81.222656 C 309.996094 82.582031 310.832031 83.976562 311.601562 85.414062 C 312.371094 86.855469 313.066406 88.328125 313.691406 89.832031 C 314.316406 91.339844 314.863281 92.875 315.335938 94.433594 C 315.808594 95.996094 316.207031 97.574219 316.523438 99.175781 C 316.84375 100.773438 317.082031 102.382812 317.242188 104.007812 C 317.402344 105.628906 317.480469 107.257812 317.480469 108.886719 C 317.480469 110.519531 317.398438 112.144531 317.234375 113.765625 C 317.074219 115.390625 316.832031 117 316.515625 118.597656 C 316.195312 120.195312 315.796875 121.777344 315.324219 123.335938 C 314.847656 124.894531 314.300781 126.429688 313.675781 127.933594 C 313.050781 129.441406 312.351562 130.910156 311.585938 132.347656 C 310.816406 133.785156 309.976562 135.183594 309.070312 136.539062 C 308.164062 137.894531 307.195312 139.199219 306.160156 140.460938 C 305.125 141.722656 304.03125 142.925781 302.878906 144.082031 C 301.726562 145.234375 300.519531 146.328125 299.261719 147.359375 C 298 148.394531 296.691406 149.367188 295.335938 150.273438 C 293.980469 151.179688 292.585938 152.015625 291.148438 152.785156 C 289.710938 153.554688 288.238281 154.25 286.734375 154.875 C 285.226562 155.5 283.695312 156.050781 282.136719 156.523438 C 280.574219 157 278.996094 157.394531 277.398438 157.714844 C 275.800781 158.035156 274.1875 158.273438 272.566406 158.4375 C 270.945312 158.597656 269.316406 158.679688 267.6875 158.679688 Z M 267.6875 68.382812 C 266.359375 68.382812 265.039062 68.445312 263.71875 68.578125 C 262.398438 68.707031 261.085938 68.902344 259.785156 69.160156 C 258.484375 69.417969 257.199219 69.742188 255.929688 70.125 C 254.660156 70.511719 253.414062 70.957031 252.1875 71.464844 C 250.960938 71.972656 249.761719 72.539062 248.59375 73.164062 C 247.421875 73.789062 246.285156 74.472656 245.183594 75.207031 C 244.082031 75.945312 243.015625 76.734375 241.992188 77.578125 C 240.964844 78.417969 239.984375 79.308594 239.046875 80.246094 C 238.105469 81.183594 237.21875 82.164062 236.375 83.191406 C 235.535156 84.21875 234.746094 85.28125 234.007812 86.382812 C 233.269531 87.488281 232.589844 88.625 231.964844 89.792969 C 231.339844 90.964844 230.773438 92.160156 230.265625 93.386719 C 229.757812 94.613281 229.308594 95.859375 228.925781 97.128906 C 228.539062 98.398438 228.21875 99.683594 227.960938 100.984375 C 227.699219 102.289062 227.507812 103.597656 227.375 104.917969 C 227.246094 106.238281 227.179688 107.5625 227.179688 108.886719 C 227.179688 110.214844 227.246094 111.539062 227.375 112.859375 C 227.507812 114.179688 227.699219 115.488281 227.960938 116.789062 C 228.21875 118.09375 228.539062 119.378906 228.925781 120.648438 C 229.308594 121.917969 229.757812 123.164062 230.265625 124.390625 C 230.773438 125.613281 231.339844 126.8125 231.964844 127.984375 C 232.589844 129.152344 233.269531 130.289062 234.007812 131.390625 C 234.746094 132.496094 235.535156 133.558594 236.375 134.585938 C 237.21875 135.609375 238.105469 136.59375 239.046875 137.53125 C 239.984375 138.46875 240.964844 139.359375 241.992188 140.199219 C 243.015625 141.042969 244.082031 141.832031 245.183594 142.566406 C 246.285156 143.304688 247.421875 143.984375 248.59375 144.613281 C 249.761719 145.238281 250.960938 145.804688 252.1875 146.3125 C 253.410156 146.820312 254.660156 147.265625 255.929688 147.648438 C 257.199219 148.035156 258.484375 148.359375 259.785156 148.617188 C 261.085938 148.875 262.398438 149.070312 263.71875 149.199219 C 265.039062 149.328125 266.359375 149.394531 267.6875 149.394531 C 269.015625 149.394531 270.335938 149.328125 271.65625 149.199219 C 272.976562 149.070312 274.289062 148.875 275.589844 148.617188 C 276.890625 148.359375 278.175781 148.035156 279.445312 147.652344 C 280.714844 147.265625 281.960938 146.820312 283.1875 146.3125 C 284.414062 145.804688 285.613281 145.238281 286.78125 144.613281 C 287.953125 143.988281 289.089844 143.304688 290.191406 142.566406 C 291.292969 141.832031 292.359375 141.042969 293.382812 140.199219 C 294.410156 139.359375 295.390625 138.46875 296.328125 137.53125 C 297.265625 136.59375 298.15625 135.609375 299 134.585938 C 299.839844 133.558594 300.628906 132.496094 301.367188 131.390625 C 302.105469 130.289062 302.785156 129.152344 303.410156 127.984375 C 304.035156 126.8125 304.601562 125.613281 305.109375 124.390625 C 305.617188 123.164062 306.0625 121.917969 306.449219 120.648438 C 306.835938 119.378906 307.15625 118.09375 307.414062 116.789062 C 307.675781 115.488281 307.867188 114.179688 308 112.859375 C 308.128906 111.539062 308.191406 110.214844 308.191406 108.886719 C 308.191406 107.5625 308.125 106.238281 307.992188 104.917969 C 307.863281 103.601562 307.667969 102.289062 307.40625 100.988281 C 307.148438 99.6875 306.824219 98.402344 306.4375 97.136719 C 306.054688 95.867188 305.605469 94.621094 305.097656 93.394531 C 304.589844 92.167969 304.023438 90.972656 303.398438 89.804688 C 302.769531 88.632812 302.089844 87.496094 301.351562 86.394531 C 300.617188 85.292969 299.828125 84.230469 298.984375 83.203125 C 298.144531 82.179688 297.253906 81.199219 296.316406 80.261719 C 295.378906 79.320312 294.398438 78.433594 293.371094 77.589844 C 292.347656 76.75 291.28125 75.960938 290.179688 75.222656 C 289.078125 74.484375 287.941406 73.804688 286.773438 73.179688 C 285.601562 72.554688 284.40625 71.988281 283.179688 71.476562 C 281.957031 70.96875 280.710938 70.523438 279.441406 70.136719 C 278.171875 69.75 276.886719 69.429688 275.585938 69.167969 C 274.285156 68.910156 272.976562 68.710938 271.65625 68.582031 C 270.335938 68.449219 269.015625 68.382812 267.6875 68.382812 Z M 267.6875 68.382812 " fill-opacity="1" fill-rule="nonzero"/></g><path fill="#351775" d="M 267.6875 129.222656 C 267.023438 129.222656 266.355469 129.191406 265.695312 129.125 C 265.03125 129.058594 264.375 128.960938 263.71875 128.832031 C 263.066406 128.703125 262.421875 128.539062 261.785156 128.347656 C 261.148438 128.152344 260.519531 127.929688 259.90625 127.675781 C 259.289062 127.421875 258.6875 127.136719 258.101562 126.820312 C 257.515625 126.507812 256.945312 126.164062 256.390625 125.796875 C 255.835938 125.425781 255.300781 125.03125 254.789062 124.605469 C 254.273438 124.183594 253.78125 123.738281 253.308594 123.265625 C 252.839844 122.796875 252.390625 122.304688 251.96875 121.789062 C 251.546875 121.273438 251.148438 120.738281 250.78125 120.1875 C 250.410156 119.632812 250.066406 119.0625 249.753906 118.472656 C 249.441406 117.886719 249.15625 117.285156 248.902344 116.671875 C 248.644531 116.054688 248.421875 115.429688 248.230469 114.792969 C 248.035156 114.152344 247.875 113.507812 247.742188 112.855469 C 247.613281 112.203125 247.515625 111.542969 247.449219 110.882812 C 247.386719 110.21875 247.351562 109.554688 247.351562 108.886719 C 247.351562 108.222656 247.386719 107.558594 247.449219 106.894531 C 247.515625 106.234375 247.613281 105.574219 247.742188 104.921875 C 247.875 104.269531 248.035156 103.621094 248.230469 102.984375 C 248.421875 102.347656 248.644531 101.722656 248.902344 101.105469 C 249.15625 100.492188 249.441406 99.890625 249.753906 99.304688 C 250.066406 98.714844 250.410156 98.144531 250.78125 97.589844 C 251.148438 97.039062 251.546875 96.503906 251.96875 95.988281 C 252.390625 95.472656 252.839844 94.980469 253.308594 94.507812 C 253.78125 94.039062 254.273438 93.59375 254.789062 93.167969 C 255.300781 92.746094 255.835938 92.351562 256.390625 91.980469 C 256.945312 91.609375 257.515625 91.269531 258.101562 90.953125 C 258.6875 90.640625 259.289062 90.355469 259.90625 90.101562 C 260.519531 89.847656 261.148438 89.621094 261.785156 89.429688 C 262.421875 89.234375 263.066406 89.074219 263.71875 88.945312 C 264.375 88.816406 265.03125 88.71875 265.695312 88.652344 C 266.355469 88.585938 267.023438 88.554688 267.6875 88.554688 C 268.355469 88.554688 269.019531 88.585938 269.679688 88.652344 C 270.34375 88.71875 271 88.816406 271.65625 88.945312 C 272.308594 89.074219 272.953125 89.234375 273.589844 89.429688 C 274.226562 89.621094 274.855469 89.847656 275.46875 90.101562 C 276.085938 90.355469 276.6875 90.640625 277.273438 90.953125 C 277.859375 91.269531 278.429688 91.609375 278.984375 91.980469 C 279.539062 92.351562 280.074219 92.746094 280.585938 93.167969 C 281.101562 93.59375 281.59375 94.039062 282.066406 94.507812 C 282.539062 94.980469 282.984375 95.472656 283.40625 95.988281 C 283.828125 96.503906 284.226562 97.039062 284.59375 97.589844 C 284.964844 98.144531 285.308594 98.714844 285.621094 99.304688 C 285.933594 99.890625 286.21875 100.492188 286.472656 101.105469 C 286.730469 101.722656 286.953125 102.347656 287.148438 102.984375 C 287.339844 103.621094 287.5 104.269531 287.632812 104.921875 C 287.761719 105.574219 287.859375 106.234375 287.925781 106.894531 C 287.988281 107.558594 288.023438 108.222656 288.023438 108.886719 C 288.019531 109.554688 287.988281 110.21875 287.921875 110.878906 C 287.855469 111.542969 287.757812 112.199219 287.628906 112.855469 C 287.496094 113.507812 287.335938 114.152344 287.140625 114.789062 C 286.945312 115.425781 286.722656 116.050781 286.46875 116.664062 C 286.210938 117.28125 285.925781 117.882812 285.613281 118.46875 C 285.300781 119.054688 284.957031 119.625 284.585938 120.179688 C 284.21875 120.734375 283.820312 121.265625 283.398438 121.78125 C 282.976562 122.296875 282.53125 122.789062 282.058594 123.257812 C 281.585938 123.730469 281.09375 124.175781 280.582031 124.597656 C 280.066406 125.023438 279.53125 125.417969 278.980469 125.789062 C 278.425781 126.15625 277.855469 126.5 277.269531 126.8125 C 276.679688 127.128906 276.082031 127.414062 275.464844 127.667969 C 274.851562 127.921875 274.222656 128.148438 273.585938 128.339844 C 272.949219 128.535156 272.304688 128.699219 271.652344 128.828125 C 271 128.957031 270.34375 129.058594 269.679688 129.121094 C 269.015625 129.1875 268.351562 129.222656 267.6875 129.222656 Z M 267.6875 97.839844 C 266.960938 97.839844 266.242188 97.910156 265.53125 98.054688 C 264.820312 98.195312 264.128906 98.40625 263.460938 98.683594 C 262.789062 98.960938 262.152344 99.300781 261.550781 99.703125 C 260.945312 100.105469 260.390625 100.5625 259.875 101.078125 C 259.363281 101.589844 258.90625 102.148438 258.503906 102.75 C 258.097656 103.355469 257.757812 103.992188 257.480469 104.660156 C 257.203125 105.332031 256.996094 106.023438 256.851562 106.734375 C 256.710938 107.445312 256.640625 108.164062 256.640625 108.886719 C 256.640625 109.613281 256.710938 110.332031 256.851562 111.042969 C 256.996094 111.753906 257.203125 112.445312 257.480469 113.117188 C 257.757812 113.785156 258.097656 114.421875 258.503906 115.027344 C 258.90625 115.628906 259.363281 116.1875 259.875 116.699219 C 260.390625 117.210938 260.945312 117.671875 261.550781 118.074219 C 262.152344 118.476562 262.789062 118.816406 263.460938 119.09375 C 264.128906 119.371094 264.820312 119.582031 265.53125 119.722656 C 266.242188 119.863281 266.960938 119.933594 267.6875 119.933594 C 268.414062 119.933594 269.132812 119.863281 269.84375 119.722656 C 270.554688 119.582031 271.246094 119.371094 271.914062 119.09375 C 272.585938 118.816406 273.222656 118.476562 273.824219 118.074219 C 274.429688 117.671875 274.984375 117.210938 275.5 116.699219 C 276.011719 116.1875 276.46875 115.628906 276.871094 115.027344 C 277.277344 114.421875 277.617188 113.785156 277.894531 113.117188 C 278.171875 112.445312 278.382812 111.753906 278.523438 111.042969 C 278.664062 110.332031 278.734375 109.613281 278.734375 108.886719 C 278.734375 108.164062 278.664062 107.445312 278.519531 106.734375 C 278.378906 106.023438 278.167969 105.332031 277.890625 104.664062 C 277.613281 103.992188 277.273438 103.355469 276.867188 102.753906 C 276.464844 102.152344 276.007812 101.59375 275.496094 101.082031 C 274.984375 100.566406 274.425781 100.109375 273.820312 99.707031 C 273.21875 99.304688 272.582031 98.964844 271.914062 98.6875 C 271.242188 98.40625 270.554688 98.199219 269.84375 98.054688 C 269.128906 97.914062 268.414062 97.84375 267.6875 97.839844 Z M 267.6875 97.839844 " fill-opacity="1" fill-rule="nonzero"/><path fill="#351775" d="M 267.6875 97.839844 C 267.382812 97.839844 267.082031 97.8125 266.78125 97.753906 C 266.480469 97.691406 266.191406 97.605469 265.910156 97.488281 C 265.628906 97.371094 265.359375 97.230469 265.105469 97.058594 C 264.851562 96.890625 264.617188 96.699219 264.402344 96.480469 C 264.1875 96.265625 263.996094 96.03125 263.824219 95.777344 C 263.65625 95.523438 263.511719 95.257812 263.398438 94.976562 C 263.28125 94.691406 263.191406 94.402344 263.132812 94.105469 C 263.074219 93.804688 263.042969 93.503906 263.042969 93.199219 L 263.042969 84.699219 C 263.042969 84.394531 263.074219 84.09375 263.132812 83.792969 C 263.191406 83.496094 263.28125 83.203125 263.398438 82.921875 C 263.515625 82.640625 263.65625 82.375 263.828125 82.121094 C 263.996094 81.867188 264.1875 81.632812 264.402344 81.414062 C 264.621094 81.199219 264.855469 81.007812 265.109375 80.839844 C 265.359375 80.667969 265.628906 80.527344 265.910156 80.410156 C 266.191406 80.292969 266.484375 80.203125 266.78125 80.144531 C 267.082031 80.085938 267.382812 80.054688 267.6875 80.054688 C 267.992188 80.054688 268.292969 80.085938 268.59375 80.144531 C 268.894531 80.203125 269.183594 80.292969 269.464844 80.410156 C 269.746094 80.527344 270.015625 80.667969 270.265625 80.839844 C 270.519531 81.007812 270.753906 81.199219 270.972656 81.414062 C 271.1875 81.632812 271.378906 81.867188 271.546875 82.121094 C 271.71875 82.375 271.859375 82.640625 271.976562 82.921875 C 272.09375 83.203125 272.183594 83.496094 272.242188 83.792969 C 272.300781 84.09375 272.332031 84.394531 272.332031 84.699219 L 272.332031 93.199219 C 272.332031 93.503906 272.300781 93.804688 272.242188 94.101562 C 272.183594 94.402344 272.09375 94.691406 271.976562 94.976562 C 271.859375 95.257812 271.71875 95.523438 271.546875 95.777344 C 271.378906 96.03125 271.1875 96.265625 270.972656 96.480469 C 270.753906 96.695312 270.519531 96.890625 270.265625 97.058594 C 270.015625 97.226562 269.746094 97.371094 269.464844 97.488281 C 269.183594 97.605469 268.894531 97.691406 268.59375 97.753906 C 268.292969 97.8125 267.992188 97.839844 267.6875 97.839844 Z M 267.6875 97.839844 " fill-opacity="1" fill-rule="nonzero"/><path fill="#351775" d="M 256.59375 102.433594 C 255.3125 102.4375 254.21875 101.984375 253.3125 101.074219 L 247.304688 95.066406 C 247.082031 94.851562 246.882812 94.617188 246.710938 94.363281 C 246.535156 94.109375 246.386719 93.839844 246.265625 93.558594 C 246.144531 93.277344 246.054688 92.984375 245.992188 92.683594 C 245.929688 92.378906 245.894531 92.074219 245.894531 91.769531 C 245.890625 91.460938 245.917969 91.15625 245.976562 90.851562 C 246.035156 90.550781 246.121094 90.257812 246.238281 89.972656 C 246.355469 89.6875 246.5 89.417969 246.671875 89.160156 C 246.839844 88.902344 247.035156 88.667969 247.253906 88.449219 C 247.46875 88.230469 247.707031 88.035156 247.964844 87.867188 C 248.21875 87.695312 248.492188 87.550781 248.777344 87.433594 C 249.058594 87.320312 249.355469 87.230469 249.65625 87.171875 C 249.957031 87.113281 250.265625 87.085938 250.570312 87.089844 C 250.878906 87.089844 251.183594 87.125 251.484375 87.1875 C 251.785156 87.25 252.078125 87.339844 252.363281 87.460938 C 252.644531 87.582031 252.914062 87.730469 253.167969 87.90625 C 253.421875 88.082031 253.65625 88.277344 253.871094 88.5 L 259.878906 94.507812 C 260.203125 94.832031 260.472656 95.199219 260.691406 95.601562 C 260.90625 96.007812 261.058594 96.433594 261.148438 96.886719 C 261.238281 97.335938 261.261719 97.789062 261.214844 98.246094 C 261.171875 98.703125 261.058594 99.144531 260.882812 99.566406 C 260.707031 99.992188 260.476562 100.382812 260.183594 100.738281 C 259.894531 101.09375 259.554688 101.398438 259.175781 101.652344 C 258.792969 101.90625 258.382812 102.101562 257.941406 102.234375 C 257.503906 102.367188 257.054688 102.433594 256.59375 102.433594 Z M 256.59375 102.433594 " fill-opacity="1" fill-rule="nonzero"/><path fill="#351775" d="M 252 113.53125 L 243.5 113.53125 C 243.195312 113.53125 242.894531 113.503906 242.59375 113.441406 C 242.296875 113.382812 242.003906 113.296875 241.722656 113.179688 C 241.441406 113.0625 241.171875 112.917969 240.921875 112.75 C 240.667969 112.582031 240.433594 112.386719 240.214844 112.171875 C 240 111.957031 239.808594 111.722656 239.640625 111.46875 C 239.46875 111.214844 239.328125 110.945312 239.210938 110.664062 C 239.09375 110.382812 239.003906 110.09375 238.945312 109.792969 C 238.886719 109.496094 238.855469 109.191406 238.855469 108.886719 C 238.855469 108.582031 238.886719 108.28125 238.945312 107.984375 C 239.003906 107.683594 239.09375 107.394531 239.210938 107.109375 C 239.328125 106.828125 239.46875 106.5625 239.640625 106.308594 C 239.808594 106.054688 240 105.820312 240.214844 105.605469 C 240.433594 105.390625 240.667969 105.195312 240.921875 105.027344 C 241.171875 104.859375 241.441406 104.714844 241.722656 104.597656 C 242.003906 104.480469 242.296875 104.394531 242.59375 104.332031 C 242.894531 104.273438 243.195312 104.246094 243.5 104.246094 L 252 104.246094 C 252.304688 104.246094 252.605469 104.273438 252.902344 104.332031 C 253.203125 104.394531 253.492188 104.480469 253.773438 104.597656 C 254.058594 104.714844 254.324219 104.859375 254.578125 105.027344 C 254.832031 105.195312 255.066406 105.390625 255.28125 105.605469 C 255.496094 105.820312 255.691406 106.054688 255.859375 106.308594 C 256.027344 106.5625 256.171875 106.828125 256.289062 107.109375 C 256.40625 107.394531 256.492188 107.683594 256.554688 107.984375 C 256.613281 108.28125 256.640625 108.582031 256.640625 108.886719 C 256.640625 109.191406 256.613281 109.496094 256.554688 109.792969 C 256.492188 110.09375 256.40625 110.382812 256.289062 110.664062 C 256.171875 110.945312 256.027344 111.214844 255.859375 111.46875 C 255.691406 111.722656 255.496094 111.957031 255.28125 112.171875 C 255.066406 112.386719 254.832031 112.582031 254.578125 112.75 C 254.324219 112.917969 254.058594 113.0625 253.773438 113.179688 C 253.492188 113.296875 253.203125 113.382812 252.902344 113.441406 C 252.605469 113.503906 252.304688 113.53125 252 113.53125 Z M 252 113.53125 " fill-opacity="1" fill-rule="nonzero"/><path fill="#351775" d="M 250.585938 130.636719 C 250.125 130.636719 249.675781 130.570312 249.238281 130.4375 C 248.800781 130.304688 248.386719 130.109375 248.007812 129.855469 C 247.625 129.597656 247.289062 129.292969 246.996094 128.9375 C 246.707031 128.585938 246.472656 128.195312 246.296875 127.769531 C 246.121094 127.347656 246.011719 126.90625 245.964844 126.449219 C 245.921875 125.992188 245.941406 125.539062 246.03125 125.089844 C 246.121094 124.636719 246.273438 124.210938 246.492188 123.804688 C 246.707031 123.398438 246.976562 123.035156 247.304688 122.710938 L 253.3125 116.699219 C 253.527344 116.488281 253.765625 116.300781 254.015625 116.136719 C 254.269531 115.972656 254.535156 115.832031 254.816406 115.71875 C 255.097656 115.609375 255.386719 115.523438 255.683594 115.46875 C 255.980469 115.410156 256.277344 115.382812 256.582031 115.386719 C 256.882812 115.390625 257.179688 115.421875 257.476562 115.480469 C 257.773438 115.542969 258.058594 115.628906 258.339844 115.746094 C 258.617188 115.863281 258.882812 116.007812 259.132812 116.175781 C 259.382812 116.34375 259.617188 116.535156 259.828125 116.746094 C 260.042969 116.960938 260.234375 117.191406 260.402344 117.445312 C 260.570312 117.695312 260.710938 117.957031 260.828125 118.238281 C 260.945312 118.515625 261.035156 118.804688 261.09375 119.097656 C 261.15625 119.394531 261.1875 119.695312 261.1875 119.996094 C 261.191406 120.296875 261.164062 120.597656 261.109375 120.894531 C 261.050781 121.191406 260.96875 121.480469 260.855469 121.757812 C 260.742188 122.039062 260.605469 122.304688 260.441406 122.558594 C 260.277344 122.8125 260.089844 123.046875 259.878906 123.265625 L 253.871094 129.277344 C 252.964844 130.1875 251.867188 130.640625 250.585938 130.636719 Z M 250.585938 130.636719 " fill-opacity="1" fill-rule="nonzero"/><path fill="#351775" d="M 267.6875 137.722656 C 267.382812 137.722656 267.082031 137.691406 266.78125 137.632812 C 266.480469 137.574219 266.191406 137.484375 265.910156 137.367188 C 265.628906 137.25 265.359375 137.109375 265.105469 136.9375 C 264.851562 136.769531 264.617188 136.578125 264.402344 136.363281 C 264.1875 136.144531 263.996094 135.910156 263.824219 135.65625 C 263.65625 135.40625 263.511719 135.136719 263.398438 134.855469 C 263.28125 134.574219 263.191406 134.28125 263.132812 133.984375 C 263.074219 133.683594 263.042969 133.382812 263.042969 133.078125 L 263.042969 124.578125 C 263.042969 124.273438 263.074219 123.972656 263.132812 123.671875 C 263.191406 123.375 263.28125 123.082031 263.398438 122.800781 C 263.515625 122.519531 263.65625 122.253906 263.828125 122 C 263.996094 121.746094 264.1875 121.511719 264.402344 121.296875 C 264.621094 121.078125 264.855469 120.886719 265.109375 120.71875 C 265.359375 120.546875 265.628906 120.40625 265.910156 120.289062 C 266.191406 120.171875 266.484375 120.085938 266.78125 120.023438 C 267.082031 119.964844 267.382812 119.933594 267.6875 119.933594 C 267.992188 119.933594 268.292969 119.964844 268.59375 120.023438 C 268.894531 120.085938 269.183594 120.171875 269.464844 120.289062 C 269.746094 120.40625 270.015625 120.546875 270.265625 120.71875 C 270.519531 120.886719 270.753906 121.078125 270.972656 121.296875 C 271.1875 121.511719 271.378906 121.746094 271.546875 122 C 271.71875 122.253906 271.859375 122.519531 271.976562 122.800781 C 272.09375 123.082031 272.183594 123.375 272.242188 123.671875 C 272.300781 123.972656 272.332031 124.273438 272.332031 124.578125 L 272.332031 133.078125 C 272.332031 133.382812 272.300781 133.683594 272.242188 133.984375 C 272.183594 134.28125 272.09375 134.574219 271.980469 134.855469 C 271.863281 135.136719 271.71875 135.402344 271.550781 135.65625 C 271.378906 135.910156 271.1875 136.144531 270.972656 136.363281 C 270.757812 136.578125 270.523438 136.769531 270.269531 136.9375 C 270.015625 137.109375 269.746094 137.25 269.464844 137.367188 C 269.183594 137.484375 268.894531 137.574219 268.59375 137.632812 C 268.292969 137.691406 267.992188 137.722656 267.6875 137.722656 Z M 267.6875 137.722656 " fill-opacity="1" fill-rule="nonzero"/><path fill="#351775" d="M 284.792969 130.636719 C 283.511719 130.640625 282.414062 130.1875 281.511719 129.277344 L 275.5 123.265625 C 275.289062 123.046875 275.105469 122.8125 274.9375 122.558594 C 274.773438 122.304688 274.636719 122.039062 274.523438 121.757812 C 274.410156 121.480469 274.328125 121.191406 274.269531 120.894531 C 274.214844 120.597656 274.1875 120.296875 274.191406 119.996094 C 274.191406 119.695312 274.222656 119.394531 274.285156 119.097656 C 274.34375 118.804688 274.433594 118.515625 274.550781 118.238281 C 274.667969 117.957031 274.808594 117.695312 274.976562 117.441406 C 275.144531 117.191406 275.335938 116.960938 275.550781 116.746094 C 275.765625 116.535156 275.996094 116.34375 276.246094 116.175781 C 276.496094 116.007812 276.761719 115.863281 277.039062 115.746094 C 277.320312 115.628906 277.605469 115.542969 277.902344 115.480469 C 278.199219 115.421875 278.496094 115.390625 278.796875 115.386719 C 279.101562 115.382812 279.398438 115.410156 279.695312 115.46875 C 279.992188 115.523438 280.28125 115.609375 280.5625 115.71875 C 280.84375 115.832031 281.109375 115.972656 281.363281 116.136719 C 281.617188 116.300781 281.851562 116.488281 282.066406 116.699219 L 288.078125 122.710938 C 288.402344 123.035156 288.671875 123.398438 288.886719 123.804688 C 289.105469 124.210938 289.257812 124.636719 289.347656 125.089844 C 289.4375 125.539062 289.457031 125.992188 289.414062 126.449219 C 289.367188 126.90625 289.257812 127.347656 289.082031 127.769531 C 288.90625 128.195312 288.671875 128.585938 288.382812 128.941406 C 288.089844 129.292969 287.753906 129.597656 287.371094 129.855469 C 286.992188 130.109375 286.582031 130.304688 286.140625 130.4375 C 285.703125 130.570312 285.253906 130.636719 284.792969 130.636719 Z M 284.792969 130.636719 " fill-opacity="1" fill-rule="nonzero"/><path fill="#351775" d="M 291.875 113.53125 L 283.378906 113.53125 C 283.074219 113.53125 282.773438 113.503906 282.472656 113.441406 C 282.171875 113.382812 281.882812 113.296875 281.601562 113.179688 C 281.320312 113.0625 281.050781 112.917969 280.796875 112.75 C 280.546875 112.582031 280.308594 112.386719 280.09375 112.171875 C 279.878906 111.957031 279.6875 111.722656 279.515625 111.46875 C 279.347656 111.214844 279.203125 110.945312 279.089844 110.664062 C 278.972656 110.382812 278.882812 110.09375 278.824219 109.792969 C 278.765625 109.496094 278.734375 109.191406 278.734375 108.886719 C 278.734375 108.582031 278.765625 108.28125 278.824219 107.984375 C 278.882812 107.683594 278.972656 107.394531 279.089844 107.109375 C 279.203125 106.828125 279.347656 106.5625 279.515625 106.308594 C 279.6875 106.054688 279.878906 105.820312 280.09375 105.605469 C 280.308594 105.390625 280.546875 105.195312 280.796875 105.027344 C 281.050781 104.859375 281.320312 104.714844 281.601562 104.597656 C 281.882812 104.480469 282.171875 104.394531 282.472656 104.332031 C 282.773438 104.273438 283.074219 104.246094 283.378906 104.246094 L 291.875 104.246094 C 292.179688 104.246094 292.484375 104.273438 292.78125 104.332031 C 293.082031 104.394531 293.371094 104.480469 293.652344 104.597656 C 293.933594 104.714844 294.203125 104.859375 294.457031 105.027344 C 294.710938 105.195312 294.945312 105.390625 295.160156 105.605469 C 295.375 105.820312 295.566406 106.054688 295.738281 106.308594 C 295.90625 106.5625 296.050781 106.828125 296.167969 107.109375 C 296.285156 107.394531 296.371094 107.683594 296.429688 107.984375 C 296.492188 108.28125 296.519531 108.582031 296.519531 108.886719 C 296.519531 109.191406 296.492188 109.496094 296.429688 109.792969 C 296.371094 110.09375 296.285156 110.382812 296.167969 110.664062 C 296.050781 110.945312 295.90625 111.214844 295.738281 111.46875 C 295.566406 111.722656 295.375 111.957031 295.160156 112.171875 C 294.945312 112.386719 294.710938 112.582031 294.457031 112.75 C 294.203125 112.917969 293.933594 113.0625 293.652344 113.179688 C 293.371094 113.296875 293.082031 113.382812 292.78125 113.441406 C 292.484375 113.503906 292.179688 113.53125 291.875 113.53125 Z M 291.875 113.53125 " fill-opacity="1" fill-rule="nonzero"/><path fill="#351775" d="M 278.785156 102.433594 C 278.324219 102.433594 277.875 102.367188 277.4375 102.234375 C 276.996094 102.101562 276.585938 101.90625 276.203125 101.652344 C 275.824219 101.398438 275.488281 101.09375 275.195312 100.738281 C 274.902344 100.382812 274.671875 99.992188 274.496094 99.566406 C 274.320312 99.144531 274.210938 98.703125 274.164062 98.246094 C 274.117188 97.789062 274.140625 97.335938 274.230469 96.886719 C 274.320312 96.433594 274.472656 96.007812 274.691406 95.601562 C 274.90625 95.199219 275.175781 94.832031 275.5 94.507812 L 281.511719 88.5 C 281.722656 88.277344 281.957031 88.082031 282.210938 87.910156 C 282.464844 87.734375 282.734375 87.589844 283.015625 87.46875 C 283.300781 87.347656 283.59375 87.257812 283.894531 87.195312 C 284.195312 87.132812 284.496094 87.097656 284.804688 87.097656 C 285.113281 87.09375 285.417969 87.125 285.71875 87.183594 C 286.019531 87.242188 286.3125 87.328125 286.597656 87.445312 C 286.882812 87.5625 287.152344 87.707031 287.410156 87.875 C 287.664062 88.046875 287.902344 88.238281 288.117188 88.457031 C 288.335938 88.675781 288.53125 88.910156 288.699219 89.167969 C 288.871094 89.421875 289.015625 89.691406 289.128906 89.976562 C 289.246094 90.261719 289.335938 90.554688 289.394531 90.855469 C 289.453125 91.160156 289.480469 91.460938 289.476562 91.769531 C 289.476562 92.078125 289.445312 92.382812 289.382812 92.683594 C 289.320312 92.984375 289.226562 93.277344 289.109375 93.558594 C 288.988281 93.839844 288.839844 94.109375 288.667969 94.363281 C 288.492188 94.617188 288.296875 94.851562 288.078125 95.066406 L 282.066406 101.074219 C 281.160156 101.984375 280.066406 102.4375 278.785156 102.433594 Z M 278.785156 102.433594 " fill-opacity="1" fill-rule="nonzero"/><path fill="#351775" d="M 259.515625 190.179688 L 220.445312 190.179688 C 220.140625 190.179688 219.839844 190.152344 219.542969 190.09375 C 219.242188 190.03125 218.953125 189.945312 218.671875 189.828125 C 218.386719 189.710938 218.121094 189.566406 217.867188 189.398438 C 217.613281 189.230469 217.378906 189.035156 217.164062 188.820312 C 216.949219 188.605469 216.753906 188.371094 216.585938 188.117188 C 216.417969 187.863281 216.273438 187.597656 216.15625 187.316406 C 216.039062 187.03125 215.953125 186.742188 215.890625 186.441406 C 215.832031 186.144531 215.804688 185.84375 215.804688 185.539062 C 215.804688 185.234375 215.832031 184.929688 215.890625 184.632812 C 215.953125 184.332031 216.039062 184.042969 216.15625 183.761719 C 216.273438 183.480469 216.417969 183.210938 216.585938 182.957031 C 216.753906 182.703125 216.949219 182.46875 217.164062 182.253906 C 217.378906 182.039062 217.613281 181.84375 217.867188 181.675781 C 218.121094 181.507812 218.386719 181.363281 218.671875 181.246094 C 218.953125 181.128906 219.242188 181.042969 219.542969 180.984375 C 219.839844 180.921875 220.140625 180.894531 220.445312 180.894531 L 259.515625 180.894531 C 259.820312 180.894531 260.121094 180.921875 260.421875 180.984375 C 260.71875 181.042969 261.011719 181.128906 261.292969 181.246094 C 261.574219 181.363281 261.84375 181.507812 262.09375 181.675781 C 262.347656 181.84375 262.582031 182.039062 262.800781 182.253906 C 263.015625 182.46875 263.207031 182.703125 263.375 182.957031 C 263.546875 183.210938 263.6875 183.480469 263.804688 183.761719 C 263.921875 184.042969 264.011719 184.332031 264.070312 184.632812 C 264.128906 184.929688 264.160156 185.234375 264.160156 185.539062 C 264.160156 185.84375 264.128906 186.144531 264.070312 186.441406 C 264.011719 186.742188 263.921875 187.03125 263.804688 187.316406 C 263.6875 187.597656 263.546875 187.863281 263.375 188.117188 C 263.207031 188.371094 263.015625 188.605469 262.800781 188.820312 C 262.582031 189.035156 262.347656 189.230469 262.09375 189.398438 C 261.84375 189.566406 261.574219 189.710938 261.292969 189.828125 C 261.011719 189.945312 260.71875 190.03125 260.421875 190.09375 C 260.121094 190.152344 259.820312 190.179688 259.515625 190.179688 Z M 259.515625 190.179688 " fill-opacity="1" fill-rule="nonzero"/><path fill="#351775" d="M 241.570312 207.949219 L 220.445312 207.949219 C 220.140625 207.949219 219.839844 207.917969 219.542969 207.859375 C 219.242188 207.800781 218.953125 207.710938 218.671875 207.59375 C 218.386719 207.480469 218.121094 207.335938 217.867188 207.167969 C 217.613281 206.996094 217.378906 206.804688 217.164062 206.589844 C 216.949219 206.375 216.753906 206.140625 216.585938 205.886719 C 216.417969 205.632812 216.273438 205.363281 216.15625 205.082031 C 216.039062 204.800781 215.953125 204.511719 215.890625 204.210938 C 215.832031 203.914062 215.804688 203.609375 215.804688 203.304688 C 215.804688 203 215.832031 202.699219 215.890625 202.398438 C 215.953125 202.101562 216.039062 201.808594 216.15625 201.527344 C 216.273438 201.246094 216.417969 200.980469 216.585938 200.726562 C 216.753906 200.472656 216.949219 200.238281 217.164062 200.023438 C 217.378906 199.804688 217.613281 199.613281 217.867188 199.445312 C 218.121094 199.273438 218.386719 199.132812 218.671875 199.015625 C 218.953125 198.898438 219.242188 198.808594 219.542969 198.75 C 219.839844 198.691406 220.140625 198.660156 220.445312 198.660156 L 241.570312 198.660156 C 241.875 198.660156 242.175781 198.691406 242.476562 198.75 C 242.777344 198.808594 243.066406 198.898438 243.347656 199.015625 C 243.628906 199.132812 243.898438 199.273438 244.152344 199.445312 C 244.402344 199.613281 244.640625 199.804688 244.855469 200.023438 C 245.070312 200.238281 245.261719 200.472656 245.433594 200.726562 C 245.601562 200.980469 245.746094 201.246094 245.859375 201.527344 C 245.976562 201.808594 246.066406 202.101562 246.125 202.398438 C 246.183594 202.699219 246.214844 203 246.214844 203.304688 C 246.214844 203.609375 246.183594 203.914062 246.125 204.210938 C 246.066406 204.511719 245.976562 204.800781 245.859375 205.082031 C 245.746094 205.363281 245.601562 205.632812 245.433594 205.886719 C 245.261719 206.140625 245.070312 206.375 244.855469 206.589844 C 244.640625 206.804688 244.402344 206.996094 244.152344 207.167969 C 243.898438 207.335938 243.628906 207.480469 243.347656 207.59375 C 243.066406 207.710938 242.777344 207.800781 242.476562 207.859375 C 242.175781 207.917969 241.875 207.949219 241.570312 207.949219 Z M 241.570312 207.949219 " fill-opacity="1" fill-rule="nonzero"/></svg>