<svg xmlns="http://www.w3.org/2000/svg" xmlns:xlink="http://www.w3.org/1999/xlink" width="500" zoomAndPan="magnify" viewBox="0 0 375 374.999991" height="500" preserveAspectRatio="xMidYMid meet" version="1.0"><defs><g/><clipPath id="1a5a11fc2f"><path d="M 123.382812 197.160156 L 235.882812 197.160156 L 235.882812 309.660156 L 123.382812 309.660156 Z M 123.382812 197.160156 " clip-rule="nonzero"/></clipPath><clipPath id="9d8812c364"><path d="M 179.632812 197.160156 C 148.570312 197.160156 123.382812 222.34375 123.382812 253.410156 C 123.382812 284.476562 148.570312 309.660156 179.632812 309.660156 C 210.699219 309.660156 235.882812 284.476562 235.882812 253.410156 C 235.882812 222.34375 210.699219 197.160156 179.632812 197.160156 Z M 179.632812 197.160156 " clip-rule="nonzero"/></clipPath><clipPath id="435a91becc"><path d="M 0.382812 0.160156 L 112.882812 0.160156 L 112.882812 112.660156 L 0.382812 112.660156 Z M 0.382812 0.160156 " clip-rule="nonzero"/></clipPath><clipPath id="802df88694"><path d="M 56.632812 0.160156 C 25.570312 0.160156 0.382812 25.34375 0.382812 56.410156 C 0.382812 87.476562 25.570312 112.660156 56.632812 112.660156 C 87.699219 112.660156 112.882812 87.476562 112.882812 56.410156 C 112.882812 25.34375 87.699219 0.160156 56.632812 0.160156 Z M 56.632812 0.160156 " clip-rule="nonzero"/></clipPath><clipPath id="4f7397019b"><rect x="0" width="113" y="0" height="113"/></clipPath><clipPath id="b1a8bdf451"><path d="M 35.382812 107.066406 L 242.382812 107.066406 L 242.382812 317.816406 L 35.382812 317.816406 Z M 35.382812 107.066406 " clip-rule="nonzero"/></clipPath><clipPath id="1638b2ba73"><path d="M 115.320312 191.578125 L 242.308594 191.578125 L 242.308594 318.074219 L 115.320312 318.074219 Z M 115.320312 191.578125 " clip-rule="nonzero"/></clipPath><clipPath id="31ee776bc6"><path d="M 178.746094 191.578125 C 143.71875 191.578125 115.320312 219.894531 115.320312 254.824219 C 115.320312 289.757812 143.71875 318.074219 178.746094 318.074219 C 213.773438 318.074219 242.171875 289.757812 242.171875 254.824219 C 242.171875 219.894531 213.773438 191.578125 178.746094 191.578125 Z M 178.746094 191.578125 " clip-rule="nonzero"/></clipPath><clipPath id="b3a8545fe1"><path d="M 0.320312 0.578125 L 127.308594 0.578125 L 127.308594 127.074219 L 0.320312 127.074219 Z M 0.320312 0.578125 " clip-rule="nonzero"/></clipPath><clipPath id="907decf38a"><path d="M 63.746094 0.578125 C 28.71875 0.578125 0.320312 28.894531 0.320312 63.824219 C 0.320312 98.757812 28.71875 127.074219 63.746094 127.074219 C 98.773438 127.074219 127.171875 98.757812 127.171875 63.824219 C 127.171875 28.894531 98.773438 0.578125 63.746094 0.578125 Z M 63.746094 0.578125 " clip-rule="nonzero"/></clipPath><clipPath id="3c1b4850d0"><rect x="0" width="128" y="0" height="128"/></clipPath><clipPath id="0b2b199f43"><path d="M 115.320312 191.582031 L 242.070312 191.582031 L 242.070312 318.136719 L 115.320312 318.136719 Z M 115.320312 191.582031 " clip-rule="nonzero"/></clipPath><clipPath id="e01130948b"><path d="M 178.742188 191.582031 C 143.714844 191.582031 115.320312 219.894531 115.320312 254.824219 C 115.320312 289.753906 143.714844 318.066406 178.742188 318.066406 C 213.769531 318.066406 242.164062 289.753906 242.164062 254.824219 C 242.164062 219.894531 213.769531 191.582031 178.742188 191.582031 Z M 178.742188 191.582031 " clip-rule="nonzero"/></clipPath><clipPath id="36aaabfcf4"><path d="M 16.128906 79.597656 L 179.632812 79.597656 L 179.632812 243.105469 L 16.128906 243.105469 Z M 16.128906 79.597656 " clip-rule="nonzero"/></clipPath><clipPath id="063475788d"><path d="M 97.882812 79.597656 C 52.730469 79.597656 16.128906 116.199219 16.128906 161.351562 C 16.128906 206.503906 52.730469 243.105469 97.882812 243.105469 C 143.03125 243.105469 179.632812 206.503906 179.632812 161.351562 C 179.632812 116.199219 143.03125 79.597656 97.882812 79.597656 Z M 97.882812 79.597656 " clip-rule="nonzero"/></clipPath><clipPath id="5f0c1b62f1"><path d="M 0.128906 0.597656 L 163.632812 0.597656 L 163.632812 164.105469 L 0.128906 164.105469 Z M 0.128906 0.597656 " clip-rule="nonzero"/></clipPath><clipPath id="ec573db9c2"><path d="M 81.882812 0.597656 C 36.730469 0.597656 0.128906 37.199219 0.128906 82.351562 C 0.128906 127.503906 36.730469 164.105469 81.882812 164.105469 C 127.03125 164.105469 163.632812 127.503906 163.632812 82.351562 C 163.632812 37.199219 127.03125 0.597656 81.882812 0.597656 Z M 81.882812 0.597656 " clip-rule="nonzero"/></clipPath><clipPath id="f07916ef9c"><rect x="0" width="164" y="0" height="165"/></clipPath><clipPath id="6752fbef65"><path d="M 16.128906 79.597656 L 179.628906 79.597656 L 179.628906 243.097656 L 16.128906 243.097656 Z M 16.128906 79.597656 " clip-rule="nonzero"/></clipPath><clipPath id="cb385c81bf"><path d="M 97.878906 79.597656 C 52.730469 79.597656 16.128906 116.199219 16.128906 161.347656 C 16.128906 206.496094 52.730469 243.097656 97.878906 243.097656 C 143.027344 243.097656 179.628906 206.496094 179.628906 161.347656 C 179.628906 116.199219 143.027344 79.597656 97.878906 79.597656 Z M 97.878906 79.597656 " clip-rule="nonzero"/></clipPath><clipPath id="1749d18402"><path d="M 45 125.746094 L 151 125.746094 L 151 196.996094 L 45 196.996094 Z M 45 125.746094 " clip-rule="nonzero"/></clipPath><clipPath id="13fd1e827b"><path d="M 166 224.046875 L 193 224.046875 L 193 285.546875 L 166 285.546875 Z M 166 224.046875 " clip-rule="nonzero"/></clipPath><clipPath id="a78ad8df83"><rect x="0" width="125" y="0" height="228"/></clipPath><clipPath id="d23beda9c0"><rect x="0" width="110" y="0" height="257"/></clipPath></defs><rect x="-37.5" width="450" fill="#ffffff" y="-37.499999" height="449.999989" fill-opacity="1"/><rect x="-37.5" width="450" fill="#3c178b" y="-37.499999" height="449.999989" fill-opacity="1"/><g clip-path="url(#1a5a11fc2f)"><g clip-path="url(#9d8812c364)"><g transform="matrix(1, 0, 0, 1, 123, 197)"><g clip-path="url(#4f7397019b)"><g clip-path="url(#435a91becc)"><g clip-path="url(#802df88694)"><path fill="#b3ff75" d="M 0.382812 0.160156 L 112.882812 0.160156 L 112.882812 112.660156 L 0.382812 112.660156 Z M 0.382812 0.160156 " fill-opacity="1" fill-rule="nonzero"/></g></g></g></g></g></g><g clip-path="url(#b1a8bdf451)"><path fill="#ffffff" d="M 98.351562 107.515625 C 133.144531 107.515625 161.339844 135.71875 161.339844 170.515625 C 161.339844 205.308594 133.136719 233.503906 98.351562 233.503906 C 63.554688 233.503906 35.351562 205.300781 35.351562 170.515625 C 35.351562 135.71875 63.554688 107.515625 98.351562 107.515625 Z M 179.113281 191.550781 C 174.726562 191.550781 170.445312 192.003906 166.308594 192.855469 C 158.9375 215.277344 140.785156 232.804688 117.980469 239.304688 C 116.769531 244.191406 116.125 249.292969 116.125 254.550781 C 116.125 289.34375 144.328125 317.539062 179.113281 317.539062 C 213.90625 317.539062 242.109375 289.335938 242.109375 254.550781 C 242.109375 219.753906 213.90625 191.550781 179.113281 191.550781 Z M 184.933594 216.378906 C 185.539062 214.109375 187.878906 212.753906 190.148438 213.359375 C 192.417969 213.964844 193.773438 216.304688 193.167969 218.574219 L 173.300781 292.714844 C 172.695312 294.980469 170.355469 296.335938 168.085938 295.730469 C 165.816406 295.125 164.460938 292.785156 165.066406 290.515625 Z M 152.121094 228.566406 C 153.699219 226.820312 156.402344 226.695312 158.136719 228.277344 C 159.882812 229.859375 160.003906 232.558594 158.421875 234.292969 L 140.023438 254.550781 L 158.421875 274.796875 C 160.003906 276.53125 159.882812 279.222656 158.136719 280.8125 C 156.402344 282.394531 153.710938 282.269531 152.121094 280.527344 L 131.125 257.40625 C 129.65625 255.804688 129.636719 253.320312 131.125 251.675781 L 152.121094 228.554688 Z M 199.800781 234.292969 C 198.21875 232.558594 198.339844 229.867188 200.085938 228.277344 C 201.820312 226.695312 204.511719 226.820312 206.101562 228.566406 L 227.097656 251.6875 C 228.589844 253.320312 228.566406 255.8125 227.097656 257.414062 L 206.101562 280.535156 C 204.523438 282.269531 201.820312 282.394531 200.085938 280.824219 C 198.339844 279.242188 198.21875 276.542969 199.800781 274.808594 L 218.199219 254.5625 L 199.800781 234.304688 Z M 119.941406 174.835938 C 119.941406 172.476562 121.851562 170.578125 124.203125 170.578125 C 126.566406 170.578125 128.464844 172.488281 128.464844 174.835938 L 128.464844 205.566406 C 128.464844 207.929688 126.554688 209.828125 124.203125 209.828125 L 72.476562 209.828125 C 70.117188 209.828125 68.21875 207.917969 68.21875 205.566406 L 68.21875 174.835938 C 68.21875 172.476562 70.128906 170.578125 72.476562 170.578125 C 74.839844 170.578125 76.75 172.488281 76.75 174.835938 L 76.75 201.296875 L 119.941406 201.296875 Z M 98.339844 131.183594 C 103.503906 131.183594 108.1875 133.277344 111.574219 136.664062 C 114.964844 140.054688 117.058594 144.734375 117.058594 149.898438 C 117.058594 155.0625 114.964844 159.746094 111.574219 163.132812 C 108.1875 166.519531 103.515625 168.617188 98.339844 168.617188 C 93.167969 168.617188 88.496094 166.519531 85.105469 163.132812 C 81.71875 159.746094 79.625 155.074219 79.625 149.898438 C 79.625 144.734375 81.71875 140.054688 85.105469 136.664062 C 88.496094 133.277344 93.167969 131.183594 98.339844 131.183594 Z M 105.539062 142.691406 C 103.691406 140.855469 101.144531 139.714844 98.339844 139.714844 C 95.527344 139.714844 92.980469 140.855469 91.132812 142.691406 C 89.285156 144.539062 88.144531 147.085938 88.144531 149.898438 C 88.144531 152.710938 89.285156 155.257812 91.132812 157.097656 C 92.980469 158.945312 95.527344 160.082031 98.339844 160.082031 C 101.152344 160.082031 103.699219 158.945312 105.539062 157.097656 C 107.386719 155.257812 108.527344 152.710938 108.527344 149.898438 C 108.527344 147.085938 107.386719 144.539062 105.539062 142.691406 Z M 105.539062 142.691406 " fill-opacity="1" fill-rule="evenodd"/></g><g clip-path="url(#1638b2ba73)"><g clip-path="url(#31ee776bc6)"><g transform="matrix(1, 0, 0, 1, 115, 191)"><g clip-path="url(#3c1b4850d0)"><g clip-path="url(#b3a8545fe1)"><g clip-path="url(#907decf38a)"><path fill="#ffffff" d="M 0.320312 0.578125 L 127.308594 0.578125 L 127.308594 127.074219 L 0.320312 127.074219 Z M 0.320312 0.578125 " fill-opacity="1" fill-rule="nonzero"/></g></g></g></g></g></g><g clip-path="url(#0b2b199f43)"><g clip-path="url(#e01130948b)"><path stroke-linecap="butt" transform="matrix(0.75, 0, 0, 0.75, 115.320232, 191.580369)" fill="none" stroke-linejoin="miter" d="M 84.562613 0.00221631 C 37.859485 0.00221631 0.000107164 37.752219 0.000107164 84.325139 C 0.000107164 130.898058 37.859485 168.648061 84.562613 168.648061 C 131.265741 168.648061 169.125118 130.898058 169.125118 84.325139 C 169.125118 37.752219 131.265741 0.00221631 84.562613 0.00221631 Z M 84.562613 0.00221631 " stroke="#b3ff75" stroke-width="10" stroke-opacity="1" stroke-miterlimit="4"/></g></g><g clip-path="url(#36aaabfcf4)"><g clip-path="url(#063475788d)"><g transform="matrix(1, 0, 0, 1, 16, 79)"><g clip-path="url(#f07916ef9c)"><g clip-path="url(#5f0c1b62f1)"><g clip-path="url(#ec573db9c2)"><path fill="#ffffff" d="M 0.128906 0.597656 L 163.632812 0.597656 L 163.632812 164.105469 L 0.128906 164.105469 Z M 0.128906 0.597656 " fill-opacity="1" fill-rule="nonzero"/></g></g></g></g></g></g><g clip-path="url(#6752fbef65)"><g clip-path="url(#cb385c81bf)"><path stroke-linecap="butt" transform="matrix(0.75, 0, 0, 0.75, 16.129035, 79.598719)" fill="none" stroke-linejoin="miter" d="M 108.999842 -0.0014167 C 48.801917 -0.0014167 -0.000172255 48.800673 -0.000172255 108.998597 C -0.000172255 169.196522 48.801917 217.998612 108.999842 217.998612 C 169.197766 217.998612 217.999856 169.196522 217.999856 108.998597 C 217.999856 48.800673 169.197766 -0.0014167 108.999842 -0.0014167 Z M 108.999842 -0.0014167 " stroke="#b3ff75" stroke-width="12" stroke-opacity="1" stroke-miterlimit="4"/></g></g><g clip-path="url(#1749d18402)"><path fill="#b3ff75" d="M 147.261719 158.761719 C 142.679688 141.285156 137.398438 129.789062 125.238281 126.484375 C 123.378906 125.984375 121.632812 125.738281 119.890625 125.738281 C 116.222656 125.738281 113.269531 126.84375 110.40625 127.914062 C 107.773438 128.898438 104.832031 129.976562 100.765625 130.34375 L 97.71875 130.433594 C 97.71875 130.449219 88.523438 129.101562 85.324219 127.902344 C 82.476562 126.835938 79.53125 125.730469 75.875 125.730469 C 74.128906 125.730469 72.378906 125.976562 70.523438 126.480469 C 58.351562 129.785156 53.074219 141.28125 48.5 158.757812 C 43.199219 179 44.664062 192.570312 52.519531 195.992188 C 53.800781 196.550781 55.148438 196.835938 56.519531 196.835938 C 63.507812 196.835938 69.929688 189.492188 74.621094 184.125 L 75.898438 182.644531 C 79.722656 178.171875 87.738281 175.605469 97.878906 175.605469 C 108.910156 175.605469 115.6875 177.777344 119.859375 182.652344 L 121.136719 184.136719 C 125.824219 189.496094 132.242188 196.832031 139.230469 196.832031 C 140.613281 196.832031 141.957031 196.550781 143.226562 195.992188 C 151.085938 192.570312 152.550781 179.003906 147.261719 158.761719 Z M 81.1875 160.128906 L 75.941406 160.128906 L 75.941406 165.207031 C 75.941406 167.070312 74.304688 168.640625 72.363281 168.640625 C 70.421875 168.640625 68.78125 167.070312 68.78125 165.207031 L 68.78125 160.128906 L 63.855469 160.128906 C 61.996094 160.128906 60.421875 158.488281 60.421875 156.546875 C 60.421875 154.601562 61.996094 152.960938 63.855469 152.960938 L 68.78125 152.960938 L 68.78125 147.878906 C 68.78125 146.019531 70.421875 144.445312 72.363281 144.445312 C 74.304688 144.445312 75.941406 146.019531 75.941406 147.878906 L 75.941406 152.960938 L 81.1875 152.960938 C 83.042969 152.960938 84.617188 154.601562 84.617188 156.546875 C 84.621094 158.488281 83.046875 160.128906 81.1875 160.128906 Z M 118.429688 166.359375 C 115.523438 166.359375 113.164062 164 113.164062 161.097656 C 113.164062 158.195312 115.53125 155.835938 118.429688 155.835938 C 121.328125 155.835938 123.6875 158.195312 123.6875 161.097656 C 123.6875 164 121.328125 166.359375 118.429688 166.359375 Z M 128.246094 156.542969 C 125.34375 156.542969 122.984375 154.179688 122.984375 151.277344 C 122.984375 148.378906 125.347656 146.019531 128.246094 146.019531 C 131.144531 146.019531 133.507812 148.378906 133.511719 151.277344 C 133.511719 154.179688 131.144531 156.542969 128.246094 156.542969 Z M 128.246094 156.542969 " fill-opacity="1" fill-rule="nonzero"/></g><path fill="#b3ff75" d="M 157.960938 276.925781 C 156.660156 276.925781 155.792969 276.492188 154.925781 275.625 L 137.589844 258.289062 C 135.855469 256.554688 135.855469 253.957031 137.589844 252.222656 L 154.925781 234.882812 C 156.660156 233.152344 159.257812 233.152344 160.992188 234.882812 C 162.726562 236.617188 162.726562 239.21875 160.992188 240.953125 L 146.691406 255.253906 L 160.992188 269.558594 C 162.726562 271.292969 162.726562 273.894531 160.992188 275.625 C 160.125 276.492188 159.257812 276.925781 157.960938 276.925781 Z M 157.960938 276.925781 " fill-opacity="1" fill-rule="nonzero"/><path fill="#b3ff75" d="M 201.300781 276.925781 C 200 276.925781 199.136719 276.492188 198.269531 275.625 C 196.535156 273.894531 196.535156 271.292969 198.269531 269.558594 L 212.570312 255.253906 L 198.269531 240.953125 C 196.535156 239.21875 196.535156 236.617188 198.269531 234.882812 C 200 233.152344 202.601562 233.152344 204.335938 234.882812 L 221.671875 252.222656 C 223.40625 253.957031 223.40625 256.554688 221.671875 258.289062 L 204.335938 275.625 C 203.46875 276.492188 202.601562 276.925781 201.300781 276.925781 Z M 201.300781 276.925781 " fill-opacity="1" fill-rule="nonzero"/><g clip-path="url(#13fd1e827b)"><path fill="#b3ff75" d="M 170.960938 285.59375 C 170.527344 285.59375 170.09375 285.59375 169.660156 285.160156 C 167.496094 284.296875 166.195312 282.128906 167.0625 279.527344 L 184.398438 227.515625 C 185.265625 225.347656 187.433594 224.046875 190.03125 224.914062 C 192.199219 225.78125 193.5 227.949219 192.632812 230.550781 L 175.296875 282.5625 C 174.429688 284.296875 172.695312 285.59375 170.960938 285.59375 Z M 170.960938 285.59375 " fill-opacity="1" fill-rule="nonzero"/></g><g transform="matrix(1, 0, 0, 1, 180, 0)"><g clip-path="url(#a78ad8df83)"><g fill="#c6ff98" fill-opacity="1"><g transform="translate(1.405297, 167.474646)"><g><path d="M 61.203125 1.109375 C 42.398438 1.109375 27.835938 -5.097656 17.515625 -17.515625 C 9.160156 -27.585938 4.984375 -39.382812 4.984375 -52.90625 C 4.984375 -67.53125 9.097656 -80.066406 17.328125 -90.515625 C 27.648438 -103.421875 42.210938 -109.875 61.015625 -109.875 C 75.765625 -109.875 87.8125 -106.398438 97.15625 -99.453125 C 106.5 -92.515625 112.03125 -83.269531 113.75 -71.71875 L 84.8125 -71.71875 C 84.8125 -77 82.71875 -81.050781 78.53125 -83.875 C 74.351562 -86.707031 69.128906 -88.125 62.859375 -88.125 C 53.765625 -88.125 46.578125 -84.863281 41.296875 -78.34375 C 36.015625 -71.832031 33.375 -63.351562 33.375 -52.90625 C 33.375 -43.195312 35.890625 -35.390625 40.921875 -29.484375 C 45.960938 -23.585938 52.660156 -20.640625 61.015625 -20.640625 C 68.890625 -20.640625 74.945312 -21.898438 79.1875 -24.421875 C 83.425781 -26.941406 86.585938 -31.273438 88.671875 -37.421875 L 69.5 -37.421875 L 69.5 -58.25 L 113.015625 -58.25 L 113.015625 0 L 92.359375 0 L 91.625 -8.84375 C 83.882812 -2.207031 73.742188 1.109375 61.203125 1.109375 Z M 61.203125 1.109375 "/></g></g></g></g></g><g transform="matrix(1, 0, 0, 1, 252, 113)"><g clip-path="url(#d23beda9c0)"><g fill="#c6ff98" fill-opacity="1"><g transform="translate(1.50239, 198.976723)"><g><path d="M 101.40625 -34.453125 C 101.40625 -23.203125 98.125 -14.644531 91.5625 -8.78125 C 84.0625 -2.226562 71.992188 1.046875 55.359375 1.046875 C 42.234375 1.046875 31.101562 -1.46875 21.96875 -6.5 C 12.832031 -11.539062 7.382812 -19.507812 5.625 -30.40625 L 36.90625 -30.40625 C 37.613281 -23.257812 43.820312 -19.6875 55.53125 -19.6875 C 62.675781 -19.6875 67.597656 -20.445312 70.296875 -21.96875 C 72.992188 -23.488281 74.34375 -26.179688 74.34375 -30.046875 C 74.34375 -31.109375 73.960938 -32.109375 73.203125 -33.046875 C 72.441406 -33.984375 71.269531 -34.800781 69.6875 -35.5 C 68.101562 -36.207031 66.519531 -36.851562 64.9375 -37.4375 C 63.351562 -38.019531 61.300781 -38.601562 58.78125 -39.1875 C 56.269531 -39.78125 54.160156 -40.25 52.453125 -40.59375 C 50.753906 -40.945312 48.53125 -41.359375 45.78125 -41.828125 C 43.03125 -42.296875 41.128906 -42.648438 40.078125 -42.890625 C 33.984375 -43.941406 28.472656 -45.578125 23.546875 -47.796875 C 11.710938 -52.835938 5.796875 -60.628906 5.796875 -71.171875 C 5.796875 -81.835938 9.019531 -89.925781 15.46875 -95.4375 C 22.726562 -101.644531 34.675781 -104.75 51.3125 -104.75 C 64.207031 -104.75 75.367188 -101.9375 84.796875 -96.3125 C 94.234375 -90.6875 98.953125 -82.894531 98.953125 -72.9375 L 67.484375 -72.9375 C 66.898438 -80.320312 61.570312 -84.015625 51.5 -84.015625 C 45.757812 -84.015625 41.21875 -83.25 37.875 -81.71875 C 34.53125 -80.195312 32.859375 -78.441406 32.859375 -76.453125 C 32.859375 -75.046875 33.359375 -73.695312 34.359375 -72.40625 C 35.359375 -71.113281 36.941406 -69.96875 39.109375 -68.96875 C 41.273438 -67.976562 43.296875 -67.128906 45.171875 -66.421875 C 47.046875 -65.722656 49.625 -64.992188 52.90625 -64.234375 C 56.1875 -63.472656 58.613281 -62.945312 60.1875 -62.65625 C 61.769531 -62.363281 64.085938 -61.925781 67.140625 -61.34375 C 72.992188 -60.164062 78.5 -58.582031 83.65625 -56.59375 C 95.488281 -51.789062 101.40625 -44.410156 101.40625 -34.453125 Z M 101.40625 -34.453125 "/></g></g></g></g></g></svg>