<svg xmlns="http://www.w3.org/2000/svg" xmlns:xlink="http://www.w3.org/1999/xlink" width="500" zoomAndPan="magnify" viewBox="0 0 375 374.999991" height="500" preserveAspectRatio="xMidYMid meet" version="1.0"><defs><clipPath id="407e010e10"><path d="M 187.5 0 C 83.945312 0 0 83.945312 0 187.5 C 0 291.054688 83.945312 375 187.5 375 C 291.054688 375 375 291.054688 375 187.5 C 375 83.945312 291.054688 0 187.5 0 Z M 187.5 0 " clip-rule="nonzero"/></clipPath><clipPath id="ab44ff5fd7"><path d="M 0 0 L 375 0 L 375 375 L 0 375 Z M 0 0 " clip-rule="nonzero"/></clipPath><clipPath id="11ff1cea86"><path d="M 187.5 0 C 83.945312 0 0 83.945312 0 187.5 C 0 291.054688 83.945312 375 187.5 375 C 291.054688 375 375 291.054688 375 187.5 C 375 83.945312 291.054688 0 187.5 0 Z M 187.5 0 " clip-rule="nonzero"/></clipPath><clipPath id="f84dc84020"><rect x="0" width="375" y="0" height="375"/></clipPath><clipPath id="f334221646"><path d="M 78.875 188 L 296.375 188 L 296.375 323.222656 L 78.875 323.222656 Z M 78.875 188 " clip-rule="nonzero"/></clipPath><clipPath id="de09aacb9e"><path d="M 128 51.722656 L 247 51.722656 L 247 170 L 128 170 Z M 128 51.722656 " clip-rule="nonzero"/></clipPath></defs><g clip-path="url(#407e010e10)"><g transform="matrix(1, 0, 0, 1, 0, 0)"><g clip-path="url(#f84dc84020)"><g clip-path="url(#ab44ff5fd7)"><g clip-path="url(#11ff1cea86)"><rect x="-82.5" width="540" fill="#e7e2ff" height="539.999987" y="-82.499998" fill-opacity="1"/></g></g></g></g></g><g clip-path="url(#f334221646)"><path fill="#351775" d="M 187.496094 188.054688 C 185.722656 188.058594 183.945312 188.101562 182.171875 188.191406 C 180.394531 188.28125 178.625 188.414062 176.855469 188.589844 C 175.085938 188.765625 173.324219 188.984375 171.566406 189.246094 C 169.808594 189.507812 168.058594 189.8125 166.316406 190.164062 C 164.574219 190.511719 162.839844 190.902344 161.117188 191.335938 C 159.394531 191.765625 157.679688 192.242188 155.980469 192.757812 C 154.28125 193.277344 152.59375 193.835938 150.921875 194.433594 C 149.25 195.035156 147.589844 195.675781 145.949219 196.355469 C 144.308594 197.035156 142.683594 197.757812 141.078125 198.515625 C 139.472656 199.277344 137.886719 200.078125 136.320312 200.914062 C 134.75 201.753906 133.207031 202.628906 131.683594 203.542969 C 130.160156 204.457031 128.65625 205.410156 127.179688 206.398438 C 125.703125 207.386719 124.25 208.410156 122.824219 209.46875 C 121.394531 210.527344 119.996094 211.621094 118.621094 212.746094 C 117.25 213.875 115.902344 215.035156 114.585938 216.230469 C 113.269531 217.421875 111.984375 218.648438 110.726562 219.902344 C 109.46875 221.160156 108.246094 222.445312 107.050781 223.761719 C 105.859375 225.082031 104.699219 226.425781 103.570312 227.800781 C 102.441406 229.171875 101.351562 230.574219 100.289062 232 C 99.230469 233.425781 98.207031 234.878906 97.222656 236.355469 C 96.234375 237.835938 95.28125 239.335938 94.367188 240.859375 C 93.453125 242.382812 92.578125 243.929688 91.738281 245.496094 C 90.902344 247.0625 90.101562 248.648438 89.339844 250.253906 C 88.582031 251.859375 87.859375 253.484375 87.179688 255.125 C 86.496094 256.765625 85.859375 258.425781 85.257812 260.097656 C 84.65625 261.769531 84.101562 263.457031 83.582031 265.15625 C 83.066406 266.855469 82.589844 268.570312 82.15625 270.292969 C 81.722656 272.015625 81.332031 273.75 80.984375 275.492188 C 80.636719 277.234375 80.332031 278.984375 80.070312 280.742188 C 79.808594 282.5 79.589844 284.261719 79.414062 286.03125 C 79.238281 287.800781 79.105469 289.570312 79.015625 291.347656 C 78.925781 293.121094 78.882812 294.898438 78.878906 296.675781 C 78.878906 297.601562 79.019531 298.511719 79.296875 299.398438 C 79.578125 300.285156 79.984375 301.105469 80.515625 301.867188 C 81.046875 302.628906 81.683594 303.292969 82.421875 303.859375 C 83.15625 304.421875 83.960938 304.863281 84.835938 305.183594 C 101.289062 311.164062 118.132812 315.675781 135.375 318.710938 C 152.617188 321.75 169.992188 323.269531 187.496094 323.269531 C 205.003906 323.265625 222.378906 321.742188 239.621094 318.703125 C 256.863281 315.664062 273.707031 311.148438 290.160156 305.164062 C 291.035156 304.847656 291.839844 304.40625 292.574219 303.839844 C 293.3125 303.273438 293.949219 302.609375 294.480469 301.851562 C 295.011719 301.089844 295.417969 300.265625 295.699219 299.378906 C 295.976562 298.492188 296.117188 297.585938 296.117188 296.65625 C 296.113281 294.878906 296.070312 293.105469 295.980469 291.328125 C 295.890625 289.554688 295.757812 287.78125 295.582031 286.015625 C 295.40625 284.246094 295.1875 282.484375 294.921875 280.726562 C 294.660156 278.96875 294.355469 277.21875 294.007812 275.476562 C 293.660156 273.734375 293.269531 272 292.835938 270.277344 C 292.402344 268.554688 291.925781 266.84375 291.410156 265.144531 C 290.890625 263.441406 290.332031 261.757812 289.734375 260.085938 C 289.132812 258.410156 288.492188 256.753906 287.8125 255.113281 C 287.132812 253.472656 286.410156 251.847656 285.648438 250.242188 C 284.886719 248.636719 284.089844 247.050781 283.25 245.484375 C 282.414062 243.917969 281.535156 242.371094 280.621094 240.847656 C 279.707031 239.324219 278.757812 237.824219 277.769531 236.347656 C 276.78125 234.871094 275.757812 233.417969 274.699219 231.992188 C 273.640625 230.566406 272.546875 229.164062 271.417969 227.792969 C 270.292969 226.417969 269.128906 225.074219 267.9375 223.757812 C 266.742188 222.441406 265.519531 221.152344 264.261719 219.898438 C 263.003906 218.640625 261.71875 217.417969 260.402344 216.222656 C 259.085938 215.03125 257.742188 213.871094 256.367188 212.742188 C 254.992188 211.613281 253.59375 210.523438 252.167969 209.460938 C 250.738281 208.402344 249.285156 207.382812 247.808594 206.394531 C 246.332031 205.40625 244.832031 204.457031 243.308594 203.542969 C 241.785156 202.628906 240.238281 201.75 238.671875 200.914062 C 237.105469 200.074219 235.519531 199.277344 233.914062 198.515625 C 232.308594 197.753906 230.683594 197.035156 229.042969 196.351562 C 227.402344 195.671875 225.742188 195.03125 224.070312 194.433594 C 222.398438 193.832031 220.710938 193.273438 219.011719 192.757812 C 217.3125 192.242188 215.601562 191.765625 213.875 191.332031 C 212.152344 190.898438 210.421875 190.511719 208.679688 190.160156 C 206.9375 189.8125 205.1875 189.507812 203.429688 189.246094 C 201.671875 188.984375 199.90625 188.765625 198.140625 188.589844 C 196.371094 188.414062 194.601562 188.28125 192.824219 188.191406 C 191.050781 188.101562 189.273438 188.058594 187.496094 188.054688 Z M 187.496094 188.054688 " fill-opacity="1" fill-rule="nonzero"/></g><g clip-path="url(#de09aacb9e)"><path fill="#351775" d="M 246.332031 110.554688 C 246.332031 112.484375 246.238281 114.40625 246.050781 116.324219 C 245.859375 118.242188 245.578125 120.144531 245.203125 122.035156 C 244.828125 123.925781 244.359375 125.792969 243.800781 127.636719 C 243.242188 129.480469 242.59375 131.292969 241.855469 133.070312 C 241.117188 134.851562 240.292969 136.589844 239.386719 138.289062 C 238.476562 139.992188 237.488281 141.640625 236.417969 143.242188 C 235.347656 144.84375 234.199219 146.390625 232.976562 147.878906 C 231.753906 149.371094 230.464844 150.796875 229.101562 152.160156 C 227.738281 153.523438 226.3125 154.8125 224.824219 156.035156 C 223.332031 157.257812 221.789062 158.40625 220.183594 159.476562 C 218.582031 160.546875 216.933594 161.535156 215.234375 162.445312 C 213.535156 163.351562 211.792969 164.175781 210.011719 164.914062 C 208.234375 165.648438 206.421875 166.296875 204.578125 166.859375 C 202.734375 167.417969 200.867188 167.886719 198.976562 168.261719 C 197.085938 168.636719 195.183594 168.917969 193.265625 169.109375 C 191.347656 169.296875 189.425781 169.390625 187.496094 169.390625 C 185.570312 169.390625 183.648438 169.296875 181.730469 169.109375 C 179.8125 168.917969 177.910156 168.636719 176.019531 168.261719 C 174.128906 167.886719 172.261719 167.417969 170.417969 166.859375 C 168.574219 166.296875 166.761719 165.648438 164.984375 164.914062 C 163.203125 164.175781 161.460938 163.351562 159.761719 162.445312 C 158.0625 161.535156 156.414062 160.546875 154.8125 159.476562 C 153.207031 158.40625 151.664062 157.257812 150.171875 156.035156 C 148.683594 154.8125 147.257812 153.523438 145.894531 152.160156 C 144.53125 150.796875 143.238281 149.371094 142.019531 147.878906 C 140.796875 146.390625 139.648438 144.84375 138.578125 143.242188 C 137.507812 141.640625 136.519531 139.992188 135.609375 138.289062 C 134.703125 136.589844 133.878906 134.851562 133.140625 133.070312 C 132.402344 131.292969 131.753906 129.480469 131.195312 127.636719 C 130.636719 125.792969 130.167969 123.925781 129.792969 122.035156 C 129.417969 120.144531 129.136719 118.242188 128.945312 116.324219 C 128.757812 114.40625 128.664062 112.484375 128.664062 110.554688 C 128.664062 108.628906 128.757812 106.707031 128.945312 104.789062 C 129.136719 102.871094 129.417969 100.96875 129.792969 99.078125 C 130.167969 97.1875 130.636719 95.320312 131.195312 93.476562 C 131.753906 91.632812 132.402344 89.820312 133.140625 88.039062 C 133.878906 86.261719 134.703125 84.519531 135.609375 82.820312 C 136.519531 81.121094 137.507812 79.472656 138.578125 77.871094 C 139.648438 76.265625 140.796875 74.722656 142.019531 73.230469 C 143.238281 71.742188 144.53125 70.316406 145.894531 68.953125 C 147.257812 67.589844 148.683594 66.296875 150.171875 65.074219 C 151.664062 63.855469 153.207031 62.707031 154.8125 61.636719 C 156.414062 60.566406 158.0625 59.578125 159.761719 58.667969 C 161.460938 57.761719 163.203125 56.9375 164.984375 56.199219 C 166.761719 55.460938 168.574219 54.8125 170.417969 54.253906 C 172.261719 53.695312 174.128906 53.226562 176.019531 52.851562 C 177.910156 52.476562 179.8125 52.191406 181.730469 52.003906 C 183.648438 51.816406 185.570312 51.722656 187.496094 51.722656 C 189.425781 51.722656 191.347656 51.816406 193.265625 52.003906 C 195.183594 52.191406 197.085938 52.476562 198.976562 52.851562 C 200.867188 53.226562 202.734375 53.695312 204.578125 54.253906 C 206.421875 54.8125 208.234375 55.460938 210.011719 56.199219 C 211.792969 56.9375 213.535156 57.761719 215.234375 58.667969 C 216.933594 59.578125 218.582031 60.566406 220.183594 61.636719 C 221.789062 62.707031 223.332031 63.855469 224.824219 65.074219 C 226.3125 66.296875 227.738281 67.589844 229.101562 68.953125 C 230.464844 70.316406 231.753906 71.742188 232.976562 73.230469 C 234.199219 74.722656 235.347656 76.265625 236.417969 77.871094 C 237.488281 79.472656 238.476562 81.121094 239.386719 82.820312 C 240.292969 84.519531 241.117188 86.261719 241.855469 88.039062 C 242.59375 89.820312 243.242188 91.632812 243.800781 93.476562 C 244.359375 95.320312 244.828125 97.1875 245.203125 99.078125 C 245.578125 100.96875 245.859375 102.871094 246.050781 104.789062 C 246.238281 106.707031 246.332031 108.628906 246.332031 110.554688 Z M 246.332031 110.554688 " fill-opacity="1" fill-rule="nonzero"/></g></svg>